<svg width="2309" height="361" xmlns="http://www.w3.org/2000/svg" xmlns:xlink="http://www.w3.org/1999/xlink" xml:space="preserve" overflow="hidden"><defs><clipPath id="clip0"><rect x="201" y="276" width="2309" height="361"/></clipPath><clipPath id="clip1"><rect x="201" y="333" width="337" height="270"/></clipPath><clipPath id="clip2"><rect x="537" y="333" width="102" height="270"/></clipPath><clipPath id="clip3"><rect x="638" y="333" width="89" height="270"/></clipPath><clipPath id="clip4"><rect x="726" y="333" width="88" height="270"/></clipPath><clipPath id="clip5"><rect x="901" y="333" width="89" height="270"/></clipPath><clipPath id="clip6"><rect x="989" y="333" width="105" height="270"/></clipPath><clipPath id="clip7"><rect x="1357" y="333" width="97" height="270"/></clipPath><clipPath id="clip8"><rect x="1453" y="333" width="89" height="270"/></clipPath><clipPath id="clip9"><rect x="1541" y="333" width="95" height="270"/></clipPath><clipPath id="clip10"><rect x="1723" y="333" width="102" height="270"/></clipPath><clipPath id="clip11"><rect x="1824" y="333" width="113" height="270"/></clipPath><clipPath id="clip12"><rect x="1936" y="333" width="118" height="270"/></clipPath><clipPath id="clip13"><rect x="2053" y="333" width="97" height="270"/></clipPath><clipPath id="clip14"><rect x="2149" y="333" width="105" height="270"/></clipPath><clipPath id="clip15"><rect x="2253" y="333" width="89" height="270"/></clipPath><clipPath id="clip16"><rect x="2341" y="333" width="92" height="270"/></clipPath><clipPath id="clip17"><rect x="2432" y="333" width="76" height="270"/></clipPath><clipPath id="clip18"><rect x="201" y="418" width="337" height="257"/></clipPath><clipPath id="clip19"><rect x="638" y="418" width="89" height="257"/></clipPath><clipPath id="clip20"><rect x="726" y="418" width="88" height="257"/></clipPath><clipPath id="clip21"><rect x="813" y="418" width="89" height="257"/></clipPath><clipPath id="clip22"><rect x="901" y="418" width="89" height="257"/></clipPath><clipPath id="clip23"><rect x="1093" y="418" width="89" height="257"/></clipPath><clipPath id="clip24"><rect x="1181" y="418" width="89" height="257"/></clipPath><clipPath id="clip25"><rect x="1269" y="418" width="89" height="257"/></clipPath><clipPath id="clip26"><rect x="1453" y="418" width="89" height="257"/></clipPath><clipPath id="clip27"><rect x="1635" y="418" width="89" height="257"/></clipPath><clipPath id="clip28"><rect x="2253" y="418" width="89" height="257"/></clipPath><clipPath id="clip29"><rect x="2341" y="418" width="92" height="257"/></clipPath><clipPath id="clip30"><rect x="2432" y="418" width="76" height="257"/></clipPath><clipPath id="clip31"><rect x="201" y="459" width="337" height="258"/></clipPath><clipPath id="clip32"><rect x="638" y="459" width="89" height="258"/></clipPath><clipPath id="clip33"><rect x="726" y="459" width="88" height="258"/></clipPath><clipPath id="clip34"><rect x="813" y="459" width="89" height="258"/></clipPath><clipPath id="clip35"><rect x="901" y="459" width="89" height="258"/></clipPath><clipPath id="clip36"><rect x="1093" y="459" width="89" height="258"/></clipPath><clipPath id="clip37"><rect x="1181" y="459" width="89" height="258"/></clipPath><clipPath id="clip38"><rect x="1269" y="459" width="89" height="258"/></clipPath><clipPath id="clip39"><rect x="1453" y="459" width="89" height="258"/></clipPath><clipPath id="clip40"><rect x="1635" y="459" width="89" height="258"/></clipPath><clipPath id="clip41"><rect x="2253" y="459" width="89" height="258"/></clipPath><clipPath id="clip42"><rect x="2341" y="459" width="92" height="258"/></clipPath><clipPath id="clip43"><rect x="2432" y="459" width="76" height="258"/></clipPath></defs><g clip-path="url(#clip0)" transform="translate(-201 -276)"><text fill="#231F20" font-family="Times New Roman,Times New Roman_MSFontService,sans-serif" font-weight="400" font-size="37" transform="matrix(1 0 0 1 1261.56 322)">TABLE</text><text fill="#231F20" font-family="Times New Roman,Times New Roman_MSFontService,sans-serif" font-weight="400" font-size="37" transform="matrix(1 0 0 1 1383.47 322)">VIII</text><text fill="#231F20" font-family="Times New Roman,Times New Roman_MSFontService,sans-serif" font-weight="400" font-size="37" transform="matrix(1 0 0 1 669.779 363)">C</text><text fill="#231F20" font-family="Times New Roman,Times New Roman_MSFontService,sans-serif" font-weight="400" font-size="29" transform="matrix(1 0 0 1 694.186 363)">OM</text><text fill="#231F20" font-family="Times New Roman,Times New Roman_MSFontService,sans-serif" font-weight="400" font-size="29" transform="matrix(1 0 0 1 740.638 363)">P</text><text fill="#231F20" font-family="Times New Roman,Times New Roman_MSFontService,sans-serif" font-weight="400" font-size="29" transform="matrix(1 0 0 1 754.113 363)">ARISON</text><text fill="#231F20" font-family="Times New Roman,Times New Roman_MSFontService,sans-serif" font-weight="400" font-size="29" transform="matrix(1 0 0 1 871.309 363)">OF</text><text fill="#231F20" font-family="Times New Roman,Times New Roman_MSFontService,sans-serif" font-weight="400" font-size="37" transform="matrix(1 0 0 1 918.357 363)">B</text><text fill="#231F20" font-family="Times New Roman,Times New Roman_MSFontService,sans-serif" font-weight="400" font-size="29" transform="matrix(1 0 0 1 942.763 363)">OUNDING</text><text fill="#231F20" font-family="Times New Roman,Times New Roman_MSFontService,sans-serif" font-weight="400" font-size="37" transform="matrix(1 0 0 1 1087.66 363)">B</text><text fill="#231F20" font-family="Times New Roman,Times New Roman_MSFontService,sans-serif" font-weight="400" font-size="29" transform="matrix(1 0 0 1 1112.07 363)">O</text><text fill="#231F20" font-family="Times New Roman,Times New Roman_MSFontService,sans-serif" font-weight="400" font-size="29" transform="matrix(1 0 0 1 1131.99 363)">X</text><text fill="#231F20" font-family="Times New Roman,Times New Roman_MSFontService,sans-serif" font-weight="400" font-size="37" transform="matrix(1 0 0 1 1163.36 363)">R</text><text fill="#231F20" font-family="Times New Roman,Times New Roman_MSFontService,sans-serif" font-weight="400" font-size="29" transform="matrix(1 0 0 1 1187.76 363)">EGRESSION</text><text fill="#231F20" font-family="Times New Roman,Times New Roman_MSFontService,sans-serif" font-weight="400" font-size="37" transform="matrix(1 0 0 1 1355.42 363)">U</text><text fill="#231F20" font-family="Times New Roman,Times New Roman_MSFontService,sans-serif" font-weight="400" font-size="29" transform="matrix(1 0 0 1 1381.32 363)">SING</text><text fill="#231F20" font-family="Times New Roman,Times New Roman_MSFontService,sans-serif" font-weight="400" font-size="37" transform="matrix(1 0 0 1 1458.57 363)">D</text><text fill="#231F20" font-family="Times New Roman,Times New Roman_MSFontService,sans-serif" font-weight="400" font-size="29" transform="matrix(1 0 0 1 1484.47 363)">IFFERENT</text><text fill="#231F20" font-family="Times New Roman,Times New Roman_MSFontService,sans-serif" font-weight="400" font-size="37" transform="matrix(1 0 0 1 1627.86 363)">F</text><text fill="#231F20" font-family="Times New Roman,Times New Roman_MSFontService,sans-serif" font-weight="400" font-size="29" transform="matrix(1 0 0 1 1648.02 363)">E</text><text fill="#231F20" font-family="Times New Roman,Times New Roman_MSFontService,sans-serif" font-weight="400" font-size="29" transform="matrix(1 0 0 1 1665.42 363)">A</text><text fill="#231F20" font-family="Times New Roman,Times New Roman_MSFontService,sans-serif" font-weight="400" font-size="29" transform="matrix(1 0 0 1 1683.5 363)">TURE</text><text fill="#231F20" font-family="Times New Roman,Times New Roman_MSFontService,sans-serif" font-weight="400" font-size="37" transform="matrix(1 0 0 1 1768.77 363)">R</text><text fill="#231F20" font-family="Times New Roman,Times New Roman_MSFontService,sans-serif" font-weight="400" font-size="29" transform="matrix(1 0 0 1 1793.18 363)">EPRESEN</text><text fill="#231F20" font-family="Times New Roman,Times New Roman_MSFontService,sans-serif" font-weight="400" font-size="29" transform="matrix(1 0 0 1 1916.65 363)">T</text><text fill="#231F20" font-family="Times New Roman,Times New Roman_MSFontService,sans-serif" font-weight="400" font-size="29" transform="matrix(1 0 0 1 1931.85 363)">A</text><text fill="#231F20" font-family="Times New Roman,Times New Roman_MSFontService,sans-serif" font-weight="400" font-size="29" transform="matrix(1 0 0 1 1949.93 363)">TIONS</text><path d="M201.135 509.918 2507.69 509.918" stroke="#000000" stroke-width="3.4375" stroke-linejoin="round" stroke-miterlimit="10" fill="none" fill-rule="evenodd"/><path d="M201.135 423.294 2507.69 423.294" stroke="#000000" stroke-width="3.4375" stroke-linejoin="round" stroke-miterlimit="10" fill="none" fill-rule="evenodd"/><path d="M201.135 635.272 2507.69 635.272" stroke="#000000" stroke-width="3.4375" stroke-linejoin="round" stroke-miterlimit="10" fill="none" fill-rule="evenodd"/><g clip-path="url(#clip1)"><text fill="#231F20" font-family="Times New Roman,Times New Roman_MSFontService,sans-serif" font-weight="700" font-size="32" transform="matrix(1 0 0 1 201.135 480)">Feature Representation</text></g><g clip-path="url(#clip2)"><text fill="#231F20" font-family="Times New Roman,Times New Roman_MSFontService,sans-serif" font-weight="700" font-size="32" transform="matrix(1 0 0 1 554.91 480)">mAP</text></g><g clip-path="url(#clip3)"><text fill="#231F20" font-family="Times New Roman,Times New Roman_MSFontService,sans-serif" font-weight="400" font-size="32" transform="matrix(1 0 0 1 656.316 480)">aero</text></g><g clip-path="url(#clip4)"><text fill="#231F20" font-family="Times New Roman,Times New Roman_MSFontService,sans-serif" font-weight="400" font-size="32" transform="matrix(1 0 0 1 742.425 480)">bike</text></g><text fill="#231F20" font-family="Times New Roman,Times New Roman_MSFontService,sans-serif" font-weight="400" font-size="32" transform="matrix(1 0 0 1 833.576 480)">bird</text><g clip-path="url(#clip5)"><text fill="#231F20" font-family="Times New Roman,Times New Roman_MSFontService,sans-serif" font-weight="400" font-size="32" transform="matrix(1 0 0 1 919.628 480)">boat</text></g><g clip-path="url(#clip6)"><text fill="#231F20" font-family="Times New Roman,Times New Roman_MSFontService,sans-serif" font-weight="400" font-size="32" transform="matrix(1 0 0 1 1005.28 480)">bottle</text></g><text fill="#231F20" font-family="Times New Roman,Times New Roman_MSFontService,sans-serif" font-weight="400" font-size="32" transform="matrix(1 0 0 1 1117.23 480)">bus</text><text fill="#231F20" font-family="Times New Roman,Times New Roman_MSFontService,sans-serif" font-weight="400" font-size="32" transform="matrix(1 0 0 1 1207.58 480)">car</text><text fill="#231F20" font-family="Times New Roman,Times New Roman_MSFontService,sans-serif" font-weight="400" font-size="32" transform="matrix(1 0 0 1 1296.21 480)">cat</text><g clip-path="url(#clip7)"><text fill="#231F20" font-family="Times New Roman,Times New Roman_MSFontService,sans-serif" font-weight="400" font-size="32" transform="matrix(1 0 0 1 1373.95 480)">chair</text></g><g clip-path="url(#clip8)"><text fill="#231F20" font-family="Times New Roman,Times New Roman_MSFontService,sans-serif" font-weight="400" font-size="32" transform="matrix(1 0 0 1 1472.15 480)">cow</text></g><g clip-path="url(#clip9)"><text fill="#231F20" font-family="Times New Roman,Times New Roman_MSFontService,sans-serif" font-weight="400" font-size="32" transform="matrix(1 0 0 1 1557.8 480)">table</text></g><text fill="#231F20" font-family="Times New Roman,Times New Roman_MSFontService,sans-serif" font-weight="400" font-size="32" transform="matrix(1 0 0 1 1656.91 480)">dog</text><g clip-path="url(#clip10)"><text fill="#231F20" font-family="Times New Roman,Times New Roman_MSFontService,sans-serif" font-weight="400" font-size="32" transform="matrix(1 0 0 1 1740.1 480)">horse</text></g><g clip-path="url(#clip11)"><text fill="#231F20" font-family="Times New Roman,Times New Roman_MSFontService,sans-serif" font-weight="400" font-size="32" transform="matrix(1 0 0 1 1840.36 480)">mbike</text></g><g clip-path="url(#clip12)"><text fill="#231F20" font-family="Times New Roman,Times New Roman_MSFontService,sans-serif" font-weight="400" font-size="32" transform="matrix(1 0 0 1 1953.11 480)">person</text></g><g clip-path="url(#clip13)"><text fill="#231F20" font-family="Times New Roman,Times New Roman_MSFontService,sans-serif" font-weight="400" font-size="32" transform="matrix(1 0 0 1 2069.93 480)">plant</text></g><g clip-path="url(#clip14)"><text fill="#231F20" font-family="Times New Roman,Times New Roman_MSFontService,sans-serif" font-weight="400" font-size="32" transform="matrix(1 0 0 1 2165.89 480)">sheep</text></g><g clip-path="url(#clip15)"><text fill="#231F20" font-family="Times New Roman,Times New Roman_MSFontService,sans-serif" font-weight="400" font-size="32" transform="matrix(1 0 0 1 2272.68 480)">sofa</text></g><g clip-path="url(#clip16)"><text fill="#231F20" font-family="Times New Roman,Times New Roman_MSFontService,sans-serif" font-weight="400" font-size="32" transform="matrix(1 0 0 1 2358.39 480)">train</text></g><g clip-path="url(#clip17)"><text fill="#231F20" font-family="Times New Roman,Times New Roman_MSFontService,sans-serif" font-weight="400" font-size="32" transform="matrix(1 0 0 1 2465.99 480)">tv</text></g><g clip-path="url(#clip18)"><text fill="#231F20" font-family="Times New Roman,Times New Roman_MSFontService,sans-serif" font-weight="400" font-size="32" transform="matrix(1 0 0 1 201.135 557)">Local</text></g><text fill="#231F20" font-family="Times New Roman,Times New Roman_MSFontService,sans-serif" font-weight="400" font-size="32" transform="matrix(1 0 0 1 282.031 557)">&amp;</text><text fill="#231F20" font-family="Times New Roman,Times New Roman_MSFontService,sans-serif" font-weight="400" font-size="32" transform="matrix(1 0 0 1 314.572 557)">Global Context</text><text fill="#231F20" font-family="Times New Roman,Times New Roman_MSFontService,sans-serif" font-weight="400" font-size="32" transform="matrix(1 0 0 1 561.613 557)">72.0</text><g clip-path="url(#clip19)"><text fill="#231F20" font-family="Times New Roman,Times New Roman_MSFontService,sans-serif" font-weight="400" font-size="32" transform="matrix(1 0 0 1 656.029 557)">77.8</text></g><g clip-path="url(#clip20)"><text fill="#231F20" font-family="Times New Roman,Times New Roman_MSFontService,sans-serif" font-weight="400" font-size="32" transform="matrix(1 0 0 1 741.967 557)">80.9</text></g><g clip-path="url(#clip21)"><text fill="#231F20" font-family="Times New Roman,Times New Roman_MSFontService,sans-serif" font-weight="400" font-size="32" transform="matrix(1 0 0 1 831.571 557)">71.2</text></g><g clip-path="url(#clip22)"><text fill="#231F20" font-family="Times New Roman,Times New Roman_MSFontService,sans-serif" font-weight="400" font-size="32" transform="matrix(1 0 0 1 919.342 557)">61.3</text></g><text fill="#231F20" font-family="Times New Roman,Times New Roman_MSFontService,sans-serif" font-weight="400" font-size="32" transform="matrix(1 0 0 1 1013.76 557)">43.4</text><g clip-path="url(#clip23)"><text fill="#231F20" font-family="Times New Roman,Times New Roman_MSFontService,sans-serif" font-weight="400" font-size="32" transform="matrix(1 0 0 1 1111.61 557)">82.2</text></g><g clip-path="url(#clip24)"><text fill="#231F20" font-family="Times New Roman,Times New Roman_MSFontService,sans-serif" font-weight="400" font-size="32" transform="matrix(1 0 0 1 1199.38 557)">81.7</text></g><g clip-path="url(#clip25)"><text fill="#231F20" font-family="Times New Roman,Times New Roman_MSFontService,sans-serif" font-weight="400" font-size="32" transform="matrix(1 0 0 1 1287.15 557)">86.7</text></g><text fill="#231F20" font-family="Times New Roman,Times New Roman_MSFontService,sans-serif" font-weight="400" font-size="32" transform="matrix(1 0 0 1 1378.94 557)">49.2</text><g clip-path="url(#clip26)"><text fill="#231F20" font-family="Times New Roman,Times New Roman_MSFontService,sans-serif" font-weight="400" font-size="32" transform="matrix(1 0 0 1 1470.83 557)">80.9</text></g><text fill="#231F20" font-family="Times New Roman,Times New Roman_MSFontService,sans-serif" font-weight="400" font-size="32" transform="matrix(1 0 0 1 1561.92 557)">73.2</text><g clip-path="url(#clip27)"><text fill="#231F20" font-family="Times New Roman,Times New Roman_MSFontService,sans-serif" font-weight="400" font-size="32" transform="matrix(1 0 0 1 1653.02 557)">84.5</text></g><text fill="#231F20" font-family="Times New Roman,Times New Roman_MSFontService,sans-serif" font-weight="400" font-size="32" transform="matrix(1 0 0 1 1747.66 557)">85.7</text><text fill="#231F20" font-family="Times New Roman,Times New Roman_MSFontService,sans-serif" font-weight="400" font-size="32" transform="matrix(1 0 0 1 1852.28 557)">78.3</text><text fill="#231F20" font-family="Times New Roman,Times New Roman_MSFontService,sans-serif" font-weight="400" font-size="32" transform="matrix(1 0 0 1 1968.47 557)">71.4</text><text fill="#231F20" font-family="Times New Roman,Times New Roman_MSFontService,sans-serif" font-weight="400" font-size="32" transform="matrix(1 0 0 1 2074.91 557)">34.0</text><text fill="#231F20" font-family="Times New Roman,Times New Roman_MSFontService,sans-serif" font-weight="400" font-size="32" transform="matrix(1 0 0 1 2175.17 557)">70.7</text><g clip-path="url(#clip28)"><text fill="#231F20" font-family="Times New Roman,Times New Roman_MSFontService,sans-serif" font-weight="400" font-size="32" transform="matrix(1 0 0 1 2271.54 557)">71.1</text></g><g clip-path="url(#clip29)"><text fill="#231F20" font-family="Times New Roman,Times New Roman_MSFontService,sans-serif" font-weight="400" font-size="32" transform="matrix(1 0 0 1 2360.8 557)">84.3</text></g><g clip-path="url(#clip30)"><text fill="#231F20" font-family="Times New Roman,Times New Roman_MSFontService,sans-serif" font-weight="400" font-size="32" transform="matrix(1 0 0 1 2451.66 557)">71.6</text></g><g clip-path="url(#clip31)"><text fill="#231F20" font-family="Times New Roman,Times New Roman_MSFontService,sans-serif" font-weight="400" font-size="32" transform="matrix(1 0 0 1 201.135 599)">Local</text></g><text fill="#231F20" font-family="Times New Roman,Times New Roman_MSFontService,sans-serif" font-weight="400" font-size="32" transform="matrix(1 0 0 1 280.656 599)">Context</text><text fill="#231F20" font-family="Times New Roman,Times New Roman_MSFontService,sans-serif" font-weight="400" font-size="32" transform="matrix(1 0 0 1 561.613 599)">72.4</text><g clip-path="url(#clip32)"><text fill="#231F20" font-family="Times New Roman,Times New Roman_MSFontService,sans-serif" font-weight="400" font-size="32" transform="matrix(1 0 0 1 656.029 599)">79.1</text></g><g clip-path="url(#clip33)"><text fill="#231F20" font-family="Times New Roman,Times New Roman_MSFontService,sans-serif" font-weight="400" font-size="32" transform="matrix(1 0 0 1 741.967 599)">79.2</text></g><g clip-path="url(#clip34)"><text fill="#231F20" font-family="Times New Roman,Times New Roman_MSFontService,sans-serif" font-weight="400" font-size="32" transform="matrix(1 0 0 1 831.571 599)">71.9</text></g><g clip-path="url(#clip35)"><text fill="#231F20" font-family="Times New Roman,Times New Roman_MSFontService,sans-serif" font-weight="400" font-size="32" transform="matrix(1 0 0 1 919.342 599)">61.0</text></g><text fill="#231F20" font-family="Times New Roman,Times New Roman_MSFontService,sans-serif" font-weight="400" font-size="32" transform="matrix(1 0 0 1 1013.76 599)">43.2</text><g clip-path="url(#clip36)"><text fill="#231F20" font-family="Times New Roman,Times New Roman_MSFontService,sans-serif" font-weight="400" font-size="32" transform="matrix(1 0 0 1 1111.61 599)">83.0</text></g><g clip-path="url(#clip37)"><text fill="#231F20" font-family="Times New Roman,Times New Roman_MSFontService,sans-serif" font-weight="400" font-size="32" transform="matrix(1 0 0 1 1199.38 599)">81.4</text></g><g clip-path="url(#clip38)"><text fill="#231F20" font-family="Times New Roman,Times New Roman_MSFontService,sans-serif" font-weight="400" font-size="32" transform="matrix(1 0 0 1 1287.15 599)">87.7</text></g><text fill="#231F20" font-family="Times New Roman,Times New Roman_MSFontService,sans-serif" font-weight="400" font-size="32" transform="matrix(1 0 0 1 1378.94 599)">50.0</text><g clip-path="url(#clip39)"><text fill="#231F20" font-family="Times New Roman,Times New Roman_MSFontService,sans-serif" font-weight="400" font-size="32" transform="matrix(1 0 0 1 1470.83 599)">82.1</text></g><text fill="#231F20" font-family="Times New Roman,Times New Roman_MSFontService,sans-serif" font-weight="400" font-size="32" transform="matrix(1 0 0 1 1561.92 599)">73.6</text><g clip-path="url(#clip40)"><text fill="#231F20" font-family="Times New Roman,Times New Roman_MSFontService,sans-serif" font-weight="400" font-size="32" transform="matrix(1 0 0 1 1653.02 599)">83.4</text></g><text fill="#231F20" font-family="Times New Roman,Times New Roman_MSFontService,sans-serif" font-weight="400" font-size="32" transform="matrix(1 0 0 1 1747.66 599)">84.2</text><text fill="#231F20" font-family="Times New Roman,Times New Roman_MSFontService,sans-serif" font-weight="400" font-size="32" transform="matrix(1 0 0 1 1852.28 599)">77.5</text><text fill="#231F20" font-family="Times New Roman,Times New Roman_MSFontService,sans-serif" font-weight="400" font-size="32" transform="matrix(1 0 0 1 1968.47 599)">72.0</text><text fill="#231F20" font-family="Times New Roman,Times New Roman_MSFontService,sans-serif" font-weight="400" font-size="32" transform="matrix(1 0 0 1 2074.91 599)">35.8</text><text fill="#231F20" font-family="Times New Roman,Times New Roman_MSFontService,sans-serif" font-weight="400" font-size="32" transform="matrix(1 0 0 1 2175.17 599)">71.9</text><g clip-path="url(#clip41)"><text fill="#231F20" font-family="Times New Roman,Times New Roman_MSFontService,sans-serif" font-weight="400" font-size="32" transform="matrix(1 0 0 1 2271.54 599)">74.7</text></g><g clip-path="url(#clip42)"><text fill="#231F20" font-family="Times New Roman,Times New Roman_MSFontService,sans-serif" font-weight="400" font-size="32" transform="matrix(1 0 0 1 2360.8 599)">85.8</text></g><g clip-path="url(#clip43)"><text fill="#231F20" font-family="Times New Roman,Times New Roman_MSFontService,sans-serif" font-weight="400" font-size="32" transform="matrix(1 0 0 1 2451.66 599)">71.0</text></g></g></svg>