<svg width="2306" height="413" xmlns="http://www.w3.org/2000/svg" xmlns:xlink="http://www.w3.org/1999/xlink" xml:space="preserve" overflow="hidden"><defs><clipPath id="clip0"><rect x="220" y="2423" width="2306" height="413"/></clipPath><clipPath id="clip1"><rect x="220" y="2449" width="427" height="270"/></clipPath><clipPath id="clip2"><rect x="646" y="2449" width="98" height="270"/></clipPath><clipPath id="clip3"><rect x="743" y="2449" width="84" height="270"/></clipPath><clipPath id="clip4"><rect x="826" y="2449" width="85" height="270"/></clipPath><clipPath id="clip5"><rect x="910" y="2449" width="84" height="270"/></clipPath><clipPath id="clip6"><rect x="993" y="2449" width="84" height="270"/></clipPath><clipPath id="clip7"><rect x="1076" y="2449" width="101" height="270"/></clipPath><clipPath id="clip8"><rect x="1427" y="2449" width="92" height="270"/></clipPath><clipPath id="clip9"><rect x="1518" y="2449" width="84" height="270"/></clipPath><clipPath id="clip10"><rect x="1601" y="2449" width="91" height="270"/></clipPath><clipPath id="clip11"><rect x="1691" y="2449" width="84" height="270"/></clipPath><clipPath id="clip12"><rect x="1774" y="2449" width="98" height="270"/></clipPath><clipPath id="clip13"><rect x="1871" y="2449" width="107" height="270"/></clipPath><clipPath id="clip14"><rect x="1977" y="2449" width="114" height="270"/></clipPath><clipPath id="clip15"><rect x="2090" y="2449" width="92" height="270"/></clipPath><clipPath id="clip16"><rect x="2181" y="2449" width="101" height="270"/></clipPath><clipPath id="clip17"><rect x="2281" y="2449" width="84" height="270"/></clipPath><clipPath id="clip18"><rect x="2364" y="2449" width="87" height="270"/></clipPath><clipPath id="clip19"><rect x="220" y="2534" width="427" height="258"/></clipPath><clipPath id="clip20"><rect x="743" y="2534" width="84" height="258"/></clipPath><clipPath id="clip21"><rect x="826" y="2534" width="85" height="258"/></clipPath><clipPath id="clip22"><rect x="910" y="2534" width="84" height="258"/></clipPath><clipPath id="clip23"><rect x="993" y="2534" width="84" height="258"/></clipPath><clipPath id="clip24"><rect x="1176" y="2534" width="85" height="258"/></clipPath><clipPath id="clip25"><rect x="1260" y="2534" width="84" height="258"/></clipPath><clipPath id="clip26"><rect x="1343" y="2534" width="85" height="258"/></clipPath><clipPath id="clip27"><rect x="1427" y="2534" width="92" height="258"/></clipPath><clipPath id="clip28"><rect x="1518" y="2534" width="84" height="258"/></clipPath><clipPath id="clip29"><rect x="1601" y="2534" width="91" height="258"/></clipPath><clipPath id="clip30"><rect x="1691" y="2534" width="84" height="258"/></clipPath><clipPath id="clip31"><rect x="2090" y="2534" width="92" height="258"/></clipPath><clipPath id="clip32"><rect x="2281" y="2534" width="84" height="258"/></clipPath><clipPath id="clip33"><rect x="2364" y="2534" width="87" height="258"/></clipPath><clipPath id="clip34"><rect x="2450" y="2534" width="74" height="258"/></clipPath><clipPath id="clip35"><rect x="220" y="2576" width="427" height="257"/></clipPath><clipPath id="clip36"><rect x="743" y="2576" width="84" height="257"/></clipPath><clipPath id="clip37"><rect x="826" y="2576" width="85" height="257"/></clipPath><clipPath id="clip38"><rect x="910" y="2576" width="84" height="257"/></clipPath><clipPath id="clip39"><rect x="993" y="2576" width="84" height="257"/></clipPath><clipPath id="clip40"><rect x="1176" y="2576" width="85" height="257"/></clipPath><clipPath id="clip41"><rect x="1260" y="2576" width="84" height="257"/></clipPath><clipPath id="clip42"><rect x="1343" y="2576" width="85" height="257"/></clipPath><clipPath id="clip43"><rect x="1427" y="2576" width="92" height="257"/></clipPath><clipPath id="clip44"><rect x="1518" y="2576" width="84" height="257"/></clipPath><clipPath id="clip45"><rect x="1601" y="2576" width="91" height="257"/></clipPath><clipPath id="clip46"><rect x="1691" y="2576" width="84" height="257"/></clipPath><clipPath id="clip47"><rect x="2090" y="2576" width="92" height="257"/></clipPath><clipPath id="clip48"><rect x="2281" y="2576" width="84" height="257"/></clipPath><clipPath id="clip49"><rect x="2364" y="2576" width="87" height="257"/></clipPath><clipPath id="clip50"><rect x="2450" y="2576" width="74" height="257"/></clipPath><clipPath id="clip51"><rect x="220" y="2617" width="427" height="257"/></clipPath><clipPath id="clip52"><rect x="743" y="2617" width="84" height="257"/></clipPath><clipPath id="clip53"><rect x="826" y="2617" width="85" height="257"/></clipPath><clipPath id="clip54"><rect x="910" y="2617" width="84" height="257"/></clipPath><clipPath id="clip55"><rect x="993" y="2617" width="84" height="257"/></clipPath><clipPath id="clip56"><rect x="1176" y="2617" width="85" height="257"/></clipPath><clipPath id="clip57"><rect x="1260" y="2617" width="84" height="257"/></clipPath><clipPath id="clip58"><rect x="1343" y="2617" width="85" height="257"/></clipPath><clipPath id="clip59"><rect x="1427" y="2617" width="92" height="257"/></clipPath><clipPath id="clip60"><rect x="1518" y="2617" width="84" height="257"/></clipPath><clipPath id="clip61"><rect x="1601" y="2617" width="91" height="257"/></clipPath><clipPath id="clip62"><rect x="1691" y="2617" width="84" height="257"/></clipPath><clipPath id="clip63"><rect x="2090" y="2617" width="92" height="257"/></clipPath><clipPath id="clip64"><rect x="2281" y="2617" width="84" height="257"/></clipPath><clipPath id="clip65"><rect x="2364" y="2617" width="87" height="257"/></clipPath><clipPath id="clip66"><rect x="2450" y="2617" width="74" height="257"/></clipPath><clipPath id="clip67"><rect x="220" y="2658" width="427" height="257"/></clipPath><clipPath id="clip68"><rect x="743" y="2658" width="84" height="257"/></clipPath><clipPath id="clip69"><rect x="826" y="2658" width="85" height="257"/></clipPath><clipPath id="clip70"><rect x="910" y="2658" width="84" height="257"/></clipPath><clipPath id="clip71"><rect x="993" y="2658" width="84" height="257"/></clipPath><clipPath id="clip72"><rect x="1176" y="2658" width="85" height="257"/></clipPath><clipPath id="clip73"><rect x="1260" y="2658" width="84" height="257"/></clipPath><clipPath id="clip74"><rect x="1343" y="2658" width="85" height="257"/></clipPath><clipPath id="clip75"><rect x="1427" y="2658" width="92" height="257"/></clipPath><clipPath id="clip76"><rect x="1518" y="2658" width="84" height="257"/></clipPath><clipPath id="clip77"><rect x="1601" y="2658" width="91" height="257"/></clipPath><clipPath id="clip78"><rect x="1691" y="2658" width="84" height="257"/></clipPath><clipPath id="clip79"><rect x="2090" y="2658" width="92" height="257"/></clipPath><clipPath id="clip80"><rect x="2281" y="2658" width="84" height="257"/></clipPath><clipPath id="clip81"><rect x="2364" y="2658" width="87" height="257"/></clipPath><clipPath id="clip82"><rect x="2450" y="2658" width="74" height="257"/></clipPath></defs><g clip-path="url(#clip0)" transform="translate(-220 -2423)"><path d="M220.44 2626.02 2523.33 2626.02" stroke="#000000" stroke-width="3.4375" stroke-linejoin="round" stroke-miterlimit="10" fill="none" fill-rule="evenodd"/><path d="M220.44 2539.4 2523.33 2539.4" stroke="#000000" stroke-width="3.4375" stroke-linejoin="round" stroke-miterlimit="10" fill="none" fill-rule="evenodd"/><path d="M220.44 2833.42 2523.33 2833.42" stroke="#000000" stroke-width="3.4375" stroke-linejoin="round" stroke-miterlimit="10" fill="none" fill-rule="evenodd"/><g clip-path="url(#clip1)"><text fill="#231F20" font-family="Times New Roman,Times New Roman_MSFontService,sans-serif" font-weight="700" font-size="32" transform="matrix(1 0 0 1 220.44 2596)">Multi</text></g><text fill="#231F20" font-family="Times New Roman,Times New Roman_MSFontService,sans-serif" font-weight="700" font-size="32" transform="matrix(1 0 0 1 295.492 2596)">-</text><text fill="#231F20" font-family="Times New Roman,Times New Roman_MSFontService,sans-serif" font-weight="700" font-size="32" transform="matrix(1 0 0 1 305.919 2596)">scale</text><text fill="#231F20" font-family="Times New Roman,Times New Roman_MSFontService,sans-serif" font-weight="700" font-size="32" transform="matrix(1 0 0 1 379.252 2596)">Settings</text><g clip-path="url(#clip2)"><text fill="#231F20" font-family="Times New Roman,Times New Roman_MSFontService,sans-serif" font-weight="700" font-size="32" transform="matrix(1 0 0 1 660.211 2596)">mAP</text></g><g clip-path="url(#clip3)"><text fill="#231F20" font-family="Times New Roman,Times New Roman_MSFontService,sans-serif" font-weight="400" font-size="32" transform="matrix(1 0 0 1 757.377 2596)">aero</text></g><g clip-path="url(#clip4)"><text fill="#231F20" font-family="Times New Roman,Times New Roman_MSFontService,sans-serif" font-weight="400" font-size="32" transform="matrix(1 0 0 1 842.34 2596)">bike</text></g><g clip-path="url(#clip5)"><text fill="#231F20" font-family="Times New Roman,Times New Roman_MSFontService,sans-serif" font-weight="400" font-size="32" transform="matrix(1 0 0 1 925.814 2596)">bird</text></g><g clip-path="url(#clip6)"><text fill="#231F20" font-family="Times New Roman,Times New Roman_MSFontService,sans-serif" font-weight="400" font-size="32" transform="matrix(1 0 0 1 1009.17 2596)">boat</text></g><g clip-path="url(#clip7)"><text fill="#231F20" font-family="Times New Roman,Times New Roman_MSFontService,sans-serif" font-weight="400" font-size="32" transform="matrix(1 0 0 1 1090.36 2596)">bottle</text></g><text fill="#231F20" font-family="Times New Roman,Times New Roman_MSFontService,sans-serif" font-weight="400" font-size="32" transform="matrix(1 0 0 1 1198.06 2596)">bus</text><text fill="#231F20" font-family="Times New Roman,Times New Roman_MSFontService,sans-serif" font-weight="400" font-size="32" transform="matrix(1 0 0 1 1282.63 2596)">car</text><text fill="#231F20" font-family="Times New Roman,Times New Roman_MSFontService,sans-serif" font-weight="400" font-size="32" transform="matrix(1 0 0 1 1368.33 2596)">cat</text><g clip-path="url(#clip8)"><text fill="#231F20" font-family="Times New Roman,Times New Roman_MSFontService,sans-serif" font-weight="400" font-size="32" transform="matrix(1 0 0 1 1441.61 2596)">chair</text></g><g clip-path="url(#clip9)"><text fill="#231F20" font-family="Times New Roman,Times New Roman_MSFontService,sans-serif" font-weight="400" font-size="32" transform="matrix(1 0 0 1 1539.06 2596)">cow</text></g><g clip-path="url(#clip10)"><text fill="#231F20" font-family="Times New Roman,Times New Roman_MSFontService,sans-serif" font-weight="400" font-size="32" transform="matrix(1 0 0 1 1616.18 2596)">table</text></g><g clip-path="url(#clip11)"><text fill="#231F20" font-family="Times New Roman,Times New Roman_MSFontService,sans-serif" font-weight="400" font-size="32" transform="matrix(1 0 0 1 1710.59 2596)">dog</text></g><g clip-path="url(#clip12)"><text fill="#231F20" font-family="Times New Roman,Times New Roman_MSFontService,sans-serif" font-weight="400" font-size="32" transform="matrix(1 0 0 1 1789.08 2596)">horse</text></g><g clip-path="url(#clip13)"><text fill="#231F20" font-family="Times New Roman,Times New Roman_MSFontService,sans-serif" font-weight="400" font-size="32" transform="matrix(1 0 0 1 1885.27 2596)">mbike</text></g><g clip-path="url(#clip14)"><text fill="#231F20" font-family="Times New Roman,Times New Roman_MSFontService,sans-serif" font-weight="400" font-size="32" transform="matrix(1 0 0 1 1992.58 2596)">person</text></g><g clip-path="url(#clip15)"><text fill="#231F20" font-family="Times New Roman,Times New Roman_MSFontService,sans-serif" font-weight="400" font-size="32" transform="matrix(1 0 0 1 2104.82 2596)">plant</text></g><g clip-path="url(#clip16)"><text fill="#231F20" font-family="Times New Roman,Times New Roman_MSFontService,sans-serif" font-weight="400" font-size="32" transform="matrix(1 0 0 1 2195.39 2596)">sheep</text></g><g clip-path="url(#clip17)"><text fill="#231F20" font-family="Times New Roman,Times New Roman_MSFontService,sans-serif" font-weight="400" font-size="32" transform="matrix(1 0 0 1 2296.69 2596)">sofa</text></g><g clip-path="url(#clip18)"><text fill="#231F20" font-family="Times New Roman,Times New Roman_MSFontService,sans-serif" font-weight="400" font-size="32" transform="matrix(1 0 0 1 2378.96 2596)">train</text></g><text fill="#231F20" font-family="Times New Roman,Times New Roman_MSFontService,sans-serif" font-weight="400" font-size="32" transform="matrix(1 0 0 1 2479.56 2596)">tv</text><g clip-path="url(#clip19)"><text fill="#231F20" font-family="Times New Roman,Times New Roman_MSFontService,sans-serif" font-weight="400" font-size="32" transform="matrix(1 0 0 1 220.44 2673)">AC</text></g><text fill="#231F20" font-family="Times New Roman,Times New Roman_MSFontService,sans-serif" font-weight="400" font-size="32" transform="matrix(1 0 0 1 262.263 2673)">-</text><text fill="#231F20" font-family="Times New Roman,Times New Roman_MSFontService,sans-serif" font-weight="400" font-size="32" transform="matrix(1 0 0 1 272.002 2673)">CNN</text><text fill="#231F20" font-family="Times New Roman,Times New Roman_MSFontService,sans-serif" font-weight="400" font-size="32" transform="matrix(1 0 0 1 346.596 2673)">(0.8</text><text fill="#231F20" font-family="Times New Roman,Times New Roman_MSFontService,sans-serif" font-weight="400" font-size="32" transform="matrix(1 0 0 1 404.919 2673)">+</text><text fill="#231F20" font-family="Times New Roman,Times New Roman_MSFontService,sans-serif" font-weight="400" font-size="32" transform="matrix(1 0 0 1 430.586 2673)">1.2)</text><text fill="#231F20" font-family="Times New Roman,Times New Roman_MSFontService,sans-serif" font-weight="400" font-size="32" transform="matrix(1 0 0 1 666.627 2673)">72.0</text><g clip-path="url(#clip20)"><text fill="#231F20" font-family="Times New Roman,Times New Roman_MSFontService,sans-serif" font-weight="400" font-size="32" transform="matrix(1 0 0 1 756.69 2673)">79.5</text></g><g clip-path="url(#clip21)"><text fill="#231F20" font-family="Times New Roman,Times New Roman_MSFontService,sans-serif" font-weight="400" font-size="32" transform="matrix(1 0 0 1 842.054 2673)">78.9</text></g><g clip-path="url(#clip22)"><text fill="#231F20" font-family="Times New Roman,Times New Roman_MSFontService,sans-serif" font-weight="400" font-size="32" transform="matrix(1 0 0 1 923.522 2673)">74.8</text></g><g clip-path="url(#clip23)"><text fill="#231F20" font-family="Times New Roman,Times New Roman_MSFontService,sans-serif" font-weight="400" font-size="32" transform="matrix(1 0 0 1 1008.89 2673)">60.9</text></g><text fill="#231F20" font-family="Times New Roman,Times New Roman_MSFontService,sans-serif" font-weight="400" font-size="32" transform="matrix(1 0 0 1 1098.83 2673)">42.8</text><g clip-path="url(#clip24)"><text fill="#231F20" font-family="Times New Roman,Times New Roman_MSFontService,sans-serif" font-weight="400" font-size="32" transform="matrix(1 0 0 1 1192.45 2673)">83.3</text></g><g clip-path="url(#clip25)"><text fill="#231F20" font-family="Times New Roman,Times New Roman_MSFontService,sans-serif" font-weight="400" font-size="32" transform="matrix(1 0 0 1 1273.92 2673)">81.4</text></g><g clip-path="url(#clip26)"><text fill="#231F20" font-family="Times New Roman,Times New Roman_MSFontService,sans-serif" font-weight="400" font-size="32" transform="matrix(1 0 0 1 1359.28 2673)">86.3</text></g><g clip-path="url(#clip27)"><text fill="#231F20" font-family="Times New Roman,Times New Roman_MSFontService,sans-serif" font-weight="400" font-size="32" transform="matrix(1 0 0 1 1446.59 2673)">48.5</text></g><g clip-path="url(#clip28)"><text fill="#231F20" font-family="Times New Roman,Times New Roman_MSFontService,sans-serif" font-weight="400" font-size="32" transform="matrix(1 0 0 1 1538.03 2673)">82.2</text></g><g clip-path="url(#clip29)"><text fill="#231F20" font-family="Times New Roman,Times New Roman_MSFontService,sans-serif" font-weight="400" font-size="32" transform="matrix(1 0 0 1 1620.3 2673)">71.4</text></g><g clip-path="url(#clip30)"><text fill="#231F20" font-family="Times New Roman,Times New Roman_MSFontService,sans-serif" font-weight="400" font-size="32" transform="matrix(1 0 0 1 1706.7 2673)">83.2</text></g><text fill="#231F20" font-family="Times New Roman,Times New Roman_MSFontService,sans-serif" font-weight="400" font-size="32" transform="matrix(1 0 0 1 1796.64 2673)">85.5</text><text fill="#231F20" font-family="Times New Roman,Times New Roman_MSFontService,sans-serif" font-weight="400" font-size="32" transform="matrix(1 0 0 1 1898.28 2673)">75.5</text><text fill="#231F20" font-family="Times New Roman,Times New Roman_MSFontService,sans-serif" font-weight="400" font-size="32" transform="matrix(1 0 0 1 2007.94 2673)">71.2</text><g clip-path="url(#clip31)"><text fill="#231F20" font-family="Times New Roman,Times New Roman_MSFontService,sans-serif" font-weight="400" font-size="32" transform="matrix(1 0 0 1 2109.8 2673)">36.1</text></g><text fill="#231F20" font-family="Times New Roman,Times New Roman_MSFontService,sans-serif" font-weight="400" font-size="32" transform="matrix(1 0 0 1 2203.64 2673)">71.3</text><g clip-path="url(#clip32)"><text fill="#231F20" font-family="Times New Roman,Times New Roman_MSFontService,sans-serif" font-weight="400" font-size="32" transform="matrix(1 0 0 1 2295.08 2673)">73.3</text></g><g clip-path="url(#clip33)"><text fill="#231F20" font-family="Times New Roman,Times New Roman_MSFontService,sans-serif" font-weight="400" font-size="32" transform="matrix(1 0 0 1 2381.36 2673)">83.5</text></g><g clip-path="url(#clip34)"><text fill="#231F20" font-family="Times New Roman,Times New Roman_MSFontService,sans-serif" font-weight="400" font-size="32" transform="matrix(1 0 0 1 2463.98 2673)">70.8</text></g><g clip-path="url(#clip35)"><text fill="#231F20" font-family="Times New Roman,Times New Roman_MSFontService,sans-serif" font-weight="400" font-size="32" transform="matrix(1 0 0 1 220.44 2715)">AC</text></g><text fill="#231F20" font-family="Times New Roman,Times New Roman_MSFontService,sans-serif" font-weight="400" font-size="32" transform="matrix(1 0 0 1 262.263 2715)">-</text><text fill="#231F20" font-family="Times New Roman,Times New Roman_MSFontService,sans-serif" font-weight="400" font-size="32" transform="matrix(1 0 0 1 272.002 2715)">CNN</text><text fill="#231F20" font-family="Times New Roman,Times New Roman_MSFontService,sans-serif" font-weight="400" font-size="32" transform="matrix(1 0 0 1 346.596 2715)">(1.2</text><text fill="#231F20" font-family="Times New Roman,Times New Roman_MSFontService,sans-serif" font-weight="400" font-size="32" transform="matrix(1 0 0 1 404.919 2715)">+</text><text fill="#231F20" font-family="Times New Roman,Times New Roman_MSFontService,sans-serif" font-weight="400" font-size="32" transform="matrix(1 0 0 1 430.586 2715)">1.8)</text><text fill="#231F20" font-family="Times New Roman,Times New Roman_MSFontService,sans-serif" font-weight="400" font-size="32" transform="matrix(1 0 0 1 666.627 2715)">71.8</text><g clip-path="url(#clip36)"><text fill="#231F20" font-family="Times New Roman,Times New Roman_MSFontService,sans-serif" font-weight="400" font-size="32" transform="matrix(1 0 0 1 756.69 2715)">78.8</text></g><g clip-path="url(#clip37)"><text fill="#231F20" font-family="Times New Roman,Times New Roman_MSFontService,sans-serif" font-weight="400" font-size="32" transform="matrix(1 0 0 1 842.054 2715)">81.3</text></g><g clip-path="url(#clip38)"><text fill="#231F20" font-family="Times New Roman,Times New Roman_MSFontService,sans-serif" font-weight="400" font-size="32" transform="matrix(1 0 0 1 923.522 2715)">71.9</text></g><g clip-path="url(#clip39)"><text fill="#231F20" font-family="Times New Roman,Times New Roman_MSFontService,sans-serif" font-weight="400" font-size="32" transform="matrix(1 0 0 1 1008.89 2715)">61.2</text></g><text fill="#231F20" font-family="Times New Roman,Times New Roman_MSFontService,sans-serif" font-weight="400" font-size="32" transform="matrix(1 0 0 1 1098.83 2715)">40.9</text><g clip-path="url(#clip40)"><text fill="#231F20" font-family="Times New Roman,Times New Roman_MSFontService,sans-serif" font-weight="400" font-size="32" transform="matrix(1 0 0 1 1192.45 2715)">82.9</text></g><g clip-path="url(#clip41)"><text fill="#231F20" font-family="Times New Roman,Times New Roman_MSFontService,sans-serif" font-weight="400" font-size="32" transform="matrix(1 0 0 1 1273.92 2715)">81.2</text></g><g clip-path="url(#clip42)"><text fill="#231F20" font-family="Times New Roman,Times New Roman_MSFontService,sans-serif" font-weight="400" font-size="32" transform="matrix(1 0 0 1 1359.28 2715)">85.3</text></g><g clip-path="url(#clip43)"><text fill="#231F20" font-family="Times New Roman,Times New Roman_MSFontService,sans-serif" font-weight="400" font-size="32" transform="matrix(1 0 0 1 1446.59 2715)">47.9</text></g><g clip-path="url(#clip44)"><text fill="#231F20" font-family="Times New Roman,Times New Roman_MSFontService,sans-serif" font-weight="400" font-size="32" transform="matrix(1 0 0 1 1538.03 2715)">78.9</text></g><g clip-path="url(#clip45)"><text fill="#231F20" font-family="Times New Roman,Times New Roman_MSFontService,sans-serif" font-weight="400" font-size="32" transform="matrix(1 0 0 1 1620.3 2715)">71.2</text></g><g clip-path="url(#clip46)"><text fill="#231F20" font-family="Times New Roman,Times New Roman_MSFontService,sans-serif" font-weight="400" font-size="32" transform="matrix(1 0 0 1 1706.7 2715)">83.4</text></g><text fill="#231F20" font-family="Times New Roman,Times New Roman_MSFontService,sans-serif" font-weight="400" font-size="32" transform="matrix(1 0 0 1 1796.64 2715)">85.4</text><text fill="#231F20" font-family="Times New Roman,Times New Roman_MSFontService,sans-serif" font-weight="400" font-size="32" transform="matrix(1 0 0 1 1898.28 2715)">77.8</text><text fill="#231F20" font-family="Times New Roman,Times New Roman_MSFontService,sans-serif" font-weight="400" font-size="32" transform="matrix(1 0 0 1 2007.94 2715)">71.0</text><g clip-path="url(#clip47)"><text fill="#231F20" font-family="Times New Roman,Times New Roman_MSFontService,sans-serif" font-weight="400" font-size="32" transform="matrix(1 0 0 1 2109.8 2715)">33.4</text></g><text fill="#231F20" font-family="Times New Roman,Times New Roman_MSFontService,sans-serif" font-weight="400" font-size="32" transform="matrix(1 0 0 1 2203.64 2715)">72.9</text><g clip-path="url(#clip48)"><text fill="#231F20" font-family="Times New Roman,Times New Roman_MSFontService,sans-serif" font-weight="400" font-size="32" transform="matrix(1 0 0 1 2295.08 2715)">73.4</text></g><g clip-path="url(#clip49)"><text fill="#231F20" font-family="Times New Roman,Times New Roman_MSFontService,sans-serif" font-weight="400" font-size="32" transform="matrix(1 0 0 1 2381.36 2715)">84.7</text></g><g clip-path="url(#clip50)"><text fill="#231F20" font-family="Times New Roman,Times New Roman_MSFontService,sans-serif" font-weight="400" font-size="32" transform="matrix(1 0 0 1 2463.98 2715)">72.2</text></g><g clip-path="url(#clip51)"><text fill="#231F20" font-family="Times New Roman,Times New Roman_MSFontService,sans-serif" font-weight="400" font-size="32" transform="matrix(1 0 0 1 220.44 2756)">AC</text></g><text fill="#231F20" font-family="Times New Roman,Times New Roman_MSFontService,sans-serif" font-weight="400" font-size="32" transform="matrix(1 0 0 1 262.263 2756)">-</text><text fill="#231F20" font-family="Times New Roman,Times New Roman_MSFontService,sans-serif" font-weight="400" font-size="32" transform="matrix(1 0 0 1 272.002 2756)">CNN</text><text fill="#231F20" font-family="Times New Roman,Times New Roman_MSFontService,sans-serif" font-weight="400" font-size="32" transform="matrix(1 0 0 1 346.367 2756)">(0.8</text><text fill="#231F20" font-family="Times New Roman,Times New Roman_MSFontService,sans-serif" font-weight="400" font-size="32" transform="matrix(1 0 0 1 404.919 2756)">+</text><text fill="#231F20" font-family="Times New Roman,Times New Roman_MSFontService,sans-serif" font-weight="400" font-size="32" transform="matrix(1 0 0 1 430.586 2756)">1.2</text><text fill="#231F20" font-family="Times New Roman,Times New Roman_MSFontService,sans-serif" font-weight="400" font-size="32" transform="matrix(1 0 0 1 478.023 2756)">+</text><text fill="#231F20" font-family="Times New Roman,Times New Roman_MSFontService,sans-serif" font-weight="400" font-size="32" transform="matrix(1 0 0 1 503.69 2756)">1.8)</text><text fill="#231F20" font-family="Times New Roman,Times New Roman_MSFontService,sans-serif" font-weight="400" font-size="32" transform="matrix(1 0 0 1 666.627 2756)">72.4</text><g clip-path="url(#clip52)"><text fill="#231F20" font-family="Times New Roman,Times New Roman_MSFontService,sans-serif" font-weight="400" font-size="32" transform="matrix(1 0 0 1 756.69 2756)">79.1</text></g><g clip-path="url(#clip53)"><text fill="#231F20" font-family="Times New Roman,Times New Roman_MSFontService,sans-serif" font-weight="400" font-size="32" transform="matrix(1 0 0 1 842.054 2756)">79.2</text></g><g clip-path="url(#clip54)"><text fill="#231F20" font-family="Times New Roman,Times New Roman_MSFontService,sans-serif" font-weight="400" font-size="32" transform="matrix(1 0 0 1 923.522 2756)">71.9</text></g><g clip-path="url(#clip55)"><text fill="#231F20" font-family="Times New Roman,Times New Roman_MSFontService,sans-serif" font-weight="400" font-size="32" transform="matrix(1 0 0 1 1008.89 2756)">61.0</text></g><text fill="#231F20" font-family="Times New Roman,Times New Roman_MSFontService,sans-serif" font-weight="400" font-size="32" transform="matrix(1 0 0 1 1098.83 2756)">43.2</text><g clip-path="url(#clip56)"><text fill="#231F20" font-family="Times New Roman,Times New Roman_MSFontService,sans-serif" font-weight="400" font-size="32" transform="matrix(1 0 0 1 1192.45 2756)">83.0</text></g><g clip-path="url(#clip57)"><text fill="#231F20" font-family="Times New Roman,Times New Roman_MSFontService,sans-serif" font-weight="400" font-size="32" transform="matrix(1 0 0 1 1273.92 2756)">81.4</text></g><g clip-path="url(#clip58)"><text fill="#231F20" font-family="Times New Roman,Times New Roman_MSFontService,sans-serif" font-weight="400" font-size="32" transform="matrix(1 0 0 1 1359.28 2756)">87.7</text></g><g clip-path="url(#clip59)"><text fill="#231F20" font-family="Times New Roman,Times New Roman_MSFontService,sans-serif" font-weight="400" font-size="32" transform="matrix(1 0 0 1 1446.59 2756)">50.0</text></g><g clip-path="url(#clip60)"><text fill="#231F20" font-family="Times New Roman,Times New Roman_MSFontService,sans-serif" font-weight="400" font-size="32" transform="matrix(1 0 0 1 1538.03 2756)">82.1</text></g><g clip-path="url(#clip61)"><text fill="#231F20" font-family="Times New Roman,Times New Roman_MSFontService,sans-serif" font-weight="400" font-size="32" transform="matrix(1 0 0 1 1620.3 2756)">73.6</text></g><g clip-path="url(#clip62)"><text fill="#231F20" font-family="Times New Roman,Times New Roman_MSFontService,sans-serif" font-weight="400" font-size="32" transform="matrix(1 0 0 1 1706.7 2756)">83.4</text></g><text fill="#231F20" font-family="Times New Roman,Times New Roman_MSFontService,sans-serif" font-weight="400" font-size="32" transform="matrix(1 0 0 1 1796.64 2756)">84.2</text><text fill="#231F20" font-family="Times New Roman,Times New Roman_MSFontService,sans-serif" font-weight="400" font-size="32" transform="matrix(1 0 0 1 1898.28 2756)">77.5</text><text fill="#231F20" font-family="Times New Roman,Times New Roman_MSFontService,sans-serif" font-weight="400" font-size="32" transform="matrix(1 0 0 1 2007.94 2756)">72.0</text><g clip-path="url(#clip63)"><text fill="#231F20" font-family="Times New Roman,Times New Roman_MSFontService,sans-serif" font-weight="400" font-size="32" transform="matrix(1 0 0 1 2109.8 2756)">35.8</text></g><text fill="#231F20" font-family="Times New Roman,Times New Roman_MSFontService,sans-serif" font-weight="400" font-size="32" transform="matrix(1 0 0 1 2203.64 2756)">71.9</text><g clip-path="url(#clip64)"><text fill="#231F20" font-family="Times New Roman,Times New Roman_MSFontService,sans-serif" font-weight="400" font-size="32" transform="matrix(1 0 0 1 2295.08 2756)">74.7</text></g><g clip-path="url(#clip65)"><text fill="#231F20" font-family="Times New Roman,Times New Roman_MSFontService,sans-serif" font-weight="400" font-size="32" transform="matrix(1 0 0 1 2381.36 2756)">85.8</text></g><g clip-path="url(#clip66)"><text fill="#231F20" font-family="Times New Roman,Times New Roman_MSFontService,sans-serif" font-weight="400" font-size="32" transform="matrix(1 0 0 1 2463.98 2756)">71.0</text></g><g clip-path="url(#clip67)"><text fill="#231F20" font-family="Times New Roman,Times New Roman_MSFontService,sans-serif" font-weight="400" font-size="32" transform="matrix(1 0 0 1 220.44 2797)">AC</text></g><text fill="#231F20" font-family="Times New Roman,Times New Roman_MSFontService,sans-serif" font-weight="400" font-size="32" transform="matrix(1 0 0 1 262.263 2797)">-</text><text fill="#231F20" font-family="Times New Roman,Times New Roman_MSFontService,sans-serif" font-weight="400" font-size="32" transform="matrix(1 0 0 1 272.002 2797)">CNN</text><text fill="#231F20" font-family="Times New Roman,Times New Roman_MSFontService,sans-serif" font-weight="400" font-size="32" transform="matrix(1 0 0 1 346.367 2797)">(0.8</text><text fill="#231F20" font-family="Times New Roman,Times New Roman_MSFontService,sans-serif" font-weight="400" font-size="32" transform="matrix(1 0 0 1 404.69 2797)">+</text><text fill="#231F20" font-family="Times New Roman,Times New Roman_MSFontService,sans-serif" font-weight="400" font-size="32" transform="matrix(1 0 0 1 430.357 2797)">1.2</text><text fill="#231F20" font-family="Times New Roman,Times New Roman_MSFontService,sans-serif" font-weight="400" font-size="32" transform="matrix(1 0 0 1 477.794 2797)">+</text><text fill="#231F20" font-family="Times New Roman,Times New Roman_MSFontService,sans-serif" font-weight="400" font-size="32" transform="matrix(1 0 0 1 503.461 2797)">1.8</text><text fill="#231F20" font-family="Times New Roman,Times New Roman_MSFontService,sans-serif" font-weight="400" font-size="32" transform="matrix(1 0 0 1 550.898 2797)">+</text><text fill="#231F20" font-family="Times New Roman,Times New Roman_MSFontService,sans-serif" font-weight="400" font-size="32" transform="matrix(1 0 0 1 576.565 2797)">2.7)</text><text fill="#231F20" font-family="Times New Roman,Times New Roman_MSFontService,sans-serif" font-weight="400" font-size="32" transform="matrix(1 0 0 1 666.627 2797)">72.3</text><g clip-path="url(#clip68)"><text fill="#231F20" font-family="Times New Roman,Times New Roman_MSFontService,sans-serif" font-weight="400" font-size="32" transform="matrix(1 0 0 1 756.69 2797)">78.5</text></g><g clip-path="url(#clip69)"><text fill="#231F20" font-family="Times New Roman,Times New Roman_MSFontService,sans-serif" font-weight="400" font-size="32" transform="matrix(1 0 0 1 842.054 2797)">80.1</text></g><g clip-path="url(#clip70)"><text fill="#231F20" font-family="Times New Roman,Times New Roman_MSFontService,sans-serif" font-weight="400" font-size="32" transform="matrix(1 0 0 1 923.752 2797)">72.9</text></g><g clip-path="url(#clip71)"><text fill="#231F20" font-family="Times New Roman,Times New Roman_MSFontService,sans-serif" font-weight="400" font-size="32" transform="matrix(1 0 0 1 1008.89 2797)">61.8</text></g><text fill="#231F20" font-family="Times New Roman,Times New Roman_MSFontService,sans-serif" font-weight="400" font-size="32" transform="matrix(1 0 0 1 1098.83 2797)">41.9</text><g clip-path="url(#clip72)"><text fill="#231F20" font-family="Times New Roman,Times New Roman_MSFontService,sans-serif" font-weight="400" font-size="32" transform="matrix(1 0 0 1 1192.45 2797)">83.6</text></g><g clip-path="url(#clip73)"><text fill="#231F20" font-family="Times New Roman,Times New Roman_MSFontService,sans-serif" font-weight="400" font-size="32" transform="matrix(1 0 0 1 1274.15 2797)">81.6</text></g><g clip-path="url(#clip74)"><text fill="#231F20" font-family="Times New Roman,Times New Roman_MSFontService,sans-serif" font-weight="400" font-size="32" transform="matrix(1 0 0 1 1359.28 2797)">86.8</text></g><g clip-path="url(#clip75)"><text fill="#231F20" font-family="Times New Roman,Times New Roman_MSFontService,sans-serif" font-weight="400" font-size="32" transform="matrix(1 0 0 1 1446.59 2797)">47.7</text></g><g clip-path="url(#clip76)"><text fill="#231F20" font-family="Times New Roman,Times New Roman_MSFontService,sans-serif" font-weight="400" font-size="32" transform="matrix(1 0 0 1 1538.26 2797)">84.6</text></g><g clip-path="url(#clip77)"><text fill="#231F20" font-family="Times New Roman,Times New Roman_MSFontService,sans-serif" font-weight="400" font-size="32" transform="matrix(1 0 0 1 1620.3 2797)">70.2</text></g><g clip-path="url(#clip78)"><text fill="#231F20" font-family="Times New Roman,Times New Roman_MSFontService,sans-serif" font-weight="400" font-size="32" transform="matrix(1 0 0 1 1706.7 2797)">85.8</text></g><text fill="#231F20" font-family="Times New Roman,Times New Roman_MSFontService,sans-serif" font-weight="400" font-size="32" transform="matrix(1 0 0 1 1796.64 2797)">85.2</text><text fill="#231F20" font-family="Times New Roman,Times New Roman_MSFontService,sans-serif" font-weight="400" font-size="32" transform="matrix(1 0 0 1 1898.39 2797)">77.2</text><text fill="#231F20" font-family="Times New Roman,Times New Roman_MSFontService,sans-serif" font-weight="400" font-size="32" transform="matrix(1 0 0 1 2008.05 2797)">71.9</text><g clip-path="url(#clip79)"><text fill="#231F20" font-family="Times New Roman,Times New Roman_MSFontService,sans-serif" font-weight="400" font-size="32" transform="matrix(1 0 0 1 2109.92 2797)">34.8</text></g><text fill="#231F20" font-family="Times New Roman,Times New Roman_MSFontService,sans-serif" font-weight="400" font-size="32" transform="matrix(1 0 0 1 2203.87 2797)">73.7</text><g clip-path="url(#clip80)"><text fill="#231F20" font-family="Times New Roman,Times New Roman_MSFontService,sans-serif" font-weight="400" font-size="32" transform="matrix(1 0 0 1 2295.31 2797)">73.8</text></g><g clip-path="url(#clip81)"><text fill="#231F20" font-family="Times New Roman,Times New Roman_MSFontService,sans-serif" font-weight="400" font-size="32" transform="matrix(1 0 0 1 2381.36 2797)">83.4</text></g><g clip-path="url(#clip82)"><text fill="#231F20" font-family="Times New Roman,Times New Roman_MSFontService,sans-serif" font-weight="400" font-size="32" transform="matrix(1 0 0 1 2464.21 2797)">70.1</text></g><text fill="#231F20" font-family="Times New Roman,Times New Roman_MSFontService,sans-serif" font-weight="400" font-size="37" transform="matrix(1 0 0 1 1309.62 2472)">TABLE </text><text fill="#231F20" font-family="Times New Roman,Times New Roman_MSFontService,sans-serif" font-weight="400" font-size="37" transform="matrix(1 0 0 1 1431.3 2472)">VII</text><text fill="#231F20" font-family="Times New Roman,Times New Roman_MSFontService,sans-serif" font-weight="400" font-size="37" transform="matrix(1 0 0 1 494.814 2513)">C</text><text fill="#231F20" font-family="Times New Roman,Times New Roman_MSFontService,sans-serif" font-weight="400" font-size="29" transform="matrix(1 0 0 1 519.221 2513)">OM</text><text fill="#231F20" font-family="Times New Roman,Times New Roman_MSFontService,sans-serif" font-weight="400" font-size="29" transform="matrix(1 0 0 1 565.673 2513)">P</text><text fill="#231F20" font-family="Times New Roman,Times New Roman_MSFontService,sans-serif" font-weight="400" font-size="29" transform="matrix(1 0 0 1 579.148 2513)">ARISON</text><text fill="#231F20" font-family="Times New Roman,Times New Roman_MSFontService,sans-serif" font-weight="400" font-size="29" transform="matrix(1 0 0 1 696.344 2513)">OF</text><text fill="#231F20" font-family="Times New Roman,Times New Roman_MSFontService,sans-serif" font-weight="400" font-size="37" transform="matrix(1 0 0 1 743.392 2513)">D</text><text fill="#231F20" font-family="Times New Roman,Times New Roman_MSFontService,sans-serif" font-weight="400" font-size="29" transform="matrix(1 0 0 1 769.287 2513)">IFFERENT</text><text fill="#231F20" font-family="Times New Roman,Times New Roman_MSFontService,sans-serif" font-weight="400" font-size="37" transform="matrix(1 0 0 1 912.677 2513)">M</text><text fill="#231F20" font-family="Times New Roman,Times New Roman_MSFontService,sans-serif" font-weight="400" font-size="29" transform="matrix(1 0 0 1 944.875 2513)">U</text><text fill="#231F20" font-family="Times New Roman,Times New Roman_MSFontService,sans-serif" font-weight="400" font-size="29" transform="matrix(1 0 0 1 965.706 2513)">L</text><text fill="#231F20" font-family="Times New Roman,Times New Roman_MSFontService,sans-serif" font-weight="400" font-size="29" transform="matrix(1 0 0 1 980.9 2513)">TISCALE</text><text fill="#231F20" font-family="Times New Roman,Times New Roman_MSFontService,sans-serif" font-weight="400" font-size="37" transform="matrix(1 0 0 1 1108.61 2513)">S</text><text fill="#231F20" font-family="Times New Roman,Times New Roman_MSFontService,sans-serif" font-weight="400" font-size="29" transform="matrix(1 0 0 1 1128.78 2513)">ETTINGS</text><text fill="#231F20" font-family="Times New Roman,Times New Roman_MSFontService,sans-serif" font-weight="400" font-size="37" transform="matrix(1 0 0 1 1258.21 2513)">U</text><text fill="#231F20" font-family="Times New Roman,Times New Roman_MSFontService,sans-serif" font-weight="400" font-size="29" transform="matrix(1 0 0 1 1284.11 2513)">TILIZED</text><text fill="#231F20" font-family="Times New Roman,Times New Roman_MSFontService,sans-serif" font-weight="400" font-size="29" transform="matrix(1 0 0 1 1403.8 2513)">IN</text><text fill="#231F20" font-family="Times New Roman,Times New Roman_MSFontService,sans-serif" font-weight="400" font-size="29" transform="matrix(1 0 0 1 1444.55 2513)">THE</text><text fill="#231F20" font-family="Times New Roman,Times New Roman_MSFontService,sans-serif" font-weight="400" font-size="37" transform="matrix(1 0 0 1 1510.71 2513)">M</text><text fill="#231F20" font-family="Times New Roman,Times New Roman_MSFontService,sans-serif" font-weight="400" font-size="29" transform="matrix(1 0 0 1 1542.91 2513)">U</text><text fill="#231F20" font-family="Times New Roman,Times New Roman_MSFontService,sans-serif" font-weight="400" font-size="29" transform="matrix(1 0 0 1 1563.74 2513)">L</text><text fill="#231F20" font-family="Times New Roman,Times New Roman_MSFontService,sans-serif" font-weight="400" font-size="29" transform="matrix(1 0 0 1 1578.93 2513)">TISCALE</text><text fill="#231F20" font-family="Times New Roman,Times New Roman_MSFontService,sans-serif" font-weight="400" font-size="37" transform="matrix(1 0 0 1 1706.65 2513)">L</text><text fill="#231F20" font-family="Times New Roman,Times New Roman_MSFontService,sans-serif" font-weight="400" font-size="29" transform="matrix(1 0 0 1 1728.53 2513)">OCAL</text><text fill="#231F20" font-family="Times New Roman,Times New Roman_MSFontService,sans-serif" font-weight="400" font-size="37" transform="matrix(1 0 0 1 1817.24 2513)">C</text><text fill="#231F20" font-family="Times New Roman,Times New Roman_MSFontService,sans-serif" font-weight="400" font-size="29" transform="matrix(1 0 0 1 1841.65 2513)">ONTEXT</text><text fill="#231F20" font-family="Times New Roman,Times New Roman_MSFontService,sans-serif" font-weight="400" font-size="29" transform="matrix(1 0 0 1 1956.32 2513)">U</text><text fill="#231F20" font-family="Times New Roman,Times New Roman_MSFontService,sans-serif" font-weight="400" font-size="29" transform="matrix(1 0 0 1 1976.24 2513)">ALIZED</text><text fill="#231F20" font-family="Times New Roman,Times New Roman_MSFontService,sans-serif" font-weight="400" font-size="37" transform="matrix(1 0 0 1 2090 2513)">S</text><text fill="#231F20" font-family="Times New Roman,Times New Roman_MSFontService,sans-serif" font-weight="400" font-size="29" transform="matrix(1 0 0 1 2110.16 2513)">UBNET</text><text fill="#231F20" font-family="Times New Roman,Times New Roman_MSFontService,sans-serif" font-weight="400" font-size="29" transform="matrix(1 0 0 1 2205.73 2513)">W</text><text fill="#231F20" font-family="Times New Roman,Times New Roman_MSFontService,sans-serif" font-weight="400" font-size="29" transform="matrix(1 0 0 1 2232.31 2513)">ORK</text></g></svg>