<?xml version="1.0" encoding="UTF-8" standalone="no"?>
<svg
   id="primary_logo_-_single_color_-_white"
   data-name="primary logo - single color - white"
   viewBox="0 0 246.978 110.119"
   version="1.1"
   sodipodi:docname="arxiv-logo-one-color-white.svg"
   inkscape:version="1.2.1 (9c6d41e410, 2022-07-14)"
   xmlns:inkscape="http://www.inkscape.org/namespaces/inkscape"
   xmlns:sodipodi="http://sodipodi.sourceforge.net/DTD/sodipodi-0.dtd"
   xmlns="http://www.w3.org/2000/svg"
   xmlns:svg="http://www.w3.org/2000/svg">
  <defs
     id="defs21" />
  <sodipodi:namedview
     id="namedview19"
     pagecolor="#ffffff"
     bordercolor="#000000"
     borderopacity="0.25"
     inkscape:showpageshadow="2"
     inkscape:pageopacity="0"
     inkscape:pagecheckerboard="0"
     inkscape:deskcolor="#d1d1d1"
     showgrid="false"
     inkscape:zoom="5.8385768"
     inkscape:cx="70.993328"
     inkscape:cy="55.749888"
     inkscape:window-width="2560"
     inkscape:window-height="1051"
     inkscape:window-x="-9"
     inkscape:window-y="-9"
     inkscape:window-maximized="1"
     inkscape:current-layer="g243" />
  <g
     id="g243"
     transform="matrix(0.90430035,0,0,0.84914867,11.989062,8.3927579)">
    <rect
       style="opacity:1;fill:#b31b1b;fill-opacity:1;stroke-width:1.14236"
       id="rect973"
       width="273.4938"
       height="129.69411"
       x="-13.257833"
       y="-10.085434" />
    <path
       d="m 492.976,269.5 24.36,-29.89 c 1.492,-1.989 2.2,-3.03 1.492,-4.723 a 5.142,5.142 0 0 0 -4.481,-3.161 v 0 a 4.024,4.024 0 0 0 -3.008,1.108 l -26.139,28.26 z"
       transform="translate(-358.165,-223.27)"
       fill="#ffffff"
       id="path2" />
    <path
       d="m 526.273,325.341 -32.363,-38.283 -0.972,1.033 -7.789,-9.214 -7.743,-9.357 -4.695,5.076 a 4.769,4.769 0 0 0 0.015,6.53 l 47.786,51.074 a 3.913,3.913 0 0 0 3.137,1.192 4.394,4.394 0 0 0 4.027,-2.818 c 0.724,-1.73 -0.076,-3.441 -1.403,-5.233 z"
       transform="translate(-358.165,-223.27)"
       fill="#ffffff"
       id="path4" />
    <path
       d="m 479.215,288.087 6.052,6.485 -26.553,28.128 a 2.98,2.98 0 0 1 -2.275,1.194 3.449,3.449 0 0 1 -3.241,-2.144 c -0.513,-1.231 0.166,-3.15 1.122,-4.168 l 0.023,-0.024 0.021,-0.026 24.851,-29.448 m -0.047,-1.882 -25.76,30.524 c -1.286,1.372 -2.084,3.777 -1.365,5.5 a 4.705,4.705 0 0 0 4.4,2.914 4.191,4.191 0 0 0 3.161,-1.563 l 27.382,-29.007 -7.814,-8.372 z"
       transform="translate(-358.165,-223.27)"
       fill="#ffffff"
       id="path6" />
    <path
       d="m 427.571,255.154 c 1.859,0 3.1,1.24 3.985,3.453 1.062,-2.213 2.568,-3.453 4.694,-3.453 h 14.878 a 4.062,4.062 0 0 1 4.074,4.074 v 7.828 c 0,2.656 -1.327,4.074 -4.074,4.074 -2.656,0 -4.074,-1.418 -4.074,-4.074 V 263.3 h -10.539 a 2.411,2.411 0 0 0 -2.656,2.745 v 27.188 h 10.007 c 2.658,0 4.074,1.329 4.074,4.074 0,2.745 -1.416,4.074 -4.074,4.074 h -26.39 c -2.659,0 -3.986,-1.328 -3.986,-4.074 0,-2.746 1.327,-4.074 3.986,-4.074 h 8.236 V 263.3 h -7.263 c -2.656,0 -3.985,-1.329 -3.985,-4.074 0,-2.658 1.329,-4.074 3.985,-4.074 z"
       transform="translate(-358.165,-223.27)"
       fill="#ffffff"
       id="path8" />
    <path
       d="m 539.233,255.154 c 2.656,0 4.074,1.416 4.074,4.074 v 34.007 h 10.1 c 2.746,0 4.074,1.329 4.074,4.074 0,2.745 -1.328,4.074 -4.074,4.074 H 524.8 c -2.656,0 -4.074,-1.328 -4.074,-4.074 0,-2.746 1.418,-4.074 4.074,-4.074 h 10.362 V 263.3 h -8.533 c -2.744,0 -4.073,-1.329 -4.073,-4.074 0,-2.658 1.329,-4.074 4.073,-4.074 z m 4.22,-17.615 a 5.859,5.859 0 1 1 -5.819,-5.819 5.9,5.9 0 0 1 5.819,5.819 z"
       transform="translate(-358.165,-223.27)"
       fill="#ffffff"
       id="path10" />
    <path
       d="m 605.143,259.228 a 4.589,4.589 0 0 1 -0.267,1.594 L 590,298.9 a 3.722,3.722 0 0 1 -3.721,2.48 h -5.933 a 3.689,3.689 0 0 1 -3.808,-2.48 l -15.055,-38.081 a 3.23,3.23 0 0 1 -0.355,-1.594 4.084,4.084 0 0 1 4.164,-4.074 3.8,3.8 0 0 1 3.718,2.656 l 14.348,36.134 13.9,-36.134 a 3.8,3.8 0 0 1 3.72,-2.656 4.084,4.084 0 0 1 4.165,4.077 z"
       transform="translate(-358.165,-223.27)"
       fill="#ffffff"
       id="path12" />
    <path
       d="m 390.61,255.154 c 5.018,0 8.206,3.312 8.206,8.4 v 37.831 h -35.508 a 4.813,4.813 0 0 1 -5.143,-4.929 v -13.029 a 8.256,8.256 0 0 1 7,-8.148 l 25.507,-3.572 v -8.4 h -28.366 a 4.014,4.014 0 0 1 -4.141,-4.074 c 0,-2.87 2.143,-4.074 4.355,-4.074 z m 0.059,38.081 v -13.293 l -24.354,3.4 v 9.9 z"
       transform="translate(-358.165,-223.27)"
       fill="#ffffff"
       id="path14" />
    <path
       d="m 448.538,224.52 h 0.077 c 1,0.024 2.236,1.245 2.589,1.669 l 0.023,0.028 0.024,0.026 46.664,50.433 a 3.173,3.173 0 0 1 -0.034,4.336 l -4.893,5.2 -6.876,-8.134 -39.46,-47.678 c -1.508,-2.166 -1.617,-2.836 -1.191,-3.858 a 3.353,3.353 0 0 1 3.077,-2.02 m 0,-1.25 a 4.606,4.606 0 0 0 -4.231,2.789 c -0.705,1.692 -0.2,2.88 1.349,5.1 l 39.493,47.722 7.789,9.214 5.853,-6.221 a 4.417,4.417 0 0 0 0.042,-6.042 L 452.169,225.4 c 0,0 -1.713,-2.08 -3.524,-2.124 z"
       transform="translate(-358.165,-223.27)"
       fill="#ffffff"
       id="path16" />
  </g>
</svg>
