<svg width="1124" height="787" xmlns="http://www.w3.org/2000/svg" xmlns:xlink="http://www.w3.org/1999/xlink" xml:space="preserve" overflow="hidden"><defs><clipPath id="clip0"><rect x="204" y="311" width="1124" height="787"/></clipPath><clipPath id="clip1"><rect x="1059" y="394" width="119" height="290"/></clipPath><clipPath id="clip2"><rect x="1177" y="394" width="101" height="290"/></clipPath><clipPath id="clip3"><rect x="264" y="429" width="322" height="321"/></clipPath><clipPath id="clip4"><rect x="264" y="429" width="322" height="321"/></clipPath><clipPath id="clip5"><rect x="1059" y="429" width="119" height="321"/></clipPath><clipPath id="clip6"><rect x="1177" y="429" width="101" height="321"/></clipPath><clipPath id="clip7"><rect x="1059" y="479" width="119" height="322"/></clipPath><clipPath id="clip8"><rect x="1177" y="479" width="101" height="322"/></clipPath><clipPath id="clip9"><rect x="1059" y="529" width="119" height="322"/></clipPath><clipPath id="clip10"><rect x="1177" y="529" width="101" height="322"/></clipPath><clipPath id="clip11"><rect x="1059" y="579" width="119" height="322"/></clipPath><clipPath id="clip12"><rect x="1177" y="579" width="101" height="322"/></clipPath><clipPath id="clip13"><rect x="1059" y="629" width="119" height="322"/></clipPath><clipPath id="clip14"><rect x="1177" y="629" width="101" height="322"/></clipPath><clipPath id="clip15"><rect x="1059" y="749" width="119" height="289"/></clipPath><clipPath id="clip16"><rect x="1177" y="749" width="101" height="289"/></clipPath><clipPath id="clip17"><rect x="1059" y="783" width="119" height="322"/></clipPath><clipPath id="clip18"><rect x="1177" y="783" width="101" height="322"/></clipPath><clipPath id="clip19"><rect x="1059" y="833" width="119" height="322"/></clipPath><clipPath id="clip20"><rect x="1177" y="833" width="101" height="322"/></clipPath><clipPath id="clip21"><rect x="1059" y="887" width="119" height="322"/></clipPath><clipPath id="clip22"><rect x="1177" y="887" width="101" height="322"/></clipPath></defs><g clip-path="url(#clip0)" transform="translate(-204 -311)"><text font-family="Times New Roman,Times New Roman_MSFontService,sans-serif" font-weight="400" font-size="41" transform="matrix(1 0 0 1 229.68 364)">Table</text><text font-family="Times New Roman,Times New Roman_MSFontService,sans-serif" font-weight="400" font-size="41" transform="matrix(1 0 0 1 329.138 364)">2.</text><text font-family="Times New Roman,Times New Roman_MSFontService,sans-serif" font-weight="400" font-size="41" transform="matrix(1 0 0 1 373.138 364)">Domain</text><text font-family="Times New Roman,Times New Roman_MSFontService,sans-serif" font-weight="400" font-size="41" transform="matrix(1 0 0 1 516.138 364)">Generalization</text><text font-family="Times New Roman,Times New Roman_MSFontService,sans-serif" font-weight="400" font-size="41" transform="matrix(1 0 0 1 762.951 364)">results on</text><text font-family="Times New Roman,Times New Roman_MSFontService,sans-serif" font-weight="400" font-size="41" transform="matrix(1 0 0 1 932.305 364)">Digits</text><text font-family="Times New Roman,Times New Roman_MSFontService,sans-serif" font-weight="400" font-size="41" transform="matrix(1 0 0 1 1030.39 364)">-</text><text font-family="Times New Roman,Times New Roman_MSFontService,sans-serif" font-weight="400" font-size="41" transform="matrix(1 0 0 1 1043.68 364)">DG </text><text font-family="Times New Roman,Times New Roman_MSFontService,sans-serif" font-weight="400" font-size="41" transform="matrix(1 0 0 1 1113.58 364)">benchmark.</text><path d="M264 402 1277.87 402" stroke="#000000" stroke-width="3.65259" stroke-linejoin="round" stroke-miterlimit="10" fill="none" fill-rule="evenodd"/><text font-family="Times New Roman,Times New Roman_MSFontService,sans-serif" font-weight="400" font-size="41" transform="matrix(1 0 0 1 353.7 450)">Method</text><path d="M1178 466.81 1178 416" stroke="#000000" stroke-width="1.82395" stroke-linejoin="round" stroke-miterlimit="10" fill="none" fill-rule="evenodd"/><rect x="1179" y="416" width="99" height="51.0002" fill="#D8D8D8"/><text font-family="Times New Roman,Times New Roman_MSFontService,sans-serif" font-weight="400" font-size="41" transform="matrix(1 0 0 1 1194.32 448)">Avg</text><path d="M264 467 1277.87 467" stroke="#000000" stroke-width="1.82395" stroke-linejoin="round" stroke-miterlimit="10" fill="none" fill-rule="evenodd"/><text font-family="Times New Roman,Times New Roman_MSFontService,sans-serif" font-weight="400" font-size="41" transform="matrix(1 0 0 1 584.81 450)">MNIST</text><text font-family="Times New Roman,Times New Roman_MSFontService,sans-serif" font-weight="400" font-size="41" transform="matrix(1 0 0 1 739.956 450)">MNIST</text><text font-family="Times New Roman,Times New Roman_MSFontService,sans-serif" font-weight="400" font-size="41" transform="matrix(1 0 0 1 862.56 450)">-</text><text font-family="Times New Roman,Times New Roman_MSFontService,sans-serif" font-weight="400" font-size="41" transform="matrix(1 0 0 1 875.164 450)">M</text><text font-family="Times New Roman,Times New Roman_MSFontService,sans-serif" font-weight="400" font-size="41" transform="matrix(1 0 0 1 938.644 450)">SVHN</text><text font-family="Times New Roman,Times New Roman_MSFontService,sans-serif" font-weight="400" font-size="41" transform="matrix(1 0 0 1 1077.75 450)">SYN</text><text font-family="Times New Roman,Times New Roman_MSFontService,sans-serif" font-style="italic" font-weight="400" font-size="41" transform="matrix(1 0 0 1 578.164 504)">w/</text><text font-family="Times New Roman,Times New Roman_MSFontService,sans-serif" font-style="italic" font-weight="400" font-size="41" transform="matrix(1 0 0 1 626.289 504)">Domain</text><text font-family="Times New Roman,Times New Roman_MSFontService,sans-serif" font-style="italic" font-weight="400" font-size="41" transform="matrix(1 0 0 1 768.373 504)">Supervision</text><path d="M1177.58 518.622 1277.72 518.622 1277.72 566.518 1177.58 566.518Z" fill="#D8D8D8" fill-rule="evenodd"/><path d="M1177.58 566.518 1277.72 566.518 1277.72 616.706 1177.58 616.706Z" fill="#D8D8D8" fill-rule="evenodd"/><path d="M1177.58 616.706 1277.72 616.706 1277.72 666.893 1177.58 666.893Z" fill="#D8D8D8" fill-rule="evenodd"/><path d="M1177.58 666.893 1277.72 666.893 1277.72 717.081 1177.58 717.081Z" fill="#D8D8D8" fill-rule="evenodd"/><path d="M1177.58 717.081 1277.72 717.081 1277.72 767.268 1177.58 767.268Z" fill="#D8D8D8" fill-rule="evenodd"/><path d="M1177.58 767.268 1277.72 767.268 1277.72 821.351 1177.58 821.351Z" fill="#D8D8D8" fill-rule="evenodd"/><path d="M1177.58 517.476 1177.58 822.497" stroke="#000000" stroke-width="2.29167" stroke-linejoin="round" stroke-miterlimit="10" fill="none" fill-rule="evenodd"/><path d="M264.119 518.622 1277.72 518.622" stroke="#000000" stroke-width="2.29167" stroke-linejoin="round" stroke-miterlimit="10" fill="none" fill-rule="evenodd"/><path d="M264.119 821.351 1277.72 821.351" stroke="#000000" stroke-width="2.29167" stroke-linejoin="round" stroke-miterlimit="10" fill="none" fill-rule="evenodd"/><text font-family="Times New Roman,Times New Roman_MSFontService,sans-serif" font-weight="400" font-size="41" transform="matrix(1 0 0 1 324.39 551)">CCSA</text><text font-family="Times New Roman,Times New Roman_MSFontService,sans-serif" font-weight="400" font-size="41" transform="matrix(1 0 0 1 441.036 551)">[</text><text fill="#0071BB" font-family="Times New Roman,Times New Roman_MSFontService,sans-serif" font-weight="400" font-size="41" transform="matrix(1 0 0 1 453.869 551)">41</text><text font-family="Times New Roman,Times New Roman_MSFontService,sans-serif" font-weight="400" font-size="41" transform="matrix(1 0 0 1 493.286 551)">]</text><text font-family="Times New Roman,Times New Roman_MSFontService,sans-serif" font-weight="400" font-size="41" transform="matrix(1 0 0 1 612.682 551)">95.2</text><text font-family="Times New Roman,Times New Roman_MSFontService,sans-serif" font-weight="400" font-size="41" transform="matrix(1 0 0 1 792.921 551)">58.2</text><text font-family="Times New Roman,Times New Roman_MSFontService,sans-serif" font-weight="400" font-size="41" transform="matrix(1 0 0 1 963.306 551)">65.5</text><g clip-path="url(#clip1)"><text font-family="Times New Roman,Times New Roman_MSFontService,sans-serif" font-weight="400" font-size="41" transform="matrix(1 0 0 1 1087.63 551)">79.1</text></g><g clip-path="url(#clip2)"><text font-family="Times New Roman,Times New Roman_MSFontService,sans-serif" font-weight="400" font-size="41" transform="matrix(1 0 0 1 1193.73 551)">74.5</text></g><g clip-path="url(#clip3)"><text font-family="Times New Roman,Times New Roman_MSFontService,sans-serif" font-weight="400" font-size="41" transform="matrix(1 0 0 1 285.432 603)">MMD</text></g><text font-family="Times New Roman,Times New Roman_MSFontService,sans-serif" font-weight="400" font-size="41" transform="matrix(1 0 0 1 387.182 603)">-</text><text font-family="Times New Roman,Times New Roman_MSFontService,sans-serif" font-weight="400" font-size="41" transform="matrix(1 0 0 1 400.473 603)">AAE</text><text font-family="Times New Roman,Times New Roman_MSFontService,sans-serif" font-weight="400" font-size="41" transform="matrix(1 0 0 1 495.119 603)">[</text><text fill="#0071BB" font-family="Times New Roman,Times New Roman_MSFontService,sans-serif" font-weight="400" font-size="41" transform="matrix(1 0 0 1 507.952 603)">34</text><g clip-path="url(#clip4)"><text font-family="Times New Roman,Times New Roman_MSFontService,sans-serif" font-weight="400" font-size="41" transform="matrix(1 0 0 1 547.369 603)">]</text></g><text font-family="Times New Roman,Times New Roman_MSFontService,sans-serif" font-weight="400" font-size="41" transform="matrix(1 0 0 1 612.682 603)">96.5</text><text font-family="Times New Roman,Times New Roman_MSFontService,sans-serif" font-weight="400" font-size="41" transform="matrix(1 0 0 1 792.921 603)">58.4</text><text font-family="Times New Roman,Times New Roman_MSFontService,sans-serif" font-weight="400" font-size="41" transform="matrix(1 0 0 1 963.306 603)">65.0</text><g clip-path="url(#clip5)"><text font-family="Times New Roman,Times New Roman_MSFontService,sans-serif" font-weight="400" font-size="41" transform="matrix(1 0 0 1 1087.63 603)">78.4</text></g><g clip-path="url(#clip6)"><text font-family="Times New Roman,Times New Roman_MSFontService,sans-serif" font-weight="400" font-size="41" transform="matrix(1 0 0 1 1193.73 603)">74.6</text></g><text font-family="Times New Roman,Times New Roman_MSFontService,sans-serif" font-weight="400" font-size="41" transform="matrix(1 0 0 1 297.807 653)">CrossGrad</text><text font-family="Times New Roman,Times New Roman_MSFontService,sans-serif" font-weight="400" font-size="41" transform="matrix(1 0 0 1 482.515 653)">[</text><text fill="#0071BB" font-family="Times New Roman,Times New Roman_MSFontService,sans-serif" font-weight="400" font-size="41" transform="matrix(1 0 0 1 495.348 653)">50</text><text font-family="Times New Roman,Times New Roman_MSFontService,sans-serif" font-weight="400" font-size="41" transform="matrix(1 0 0 1 534.765 653)">]</text><text font-family="Times New Roman,Times New Roman_MSFontService,sans-serif" font-weight="400" font-size="41" text-decoration="underline" transform="matrix(1 0 0 1 612.682 653)">96.7</text><text font-family="Times New Roman,Times New Roman_MSFontService,sans-serif" font-weight="400" font-size="41" transform="matrix(1 0 0 1 792.921 653)">61.1</text><text font-family="Times New Roman,Times New Roman_MSFontService,sans-serif" font-weight="400" font-size="41" transform="matrix(1 0 0 1 963.306 653)">65.3</text><g clip-path="url(#clip7)"><text font-family="Times New Roman,Times New Roman_MSFontService,sans-serif" font-weight="400" font-size="41" transform="matrix(1 0 0 1 1087.63 653)">80.2</text></g><g clip-path="url(#clip8)"><text font-family="Times New Roman,Times New Roman_MSFontService,sans-serif" font-weight="400" font-size="41" transform="matrix(1 0 0 1 1193.73 653)">75.8</text></g><text font-family="Times New Roman,Times New Roman_MSFontService,sans-serif" font-weight="400" font-size="41" transform="matrix(1 0 0 1 312.702 703)">DDAIG</text><text font-family="Times New Roman,Times New Roman_MSFontService,sans-serif" font-weight="400" font-size="41" transform="matrix(1 0 0 1 452.494 703)">[</text><text fill="#0071BB" font-family="Times New Roman,Times New Roman_MSFontService,sans-serif" font-weight="400" font-size="41" transform="matrix(1 0 0 1 465.327 703)">71</text><text font-family="Times New Roman,Times New Roman_MSFontService,sans-serif" font-weight="400" font-size="41" transform="matrix(1 0 0 1 504.744 703)">]</text><text font-family="Times New Roman,Times New Roman_MSFontService,sans-serif" font-weight="400" font-size="41" transform="matrix(1 0 0 1 612.682 703)">96.6</text><text font-family="Times New Roman,Times New Roman_MSFontService,sans-serif" font-weight="400" font-size="41" transform="matrix(1 0 0 1 792.921 703)">64.1</text><text font-family="Times New Roman,Times New Roman_MSFontService,sans-serif" font-weight="400" font-size="41" transform="matrix(1 0 0 1 963.306 703)">68.6</text><g clip-path="url(#clip9)"><text font-family="Times New Roman,Times New Roman_MSFontService,sans-serif" font-weight="400" font-size="41" transform="matrix(1 0 0 1 1087.63 703)">81.0</text></g><g clip-path="url(#clip10)"><text font-family="Times New Roman,Times New Roman_MSFontService,sans-serif" font-weight="400" font-size="41" transform="matrix(1 0 0 1 1193.73 703)">77.6</text></g><text font-family="Times New Roman,Times New Roman_MSFontService,sans-serif" font-weight="400" font-size="41" transform="matrix(1 0 0 1 306.973 753)">L2A</text><text font-family="Times New Roman,Times New Roman_MSFontService,sans-serif" font-weight="400" font-size="41" transform="matrix(1 0 0 1 381.223 753)">-</text><text font-family="Times New Roman,Times New Roman_MSFontService,sans-serif" font-weight="400" font-size="41" transform="matrix(1 0 0 1 394.515 753)">OT</text><text font-family="Times New Roman,Times New Roman_MSFontService,sans-serif" font-weight="400" font-size="41" transform="matrix(1 0 0 1 457.994 753)">[</text><text fill="#0071BB" font-family="Times New Roman,Times New Roman_MSFontService,sans-serif" font-weight="400" font-size="41" transform="matrix(1 0 0 1 470.827 753)">72</text><text font-family="Times New Roman,Times New Roman_MSFontService,sans-serif" font-weight="400" font-size="41" transform="matrix(1 0 0 1 510.244 753)">]</text><text font-family="Times New Roman,Times New Roman_MSFontService,sans-serif" font-weight="400" font-size="41" transform="matrix(1 0 0 1 612.682 753)">96.7</text><text font-family="Times New Roman,Times New Roman_MSFontService,sans-serif" font-weight="400" font-size="41" transform="matrix(1 0 0 1 792.921 753)">63.9</text><text font-family="Times New Roman,Times New Roman_MSFontService,sans-serif" font-weight="400" font-size="41" transform="matrix(1 0 0 1 963.306 753)">68.6</text><g clip-path="url(#clip11)"><text font-family="Times New Roman,Times New Roman_MSFontService,sans-serif" font-weight="400" font-size="41" transform="matrix(1 0 0 1 1087.63 753)">83.2</text></g><g clip-path="url(#clip12)"><text font-family="Times New Roman,Times New Roman_MSFontService,sans-serif" font-weight="400" font-size="41" transform="matrix(1 0 0 1 1193.73 753)">78.1</text></g><text font-family="Times New Roman,Times New Roman_MSFontService,sans-serif" font-weight="400" font-size="41" transform="matrix(1 0 0 1 301.702 803)">MixStyle</text><text font-family="Times New Roman,Times New Roman_MSFontService,sans-serif" font-weight="400" font-size="41" transform="matrix(1 0 0 1 463.723 803)">[</text><text fill="#0071BB" font-family="Times New Roman,Times New Roman_MSFontService,sans-serif" font-weight="400" font-size="41" transform="matrix(1 0 0 1 476.557 803)">73</text><text font-family="Times New Roman,Times New Roman_MSFontService,sans-serif" font-weight="400" font-size="41" transform="matrix(1 0 0 1 515.973 803)">]</text><text font-family="Times New Roman,Times New Roman_MSFontService,sans-serif" font-weight="400" font-size="41" transform="matrix(1 0 0 1 612.682 803)">96.5</text><text font-family="Times New Roman,Times New Roman_MSFontService,sans-serif" font-weight="400" font-size="41" transform="matrix(1 0 0 1 792.921 803)">63.5</text><text font-family="Times New Roman,Times New Roman_MSFontService,sans-serif" font-weight="400" font-size="41" transform="matrix(1 0 0 1 963.306 803)">64.7</text><g clip-path="url(#clip13)"><text font-family="Times New Roman,Times New Roman_MSFontService,sans-serif" font-weight="400" font-size="41" transform="matrix(1 0 0 1 1087.63 803)">81.2</text></g><g clip-path="url(#clip14)"><text font-family="Times New Roman,Times New Roman_MSFontService,sans-serif" font-weight="400" font-size="41" transform="matrix(1 0 0 1 1193.73 803)">76.5</text></g><text font-family="Times New Roman,Times New Roman_MSFontService,sans-serif" font-style="italic" font-weight="400" font-size="41" transform="matrix(1 0 0 1 567.889 857)">w/o</text><text font-family="Times New Roman,Times New Roman_MSFontService,sans-serif" font-style="italic" font-weight="400" font-size="41" transform="matrix(1 0 0 1 636.409 857)">Domain</text><text font-family="Times New Roman,Times New Roman_MSFontService,sans-serif" font-style="italic" font-weight="400" font-size="41" transform="matrix(1 0 0 1 778.493 857)">Supervision</text><path d="M1177.35 872.958 1277.49 872.958 1277.49 920.853 1177.35 920.853Z" fill="#D8D8D8" fill-rule="evenodd"/><path d="M1177.35 920.853 1277.49 920.853 1277.49 971.041 1177.35 971.041Z" fill="#D8D8D8" fill-rule="evenodd"/><path d="M1177.35 971.041 1277.49 971.041 1277.49 1025.12 1177.35 1025.12Z" fill="#D8D8D8" fill-rule="evenodd"/><path d="M1177.35 1025.12 1277.49 1025.12 1277.49 1085.85 1177.35 1085.85Z" fill="#D8D8D8" fill-rule="evenodd"/><path d="M1177.35 871.812 1177.35 1088.15" stroke="#000000" stroke-width="2.29167" stroke-linejoin="round" stroke-miterlimit="10" fill="none" fill-rule="evenodd"/><path d="M264.119 1025.12 1277.49 1025.12" stroke="#000000" stroke-width="2.29167" stroke-linejoin="round" stroke-miterlimit="10" fill="none" fill-rule="evenodd"/><path d="M264.119 872.958 1277.49 872.958" stroke="#000000" stroke-width="2.29167" stroke-linejoin="round" stroke-miterlimit="10" fill="none" fill-rule="evenodd"/><path d="M264.119 1085.85 1277.49 1085.85" stroke="#000000" stroke-width="4.58333" stroke-linejoin="round" stroke-miterlimit="10" fill="none" fill-rule="evenodd"/><text font-family="Times New Roman,Times New Roman_MSFontService,sans-serif" font-weight="400" font-size="41" transform="matrix(1 0 0 1 312.359 905)">DeepAll</text><text font-family="Times New Roman,Times New Roman_MSFontService,sans-serif" font-weight="400" font-size="41" transform="matrix(1 0 0 1 460.629 905)">[</text><text fill="#0071BB" font-family="Times New Roman,Times New Roman_MSFontService,sans-serif" font-weight="400" font-size="41" transform="matrix(1 0 0 1 473.463 905)">72</text><text font-family="Times New Roman,Times New Roman_MSFontService,sans-serif" font-weight="400" font-size="41" transform="matrix(1 0 0 1 512.88 905)">]</text><text font-family="Times New Roman,Times New Roman_MSFontService,sans-serif" font-weight="400" font-size="41" transform="matrix(1 0 0 1 612.682 905)">95.8</text><text font-family="Times New Roman,Times New Roman_MSFontService,sans-serif" font-weight="400" font-size="41" transform="matrix(1 0 0 1 792.692 905)">58.8</text><text font-family="Times New Roman,Times New Roman_MSFontService,sans-serif" font-weight="400" font-size="41" transform="matrix(1 0 0 1 963.077 905)">61.7</text><g clip-path="url(#clip15)"><text font-family="Times New Roman,Times New Roman_MSFontService,sans-serif" font-weight="400" font-size="41" transform="matrix(1 0 0 1 1087.4 905)">78.6</text></g><g clip-path="url(#clip16)"><text font-family="Times New Roman,Times New Roman_MSFontService,sans-serif" font-weight="400" font-size="41" transform="matrix(1 0 0 1 1193.5 905)">73.7</text></g><text font-family="Times New Roman,Times New Roman_MSFontService,sans-serif" font-weight="400" font-size="41" transform="matrix(1 0 0 1 344.098 957)">JiGen</text><text font-family="Times New Roman,Times New Roman_MSFontService,sans-serif" font-weight="400" font-size="41" transform="matrix(1 0 0 1 449.286 957)">[</text><text fill="#0071BB" font-family="Times New Roman,Times New Roman_MSFontService,sans-serif" font-weight="400" font-size="41" transform="matrix(1 0 0 1 461.89 957)">2</text><text font-family="Times New Roman,Times New Roman_MSFontService,sans-serif" font-weight="400" font-size="41" transform="matrix(1 0 0 1 481.369 957)">]</text><text font-family="Times New Roman,Times New Roman_MSFontService,sans-serif" font-weight="400" font-size="41" transform="matrix(1 0 0 1 612.682 957)">96.5</text><text font-family="Times New Roman,Times New Roman_MSFontService,sans-serif" font-weight="400" font-size="41" transform="matrix(1 0 0 1 792.692 957)">61.4</text><text font-family="Times New Roman,Times New Roman_MSFontService,sans-serif" font-weight="400" font-size="41" transform="matrix(1 0 0 1 963.077 957)">63.7</text><g clip-path="url(#clip17)"><text font-family="Times New Roman,Times New Roman_MSFontService,sans-serif" font-weight="400" font-size="41" transform="matrix(1 0 0 1 1087.4 957)">74.0</text></g><g clip-path="url(#clip18)"><text font-family="Times New Roman,Times New Roman_MSFontService,sans-serif" font-weight="400" font-size="41" transform="matrix(1 0 0 1 1193.5 957)">73.9</text></g><text font-family="Times New Roman,Times New Roman_MSFontService,sans-serif" font-weight="400" font-size="41" transform="matrix(1 0 0 1 324.161 1007)">SFA</text><text font-family="Times New Roman,Times New Roman_MSFontService,sans-serif" font-weight="400" font-size="41" transform="matrix(1 0 0 1 395.661 1007)">-</text><text font-family="Times New Roman,Times New Roman_MSFontService,sans-serif" font-weight="400" font-size="41" transform="matrix(1 0 0 1 408.036 1007)">A</text><text font-family="Times New Roman,Times New Roman_MSFontService,sans-serif" font-weight="400" font-size="41" transform="matrix(1 0 0 1 448.827 1007)">[</text><text fill="#0071BB" font-family="Times New Roman,Times New Roman_MSFontService,sans-serif" font-weight="400" font-size="41" transform="matrix(1 0 0 1 461.661 1007)">33</text><text font-family="Times New Roman,Times New Roman_MSFontService,sans-serif" font-weight="400" font-size="41" transform="matrix(1 0 0 1 501.077 1007)">]</text><text font-family="Times New Roman,Times New Roman_MSFontService,sans-serif" font-weight="400" font-size="41" transform="matrix(1 0 0 1 612.682 1007)">96.5</text><text font-family="Times New Roman,Times New Roman_MSFontService,sans-serif" font-weight="400" font-size="41" text-decoration="underline" transform="matrix(1 0 0 1 792.692 1007)">66.5</text><text font-family="Times New Roman,Times New Roman_MSFontService,sans-serif" font-weight="400" font-size="41" text-decoration="underline" transform="matrix(1 0 0 1 963.077 1007)">70.3</text><g clip-path="url(#clip19)"><text font-family="Times New Roman,Times New Roman_MSFontService,sans-serif" font-weight="400" font-size="41" text-decoration="underline" transform="matrix(1 0 0 1 1087.4 1007)">85.0</text></g><g clip-path="url(#clip20)"><text font-family="Times New Roman,Times New Roman_MSFontService,sans-serif" font-weight="400" font-size="41" text-decoration="underline" transform="matrix(1 0 0 1 1193.5 1007)">79.6</text></g><text font-family="Courier New,Courier New_MSFontService,sans-serif" font-weight="400" font-size="41" transform="matrix(1 0 0 1 300.671 1059)">COMEN</text><text font-family="Times New Roman,Times New Roman_MSFontService,sans-serif" font-weight="400" font-size="41" transform="matrix(1 0 0 1 432.442 1059)">(Ours)</text><text font-family="Times New Roman,Times New Roman_MSFontService,sans-serif" font-weight="700" font-size="41" transform="matrix(1 0 0 1 612.682 1061)">97.1</text><text font-family="Times New Roman,Times New Roman_MSFontService,sans-serif" font-weight="700" font-size="41" transform="matrix(1 0 0 1 792.692 1061)">67.6</text><text font-family="Times New Roman,Times New Roman_MSFontService,sans-serif" font-weight="700" font-size="41" transform="matrix(1 0 0 1 963.077 1061)">75.1</text><g clip-path="url(#clip21)"><text font-family="Times New Roman,Times New Roman_MSFontService,sans-serif" font-weight="700" font-size="41" transform="matrix(1 0 0 1 1087.4 1061)">91.3</text></g><g clip-path="url(#clip22)"><text font-family="Times New Roman,Times New Roman_MSFontService,sans-serif" font-weight="700" font-size="41" transform="matrix(1 0 0 1 1193.5 1061)">82.3</text></g></g></svg>