<svg width="1013" height="627" xmlns="http://www.w3.org/2000/svg" xmlns:xlink="http://www.w3.org/1999/xlink" xml:space="preserve" overflow="hidden"><defs><clipPath id="clip0"><rect x="285" y="513" width="1013" height="627"/></clipPath></defs><g clip-path="url(#clip0)" transform="translate(-285 -513)"><path d="M285 515 1295.78 515" stroke="#000000" stroke-width="3.65259" stroke-linejoin="round" stroke-miterlimit="10" fill="none" fill-rule="evenodd"/><text font-family="Verdana,Verdana_MSFontService,sans-serif" font-style="italic" font-weight="400" font-size="32" transform="matrix(1 0 0 1 355.277 572)">k</text><text font-family="Times New Roman,Times New Roman_MSFontService,sans-serif" font-weight="400" font-size="32" transform="matrix(1 0 0 1 481.777 572)">M</text><text font-family="Times New Roman,Times New Roman_MSFontService,sans-serif" font-weight="400" font-size="25" transform="matrix(1 0 0 1 511.569 572)">ETHODS</text><text font-family="Times New Roman,Times New Roman_MSFontService,sans-serif" font-weight="400" font-size="32" transform="matrix(1 0 0 1 695.383 555)">P</text><text font-family="Times New Roman,Times New Roman_MSFontService,sans-serif" font-weight="400" font-size="25" transform="matrix(1 0 0 1 714.06 555)">REDICATE </text><text font-family="Times New Roman,Times New Roman_MSFontService,sans-serif" font-weight="400" font-size="32" transform="matrix(1 0 0 1 853.508 555)">D</text><text font-family="Times New Roman,Times New Roman_MSFontService,sans-serif" font-weight="400" font-size="25" transform="matrix(1 0 0 1 876.883 555)">ET</text><text font-family="Times New Roman,Times New Roman_MSFontService,sans-serif" font-weight="400" font-size="32" transform="matrix(1 0 0 1 908.737 555)">.  </text><text font-family="Times New Roman,Times New Roman_MSFontService,sans-serif" font-weight="400" font-size="32" transform="matrix(1 0 0 1 685.3 592)">R@5</text><text font-family="Times New Roman,Times New Roman_MSFontService,sans-serif" font-weight="400" font-size="32" transform="matrix(1 0 0 1 755.769 592)">0</text><text font-family="Times New Roman,Times New Roman_MSFontService,sans-serif" font-weight="400" font-size="32" transform="matrix(1 0 0 1 828.987 592)">R@10</text><text font-family="Times New Roman,Times New Roman_MSFontService,sans-serif" font-weight="400" font-size="32" transform="matrix(1 0 0 1 916.644 592)">0</text><text font-family="Times New Roman,Times New Roman_MSFontService,sans-serif" font-weight="400" font-size="32" transform="matrix(1 0 0 1 990.467 555)">R</text><text font-family="Times New Roman,Times New Roman_MSFontService,sans-serif" font-weight="400" font-size="25" transform="matrix(1 0 0 1 1012.81 555)">ELATIONSHIP </text><text font-family="Times New Roman,Times New Roman_MSFontService,sans-serif" font-weight="400" font-size="32" transform="matrix(1 0 0 1 1197.29 555)">D</text><text font-family="Times New Roman,Times New Roman_MSFontService,sans-serif" font-weight="400" font-size="25" transform="matrix(1 0 0 1 1220.66 555)">ET</text><text font-family="Times New Roman,Times New Roman_MSFontService,sans-serif" font-weight="400" font-size="32" transform="matrix(1 0 0 1 1252.52 555)">.  </text><text font-family="Times New Roman,Times New Roman_MSFontService,sans-serif" font-weight="400" font-size="32" transform="matrix(1 0 0 1 990.696 592)">R@50</text><text font-family="Times New Roman,Times New Roman_MSFontService,sans-serif" font-weight="400" font-size="32" transform="matrix(1 0 0 1 1148.36 592)">R@100</text><text font-family="Verdana,Verdana_MSFontService,sans-serif" font-style="italic" font-weight="400" font-size="32" transform="matrix(1 0 0 1 321.764 777)">k </text><text font-family="Calibri,Calibri_MSFontService,sans-serif" font-weight="400" font-size="32" transform="matrix(1 0 0 1 353.045 777)">=</text><text font-family="Calibri,Calibri_MSFontService,sans-serif" font-weight="400" font-size="32" transform="matrix(1 0 0 1 370.118 777)">1</text><path d="M285.267 611.737 1294.97 611.737" stroke="#000000" stroke-width="2.29167" stroke-linejoin="round" stroke-miterlimit="10" fill="none" fill-rule="evenodd"/><text font-family="Times New Roman,Times New Roman_MSFontService,sans-serif" font-weight="400" font-size="32" transform="matrix(1 0 0 1 534.6 648)">L</text><text font-family="Times New Roman,Times New Roman_MSFontService,sans-serif" font-weight="400" font-size="32" transform="matrix(1 0 0 1 555.454 648)">P</text><text font-family="Times New Roman,Times New Roman_MSFontService,sans-serif" font-weight="400" font-size="32" transform="matrix(1 0 0 1 693.183 648)">47.8</text><text font-family="Times New Roman,Times New Roman_MSFontService,sans-serif" font-weight="400" font-size="32" transform="matrix(1 0 0 1 754.829 648)">7</text><text font-family="Times New Roman,Times New Roman_MSFontService,sans-serif" font-weight="400" font-size="32" transform="matrix(1 0 0 1 843.173 648)">47.87</text><text font-family="Times New Roman,Times New Roman_MSFontService,sans-serif" font-weight="400" font-size="32" transform="matrix(1 0 0 1 997.287 648)">13.86</text><text font-family="Times New Roman,Times New Roman_MSFontService,sans-serif" font-weight="400" font-size="32" transform="matrix(1 0 0 1 1163.55 648)">14.70</text><text font-family="Times New Roman,Times New Roman_MSFontService,sans-serif" font-weight="400" font-size="32" transform="matrix(1 0 0 1 521.652 684)">VT</text><text font-family="Times New Roman,Times New Roman_MSFontService,sans-serif" font-weight="400" font-size="32" transform="matrix(1 0 0 1 566.798 684)">E</text><text font-family="Times New Roman,Times New Roman_MSFontService,sans-serif" font-weight="400" font-size="32" transform="matrix(1 0 0 1 693.183 684)">44.7</text><text font-family="Times New Roman,Times New Roman_MSFontService,sans-serif" font-weight="400" font-size="32" transform="matrix(1 0 0 1 754.829 684)">6</text><text font-family="Times New Roman,Times New Roman_MSFontService,sans-serif" font-weight="400" font-size="32" transform="matrix(1 0 0 1 843.173 684)">44.76</text><text font-family="Times New Roman,Times New Roman_MSFontService,sans-serif" font-weight="400" font-size="32" transform="matrix(1 0 0 1 997.172 684)">14.07</text><text font-family="Times New Roman,Times New Roman_MSFontService,sans-serif" font-weight="400" font-size="32" transform="matrix(1 0 0 1 1163.55 684)">15.20</text><text font-family="Times New Roman,Times New Roman_MSFontService,sans-serif" font-weight="400" font-size="32" transform="matrix(1 0 0 1 523.829 721)">S</text><text font-family="Times New Roman,Times New Roman_MSFontService,sans-serif" font-weight="400" font-size="32" transform="matrix(1 0 0 1 542.965 721)">T</text><text font-family="Times New Roman,Times New Roman_MSFontService,sans-serif" font-weight="400" font-size="32" transform="matrix(1 0 0 1 561.069 721)">A</text><text font-family="Times New Roman,Times New Roman_MSFontService,sans-serif" font-weight="400" font-size="32" transform="matrix(1 0 0 1 693.183 721)">48.0</text><text font-family="Times New Roman,Times New Roman_MSFontService,sans-serif" font-weight="400" font-size="32" transform="matrix(1 0 0 1 754.829 721)">3</text><text font-family="Times New Roman,Times New Roman_MSFontService,sans-serif" font-weight="400" font-size="32" transform="matrix(1 0 0 1 843.173 721)">48.03</text><text font-family="Times New Roman,Times New Roman_MSFontService,sans-serif" font-weight="400" font-size="32" transform="matrix(1 0 0 1 1030 721)">-</text><text font-family="Times New Roman,Times New Roman_MSFontService,sans-serif" font-weight="400" font-size="32" transform="matrix(1 0 0 1 1196.49 721)">-</text><text font-family="Times New Roman,Times New Roman_MSFontService,sans-serif" font-weight="400" font-size="32" text-decoration="underline" transform="matrix(1 0 0 1 693.183 757)">53.7</text><text font-family="Times New Roman,Times New Roman_MSFontService,sans-serif" font-weight="400" font-size="32" text-decoration="underline" transform="matrix(1 0 0 1 754.829 757)">9</text><text font-family="Times New Roman,Times New Roman_MSFontService,sans-serif" font-weight="400" font-size="32" text-decoration="underline" transform="matrix(1 0 0 1 843.173 757)">53.79</text><text font-family="Times New Roman,Times New Roman_MSFontService,sans-serif" font-weight="400" font-size="32" transform="matrix(1 0 0 1 997.172 757)">15.63</text><text font-family="Times New Roman,Times New Roman_MSFontService,sans-serif" font-weight="400" font-size="32" transform="matrix(1 0 0 1 1163.55 757)">17.39</text><text font-family="Times New Roman,Times New Roman_MSFontService,sans-serif" font-weight="400" font-size="32" transform="matrix(1 0 0 1 521.945 760)">CAI  </text><text font-family="Times New Roman,Times New Roman_MSFontService,sans-serif" font-weight="400" font-size="32" transform="matrix(1 0 0 1 482.758 797)">V</text><text font-family="Times New Roman,Times New Roman_MSFontService,sans-serif" font-weight="400" font-size="25" transform="matrix(1 0 0 1 506.82 797)">I</text><text font-family="Times New Roman,Times New Roman_MSFontService,sans-serif" font-weight="400" font-size="32" transform="matrix(1 0 0 1 516.789 797)">P</text><text font-family="Times New Roman,Times New Roman_MSFontService,sans-serif" font-weight="400" font-size="32" transform="matrix(1 0 0 1 535.695 797)">-</text><text font-family="Times New Roman,Times New Roman_MSFontService,sans-serif" font-weight="400" font-size="32" transform="matrix(1 0 0 1 547.727 797)">CN</text><text font-family="Times New Roman,Times New Roman_MSFontService,sans-serif" font-weight="400" font-size="32" transform="matrix(1 0 0 1 594.133 797)">N</text><text font-family="Times New Roman,Times New Roman_MSFontService,sans-serif" font-weight="400" font-size="32" transform="matrix(1 0 0 1 723.726 796)">-</text><text font-family="Times New Roman,Times New Roman_MSFontService,sans-serif" font-weight="400" font-size="32" transform="matrix(1 0 0 1 876.447 796)">-</text><text font-family="Times New Roman,Times New Roman_MSFontService,sans-serif" font-weight="400" font-size="32" transform="matrix(1 0 0 1 995.286 796)">17.3</text><text font-family="Times New Roman,Times New Roman_MSFontService,sans-serif" font-weight="400" font-size="32" transform="matrix(1 0 0 1 1056.02 796)">2</text><text font-family="Times New Roman,Times New Roman_MSFontService,sans-serif" font-weight="400" font-size="32" transform="matrix(1 0 0 1 1161.75 796)">20.0</text><text font-family="Times New Roman,Times New Roman_MSFontService,sans-serif" font-weight="400" font-size="32" transform="matrix(1 0 0 1 1222.48 796)">1</text><path d="M285.267 926.901 1295.2 926.901" stroke="#000000" stroke-width="2.29167" stroke-linejoin="round" stroke-miterlimit="10" fill="none" fill-rule="evenodd"/><path d="M285.267 1133.16 1295.2 1133.16" stroke="#000000" stroke-width="4.58333" stroke-linejoin="round" stroke-miterlimit="10" fill="none" fill-rule="evenodd"/><text font-family="Times New Roman,Times New Roman_MSFontService,sans-serif" font-weight="400" font-size="32" transform="matrix(1 0 0 1 476.506 829)">Z</text><text font-family="Times New Roman,Times New Roman_MSFontService,sans-serif" font-weight="400" font-size="25" transform="matrix(1 0 0 1 497.131 829)">OOM</text><text font-family="Times New Roman,Times New Roman_MSFontService,sans-serif" font-weight="400" font-size="32" transform="matrix(1 0 0 1 559.579 829)">-</text><text font-family="Times New Roman,Times New Roman_MSFontService,sans-serif" font-weight="400" font-size="32" transform="matrix(1 0 0 1 571.61 829)">N</text><text font-family="Times New Roman,Times New Roman_MSFontService,sans-serif" font-weight="400" font-size="25" transform="matrix(1 0 0 1 595.672 829)">ET</text><text font-family="Times New Roman,Times New Roman_MSFontService,sans-serif" font-weight="400" font-size="32" transform="matrix(1 0 0 1 692.151 829)">50.69</text><text font-family="Times New Roman,Times New Roman_MSFontService,sans-serif" font-weight="400" font-size="32" transform="matrix(1 0 0 1 843.401 829)">50.69</text><text font-family="Times New Roman,Times New Roman_MSFontService,sans-serif" font-weight="400" font-size="32" text-decoration="underline" transform="matrix(1 0 0 1 997.516 829)">18.92</text><text font-family="Times New Roman,Times New Roman_MSFontService,sans-serif" font-weight="400" font-size="32" text-decoration="underline" transform="matrix(1 0 0 1 1161.6 829)">21.41</text><text font-family="Times New Roman,Times New Roman_MSFontService,sans-serif" font-weight="400" font-size="32" transform="matrix(1 0 0 1 519.876 867)">VRL</text><text font-family="Times New Roman,Times New Roman_MSFontService,sans-serif" font-weight="400" font-size="32" transform="matrix(1 0 0 1 725.094 867)">-</text><text font-family="Times New Roman,Times New Roman_MSFontService,sans-serif" font-weight="400" font-size="32" transform="matrix(1 0 0 1 876.344 867)">-</text><text font-family="Times New Roman,Times New Roman_MSFontService,sans-serif" font-weight="400" font-size="32" transform="matrix(1 0 0 1 997.401 867)">18.19</text><text font-family="Times New Roman,Times New Roman_MSFontService,sans-serif" font-weight="400" font-size="32" transform="matrix(1 0 0 1 1161.6 867)">20.79</text><text font-family="Times New Roman,Times New Roman_MSFontService,sans-serif" font-weight="400" font-size="32" transform="matrix(1 0 0 1 517.011 907)">NMP</text><text font-family="Times New Roman,Times New Roman_MSFontService,sans-serif" font-weight="700" font-size="32" transform="matrix(1 0 0 1 692.151 907)">57.69</text><text font-family="Times New Roman,Times New Roman_MSFontService,sans-serif" font-weight="700" font-size="32" transform="matrix(1 0 0 1 843.401 907)">57.69</text><text font-family="Times New Roman,Times New Roman_MSFontService,sans-serif" font-weight="700" font-size="32" transform="matrix(1 0 0 1 997.516 907)">20.19</text><text font-family="Times New Roman,Times New Roman_MSFontService,sans-serif" font-weight="700" font-size="32" transform="matrix(1 0 0 1 1161.6 907)">23.98</text><text font-family="Times New Roman,Times New Roman_MSFontService,sans-serif" font-weight="400" font-size="32" transform="matrix(1 0 0 1 494.839 963)">DR</text><text font-family="Times New Roman,Times New Roman_MSFontService,sans-serif" font-weight="400" font-size="32" transform="matrix(1 0 0 1 541.245 963)">-</text><text font-family="Times New Roman,Times New Roman_MSFontService,sans-serif" font-weight="400" font-size="32" transform="matrix(1 0 0 1 553.276 963)">N</text><text font-family="Times New Roman,Times New Roman_MSFontService,sans-serif" font-weight="400" font-size="25" transform="matrix(1 0 0 1 577.339 963)">ET</text><text font-family="Times New Roman,Times New Roman_MSFontService,sans-serif" font-weight="400" font-size="32" transform="matrix(1 0 0 1 692.151 963)">80.78</text><text font-family="Times New Roman,Times New Roman_MSFontService,sans-serif" font-weight="400" font-size="32" transform="matrix(1 0 0 1 843.401 963)">81.90</text><text font-family="Times New Roman,Times New Roman_MSFontService,sans-serif" font-weight="400" font-size="32" transform="matrix(1 0 0 1 997.516 963)">17.73</text><text font-family="Times New Roman,Times New Roman_MSFontService,sans-serif" font-weight="400" font-size="32" transform="matrix(1 0 0 1 1161.6 963)">20.88</text><text font-family="Times New Roman,Times New Roman_MSFontService,sans-serif" font-weight="400" font-size="32" transform="matrix(1 0 0 1 476.506 999)">Z</text><text font-family="Times New Roman,Times New Roman_MSFontService,sans-serif" font-weight="400" font-size="25" transform="matrix(1 0 0 1 497.131 999)">OOM</text><text font-family="Times New Roman,Times New Roman_MSFontService,sans-serif" font-weight="400" font-size="32" transform="matrix(1 0 0 1 559.579 999)">-</text><text font-family="Times New Roman,Times New Roman_MSFontService,sans-serif" font-weight="400" font-size="32" transform="matrix(1 0 0 1 571.61 999)">N</text><text font-family="Times New Roman,Times New Roman_MSFontService,sans-serif" font-weight="400" font-size="25" transform="matrix(1 0 0 1 595.672 999)">ET</text><text font-family="Times New Roman,Times New Roman_MSFontService,sans-serif" font-weight="400" font-size="32" transform="matrix(1 0 0 1 692.151 999)">84.25</text><text font-family="Times New Roman,Times New Roman_MSFontService,sans-serif" font-weight="400" font-size="32" transform="matrix(1 0 0 1 843.401 999)">90.59</text><text font-family="Times New Roman,Times New Roman_MSFontService,sans-serif" font-weight="400" font-size="32" transform="matrix(1 0 0 1 997.516 999)">21.37</text><text font-family="Times New Roman,Times New Roman_MSFontService,sans-serif" font-weight="400" font-size="32" text-decoration="underline" transform="matrix(1 0 0 1 1161.6 999)">27.30</text><text font-family="Verdana,Verdana_MSFontService,sans-serif" font-style="italic" font-weight="400" font-size="32" transform="matrix(1 0 0 1 312.537 1035)">k </text><text font-family="Calibri,Calibri_MSFontService,sans-serif" font-weight="400" font-size="32" transform="matrix(1 0 0 1 343.819 1035)">=</text><text font-family="Calibri,Calibri_MSFontService,sans-serif" font-weight="400" font-size="32" transform="matrix(1 0 0 1 362.496 1035)">70</text><text font-family="Times New Roman,Times New Roman_MSFontService,sans-serif" font-weight="400" font-size="32" transform="matrix(1 0 0 1 520.735 1036)">DSR</text><text font-family="Times New Roman,Times New Roman_MSFontService,sans-serif" font-weight="400" font-size="32" transform="matrix(1 0 0 1 692.151 1036)">86.01</text><text font-family="Times New Roman,Times New Roman_MSFontService,sans-serif" font-weight="400" font-size="32" transform="matrix(1 0 0 1 843.401 1036)">93.18</text><text font-family="Times New Roman,Times New Roman_MSFontService,sans-serif" font-weight="400" font-size="32" transform="matrix(1 0 0 1 997.287 1036)">19.03</text><text font-family="Times New Roman,Times New Roman_MSFontService,sans-serif" font-weight="400" font-size="32" transform="matrix(1 0 0 1 1161.6 1036)">23.29</text><text font-family="Times New Roman,Times New Roman_MSFontService,sans-serif" font-weight="400" font-size="32" transform="matrix(1 0 0 1 505.896 1072)">CDDN</text><text font-family="Times New Roman,Times New Roman_MSFontService,sans-serif" font-weight="400" font-size="32" text-decoration="underline" transform="matrix(1 0 0 1 692.151 1072)">87.57</text><text font-family="Times New Roman,Times New Roman_MSFontService,sans-serif" font-weight="400" font-size="32" text-decoration="underline" transform="matrix(1 0 0 1 843.401 1072)">93.76</text><text font-family="Times New Roman,Times New Roman_MSFontService,sans-serif" font-weight="400" font-size="32" text-decoration="underline" transform="matrix(1 0 0 1 997.401 1072)">21.46</text><text font-family="Times New Roman,Times New Roman_MSFontService,sans-serif" font-weight="400" font-size="32" transform="matrix(1 0 0 1 1161.6 1072)">26.14</text><text font-family="Times New Roman,Times New Roman_MSFontService,sans-serif" font-weight="400" font-size="32" transform="matrix(1 0 0 1 517.011 1112)">NMP</text><text font-family="Times New Roman,Times New Roman_MSFontService,sans-serif" font-weight="700" font-size="32" transform="matrix(1 0 0 1 692.151 1112)">90.61</text><text font-family="Times New Roman,Times New Roman_MSFontService,sans-serif" font-weight="700" font-size="32" transform="matrix(1 0 0 1 843.401 1112)">96.61</text><text font-family="Times New Roman,Times New Roman_MSFontService,sans-serif" font-weight="700" font-size="32" transform="matrix(1 0 0 1 997.516 1112)">21.50</text><text font-family="Times New Roman,Times New Roman_MSFontService,sans-serif" font-weight="700" font-size="32" transform="matrix(1 0 0 1 1161.6 1112)">27.50</text></g></svg>