<svg width="1020" height="887" xmlns="http://www.w3.org/2000/svg" xmlns:xlink="http://www.w3.org/1999/xlink" xml:space="preserve" overflow="hidden"><defs><clipPath id="clip0"><rect x="262" y="2092" width="1020" height="887"/></clipPath><clipPath id="clip1"><rect x="587" y="2176" width="130" height="289"/></clipPath><clipPath id="clip2"><rect x="1025" y="2176" width="136" height="289"/></clipPath><clipPath id="clip3"><rect x="1160" y="2176" width="120" height="289"/></clipPath><clipPath id="clip4"><rect x="587" y="2210" width="130" height="322"/></clipPath><clipPath id="clip5"><rect x="1025" y="2210" width="136" height="322"/></clipPath><clipPath id="clip6"><rect x="1160" y="2210" width="120" height="322"/></clipPath><clipPath id="clip7"><rect x="587" y="2260" width="130" height="322"/></clipPath><clipPath id="clip8"><rect x="1025" y="2260" width="136" height="322"/></clipPath><clipPath id="clip9"><rect x="1160" y="2260" width="120" height="322"/></clipPath><clipPath id="clip10"><rect x="587" y="2310" width="130" height="322"/></clipPath><clipPath id="clip11"><rect x="1025" y="2310" width="136" height="322"/></clipPath><clipPath id="clip12"><rect x="1160" y="2310" width="120" height="322"/></clipPath><clipPath id="clip13"><rect x="587" y="2360" width="130" height="322"/></clipPath><clipPath id="clip14"><rect x="1025" y="2360" width="136" height="322"/></clipPath><clipPath id="clip15"><rect x="1160" y="2360" width="120" height="322"/></clipPath><clipPath id="clip16"><rect x="587" y="2410" width="130" height="321"/></clipPath><clipPath id="clip17"><rect x="1025" y="2410" width="136" height="321"/></clipPath><clipPath id="clip18"><rect x="1160" y="2410" width="120" height="321"/></clipPath><clipPath id="clip19"><rect x="587" y="2462" width="130" height="321"/></clipPath><clipPath id="clip20"><rect x="1025" y="2462" width="136" height="321"/></clipPath><clipPath id="clip21"><rect x="1160" y="2462" width="120" height="321"/></clipPath><clipPath id="clip22"><rect x="1025" y="2580" width="136" height="290"/></clipPath><clipPath id="clip23"><rect x="1160" y="2580" width="120" height="290"/></clipPath><clipPath id="clip24"><rect x="1025" y="2614" width="136" height="322"/></clipPath><clipPath id="clip25"><rect x="1160" y="2614" width="120" height="322"/></clipPath><clipPath id="clip26"><rect x="1025" y="2664" width="136" height="322"/></clipPath><clipPath id="clip27"><rect x="1160" y="2664" width="120" height="322"/></clipPath><clipPath id="clip28"><rect x="1025" y="2715" width="136" height="321"/></clipPath><clipPath id="clip29"><rect x="1160" y="2715" width="120" height="321"/></clipPath><clipPath id="clip30"><rect x="1025" y="2769" width="136" height="322"/></clipPath><clipPath id="clip31"><rect x="1160" y="2769" width="120" height="322"/></clipPath></defs><g clip-path="url(#clip0)" transform="translate(-262 -2092)"><text font-family="Times New Roman,Times New Roman_MSFontService,sans-serif" font-weight="400" font-size="41" transform="matrix(1 0 0 1 304.076 2145)">Table</text><text font-family="Times New Roman,Times New Roman_MSFontService,sans-serif" font-weight="400" font-size="41" transform="matrix(1 0 0 1 403.535 2145)">4.</text><text font-family="Times New Roman,Times New Roman_MSFontService,sans-serif" font-weight="400" font-size="41" transform="matrix(1 0 0 1 447.306 2145)">Domain </text><text font-family="Times New Roman,Times New Roman_MSFontService,sans-serif" font-weight="400" font-size="41" transform="matrix(1 0 0 1 590.535 2145)">Generalization</text><text font-family="Times New Roman,Times New Roman_MSFontService,sans-serif" font-weight="400" font-size="41" transform="matrix(1 0 0 1 837.347 2145)">results on </text><text font-family="Times New Roman,Times New Roman_MSFontService,sans-serif" font-weight="400" font-size="41" transform="matrix(1 0 0 1 1006.93 2145)">Office</text><text font-family="Times New Roman,Times New Roman_MSFontService,sans-serif" font-weight="400" font-size="41" transform="matrix(1 0 0 1 1109.6 2145)">-</text><text font-family="Times New Roman,Times New Roman_MSFontService,sans-serif" font-weight="400" font-size="41" transform="matrix(1 0 0 1 1122.89 2145)">Home.</text><path d="M263 2183 1279.78 2183" stroke="#000000" stroke-width="3.65259" stroke-linejoin="round" stroke-miterlimit="10" fill="none" fill-rule="evenodd"/><text font-family="Times New Roman,Times New Roman_MSFontService,sans-serif" font-weight="400" font-size="41" transform="matrix(1 0 0 1 361.506 2231)">Method</text><path d="M1161 2247.81 1161 2198" stroke="#000000" stroke-width="1.82395" stroke-linejoin="round" stroke-miterlimit="10" fill="none" fill-rule="evenodd"/><rect x="1162" y="2198" width="118" height="50.0002" fill="#D8D8D8"/><text font-family="Times New Roman,Times New Roman_MSFontService,sans-serif" font-weight="400" font-size="41" transform="matrix(1 0 0 1 1186.55 2230)">Avg</text><path d="M263 2249 1279.78 2249" stroke="#000000" stroke-width="1.82395" stroke-linejoin="round" stroke-miterlimit="10" fill="none" fill-rule="evenodd"/><text font-family="Times New Roman,Times New Roman_MSFontService,sans-serif" font-weight="400" font-size="41" transform="matrix(1 0 0 1 619.414 2231)">Art</text><text font-family="Times New Roman,Times New Roman_MSFontService,sans-serif" font-weight="400" font-size="41" transform="matrix(1 0 0 1 728.269 2231)">Clipart</text><text font-family="Times New Roman,Times New Roman_MSFontService,sans-serif" font-weight="400" font-size="41" transform="matrix(1 0 0 1 886.76 2231)">Product</text><text font-family="Times New Roman,Times New Roman_MSFontService,sans-serif" font-weight="400" font-size="41" transform="matrix(1 0 0 1 1059.55 2231)">Real</text><text font-family="Times New Roman,Times New Roman_MSFontService,sans-serif" font-style="italic" font-weight="400" font-size="41" transform="matrix(1 0 0 1 578.164 2285)">w/</text><text font-family="Times New Roman,Times New Roman_MSFontService,sans-serif" font-style="italic" font-weight="400" font-size="41" transform="matrix(1 0 0 1 626.289 2285)">Domain</text><text font-family="Times New Roman,Times New Roman_MSFontService,sans-serif" font-style="italic" font-weight="400" font-size="41" transform="matrix(1 0 0 1 768.373 2285)">Supervision</text><path d="M1160.67 2299.82 1279.15 2299.82 1279.15 2347.71 1160.67 2347.71Z" fill="#D8D8D8" fill-rule="evenodd"/><path d="M1160.67 2347.71 1279.15 2347.71 1279.15 2397.9 1160.67 2397.9Z" fill="#D8D8D8" fill-rule="evenodd"/><path d="M1160.67 2397.9 1279.15 2397.9 1279.15 2448.09 1160.67 2448.09Z" fill="#D8D8D8" fill-rule="evenodd"/><path d="M1160.67 2448.09 1279.15 2448.09 1279.15 2498.27 1160.67 2498.27Z" fill="#D8D8D8" fill-rule="evenodd"/><path d="M1160.67 2498.27 1279.15 2498.27 1279.15 2547.54 1160.67 2547.54Z" fill="#D8D8D8" fill-rule="evenodd"/><path d="M1160.67 2547.54 1279.15 2547.54 1279.15 2599.57 1160.67 2599.57Z" fill="#D8D8D8" fill-rule="evenodd"/><path d="M1160.67 2599.57 1279.15 2599.57 1279.15 2652.5 1160.67 2652.5Z" fill="#D8D8D8" fill-rule="evenodd"/><path d="M1160.67 2298.67 1160.67 2653.65" stroke="#000000" stroke-width="2.29167" stroke-linejoin="round" stroke-miterlimit="10" fill="none" fill-rule="evenodd"/><path d="M262.794 2299.82 1279.15 2299.82" stroke="#000000" stroke-width="2.29167" stroke-linejoin="round" stroke-miterlimit="10" fill="none" fill-rule="evenodd"/><path d="M262.794 2652.5 1279.15 2652.5" stroke="#000000" stroke-width="2.29167" stroke-linejoin="round" stroke-miterlimit="10" fill="none" fill-rule="evenodd"/><text font-family="Times New Roman,Times New Roman_MSFontService,sans-serif" font-weight="400" font-size="41" transform="matrix(1 0 0 1 334.523 2332)">CCSA</text><text font-family="Times New Roman,Times New Roman_MSFontService,sans-serif" font-weight="400" font-size="41" transform="matrix(1 0 0 1 451.169 2332)">[</text><text fill="#0071BB" font-family="Times New Roman,Times New Roman_MSFontService,sans-serif" font-weight="400" font-size="41" transform="matrix(1 0 0 1 464.003 2332)">41</text><text font-family="Times New Roman,Times New Roman_MSFontService,sans-serif" font-weight="400" font-size="41" transform="matrix(1 0 0 1 503.419 2332)">]</text><g clip-path="url(#clip1)"><text font-family="Times New Roman,Times New Roman_MSFontService,sans-serif" font-weight="400" font-size="41" transform="matrix(1 0 0 1 610.669 2332)">59.9</text></g><text font-family="Times New Roman,Times New Roman_MSFontService,sans-serif" font-weight="400" font-size="41" transform="matrix(1 0 0 1 752.523 2332)">49.9</text><text font-family="Times New Roman,Times New Roman_MSFontService,sans-serif" font-weight="400" font-size="41" transform="matrix(1 0 0 1 922.336 2332)">74.1</text><g clip-path="url(#clip2)"><text font-family="Times New Roman,Times New Roman_MSFontService,sans-serif" font-weight="400" font-size="41" transform="matrix(1 0 0 1 1068.89 2332)">75.7</text></g><g clip-path="url(#clip3)"><text font-family="Times New Roman,Times New Roman_MSFontService,sans-serif" font-weight="400" font-size="41" transform="matrix(1 0 0 1 1190.23 2332)">64.9</text></g><text font-family="Times New Roman,Times New Roman_MSFontService,sans-serif" font-weight="400" font-size="41" transform="matrix(1 0 0 1 288.003 2384)">MMD</text><text font-family="Times New Roman,Times New Roman_MSFontService,sans-serif" font-weight="400" font-size="41" transform="matrix(1 0 0 1 389.753 2384)">-</text><text font-family="Times New Roman,Times New Roman_MSFontService,sans-serif" font-weight="400" font-size="41" transform="matrix(1 0 0 1 403.044 2384)">AAE</text><text font-family="Times New Roman,Times New Roman_MSFontService,sans-serif" font-weight="400" font-size="41" transform="matrix(1 0 0 1 497.69 2384)">[</text><text fill="#0071BB" font-family="Times New Roman,Times New Roman_MSFontService,sans-serif" font-weight="400" font-size="41" transform="matrix(1 0 0 1 510.523 2384)">34</text><text font-family="Times New Roman,Times New Roman_MSFontService,sans-serif" font-weight="400" font-size="41" transform="matrix(1 0 0 1 549.94 2384)">]</text><g clip-path="url(#clip4)"><text font-family="Times New Roman,Times New Roman_MSFontService,sans-serif" font-weight="400" font-size="41" transform="matrix(1 0 0 1 610.669 2384)">56.5</text></g><text font-family="Times New Roman,Times New Roman_MSFontService,sans-serif" font-weight="400" font-size="41" transform="matrix(1 0 0 1 752.523 2384)">47.3</text><text font-family="Times New Roman,Times New Roman_MSFontService,sans-serif" font-weight="400" font-size="41" transform="matrix(1 0 0 1 922.336 2384)">72.1</text><g clip-path="url(#clip5)"><text font-family="Times New Roman,Times New Roman_MSFontService,sans-serif" font-weight="400" font-size="41" transform="matrix(1 0 0 1 1068.89 2384)">74.8</text></g><g clip-path="url(#clip6)"><text font-family="Times New Roman,Times New Roman_MSFontService,sans-serif" font-weight="400" font-size="41" transform="matrix(1 0 0 1 1190.23 2384)">62.7</text></g><text font-family="Times New Roman,Times New Roman_MSFontService,sans-serif" font-weight="400" font-size="41" transform="matrix(1 0 0 1 300.492 2434)">CrossGrad</text><text font-family="Times New Roman,Times New Roman_MSFontService,sans-serif" font-weight="400" font-size="41" transform="matrix(1 0 0 1 485.2 2434)">[</text><text fill="#0071BB" font-family="Times New Roman,Times New Roman_MSFontService,sans-serif" font-weight="400" font-size="41" transform="matrix(1 0 0 1 498.034 2434)">50</text><text font-family="Times New Roman,Times New Roman_MSFontService,sans-serif" font-weight="400" font-size="41" transform="matrix(1 0 0 1 537.45 2434)">]</text><g clip-path="url(#clip7)"><text font-family="Times New Roman,Times New Roman_MSFontService,sans-serif" font-weight="400" font-size="41" transform="matrix(1 0 0 1 610.669 2434)">58.4</text></g><text font-family="Times New Roman,Times New Roman_MSFontService,sans-serif" font-weight="400" font-size="41" transform="matrix(1 0 0 1 752.409 2434)">49.4</text><text font-family="Times New Roman,Times New Roman_MSFontService,sans-serif" font-weight="400" font-size="41" transform="matrix(1 0 0 1 922.336 2434)">73.9</text><g clip-path="url(#clip8)"><text font-family="Times New Roman,Times New Roman_MSFontService,sans-serif" font-weight="400" font-size="41" transform="matrix(1 0 0 1 1069.12 2434)">75.8</text></g><g clip-path="url(#clip9)"><text font-family="Times New Roman,Times New Roman_MSFontService,sans-serif" font-weight="400" font-size="41" transform="matrix(1 0 0 1 1190.23 2434)">64.4</text></g><text font-family="Times New Roman,Times New Roman_MSFontService,sans-serif" font-weight="400" font-size="41" transform="matrix(1 0 0 1 322.95 2484)">DDAIG</text><text font-family="Times New Roman,Times New Roman_MSFontService,sans-serif" font-weight="400" font-size="41" transform="matrix(1 0 0 1 462.742 2484)">[</text><text fill="#0071BB" font-family="Times New Roman,Times New Roman_MSFontService,sans-serif" font-weight="400" font-size="41" transform="matrix(1 0 0 1 475.575 2484)">71</text><text font-family="Times New Roman,Times New Roman_MSFontService,sans-serif" font-weight="400" font-size="41" transform="matrix(1 0 0 1 514.992 2484)">]</text><g clip-path="url(#clip10)"><text font-family="Times New Roman,Times New Roman_MSFontService,sans-serif" font-weight="400" font-size="41" transform="matrix(1 0 0 1 610.669 2484)">59.2</text></g><text font-family="Times New Roman,Times New Roman_MSFontService,sans-serif" font-weight="400" font-size="41" transform="matrix(1 0 0 1 752.638 2484)">52.3</text><text font-family="Times New Roman,Times New Roman_MSFontService,sans-serif" font-weight="400" font-size="41" transform="matrix(1 0 0 1 922.336 2484)">74.6</text><g clip-path="url(#clip11)"><text font-family="Times New Roman,Times New Roman_MSFontService,sans-serif" font-weight="400" font-size="41" transform="matrix(1 0 0 1 1069.12 2484)">76.0</text></g><g clip-path="url(#clip12)"><text font-family="Times New Roman,Times New Roman_MSFontService,sans-serif" font-weight="400" font-size="41" transform="matrix(1 0 0 1 1190.23 2484)">65.5</text></g><text font-family="Times New Roman,Times New Roman_MSFontService,sans-serif" font-weight="400" font-size="41" transform="matrix(1 0 0 1 332.232 2534)">DOSN</text><text font-family="Times New Roman,Times New Roman_MSFontService,sans-serif" font-weight="400" font-size="41" transform="matrix(1 0 0 1 453.461 2534)">[</text><text fill="#0071BB" font-family="Times New Roman,Times New Roman_MSFontService,sans-serif" font-weight="400" font-size="41" transform="matrix(1 0 0 1 466.294 2534)">49</text><text font-family="Times New Roman,Times New Roman_MSFontService,sans-serif" font-weight="400" font-size="41" transform="matrix(1 0 0 1 505.711 2534)">]</text><g clip-path="url(#clip13)"><text font-family="Times New Roman,Times New Roman_MSFontService,sans-serif" font-weight="400" font-size="41" transform="matrix(1 0 0 1 610.669 2534)">59.4</text></g><text font-family="Times New Roman,Times New Roman_MSFontService,sans-serif" font-weight="400" font-size="41" transform="matrix(1 0 0 1 752.523 2534)">45.7</text><text font-family="Times New Roman,Times New Roman_MSFontService,sans-serif" font-weight="400" font-size="41" transform="matrix(1 0 0 1 922.336 2534)">71.8</text><g clip-path="url(#clip14)"><text font-family="Times New Roman,Times New Roman_MSFontService,sans-serif" font-weight="400" font-size="41" transform="matrix(1 0 0 1 1069.12 2534)">74.7</text></g><g clip-path="url(#clip15)"><text font-family="Times New Roman,Times New Roman_MSFontService,sans-serif" font-weight="400" font-size="41" transform="matrix(1 0 0 1 1190.23 2534)">62.9</text></g><text font-family="Times New Roman,Times New Roman_MSFontService,sans-serif" font-weight="400" font-size="41" transform="matrix(1 0 0 1 317.336 2584)">L2A</text><text font-family="Times New Roman,Times New Roman_MSFontService,sans-serif" font-weight="400" font-size="41" transform="matrix(1 0 0 1 391.586 2584)">-</text><text font-family="Times New Roman,Times New Roman_MSFontService,sans-serif" font-weight="400" font-size="41" transform="matrix(1 0 0 1 404.878 2584)">OT</text><text font-family="Times New Roman,Times New Roman_MSFontService,sans-serif" font-weight="400" font-size="41" transform="matrix(1 0 0 1 468.357 2584)">[</text><text fill="#0071BB" font-family="Times New Roman,Times New Roman_MSFontService,sans-serif" font-weight="400" font-size="41" transform="matrix(1 0 0 1 481.19 2584)">72</text><text font-family="Times New Roman,Times New Roman_MSFontService,sans-serif" font-weight="400" font-size="41" transform="matrix(1 0 0 1 520.607 2584)">]</text><g clip-path="url(#clip16)"><text font-family="Times New Roman,Times New Roman_MSFontService,sans-serif" font-weight="700" font-size="41" transform="matrix(1 0 0 1 610.669 2584)">60.6</text></g><text font-family="Times New Roman,Times New Roman_MSFontService,sans-serif" font-weight="400" font-size="41" transform="matrix(1 0 0 1 752.523 2584)">50.1</text><text font-family="Times New Roman,Times New Roman_MSFontService,sans-serif" font-weight="400" font-size="41" text-decoration="underline" transform="matrix(1 0 0 1 922.336 2584)">74.8</text><g clip-path="url(#clip17)"><text font-family="Times New Roman,Times New Roman_MSFontService,sans-serif" font-weight="700" font-size="41" transform="matrix(1 0 0 1 1069.12 2584)">77.0</text></g><g clip-path="url(#clip18)"><text font-family="Times New Roman,Times New Roman_MSFontService,sans-serif" font-weight="400" font-size="41" text-decoration="underline" transform="matrix(1 0 0 1 1190.23 2584)">65.6</text></g><text font-family="Times New Roman,Times New Roman_MSFontService,sans-serif" font-weight="400" font-size="41" transform="matrix(1 0 0 1 311.836 2636)">MixStyle</text><text font-family="Times New Roman,Times New Roman_MSFontService,sans-serif" font-weight="400" font-size="41" transform="matrix(1 0 0 1 473.857 2636)">[</text><text fill="#0071BB" font-family="Times New Roman,Times New Roman_MSFontService,sans-serif" font-weight="400" font-size="41" transform="matrix(1 0 0 1 486.69 2636)">73</text><text font-family="Times New Roman,Times New Roman_MSFontService,sans-serif" font-weight="400" font-size="41" transform="matrix(1 0 0 1 526.107 2636)">]</text><g clip-path="url(#clip19)"><text font-family="Times New Roman,Times New Roman_MSFontService,sans-serif" font-weight="400" font-size="41" transform="matrix(1 0 0 1 610.669 2636)">58.7</text></g><text font-family="Times New Roman,Times New Roman_MSFontService,sans-serif" font-weight="400" font-size="41" text-decoration="underline" transform="matrix(1 0 0 1 752.638 2636)">53.4</text><text font-family="Times New Roman,Times New Roman_MSFontService,sans-serif" font-weight="400" font-size="41" transform="matrix(1 0 0 1 922.336 2636)">74.2</text><g clip-path="url(#clip20)"><text font-family="Times New Roman,Times New Roman_MSFontService,sans-serif" font-weight="400" font-size="41" transform="matrix(1 0 0 1 1069.12 2636)">75.9</text></g><g clip-path="url(#clip21)"><text font-family="Times New Roman,Times New Roman_MSFontService,sans-serif" font-weight="400" font-size="41" transform="matrix(1 0 0 1 1190.23 2636)">65.5</text></g><text font-family="Times New Roman,Times New Roman_MSFontService,sans-serif" font-style="italic" font-weight="400" font-size="41" transform="matrix(1 0 0 1 567.889 2689)">w/o</text><text font-family="Times New Roman,Times New Roman_MSFontService,sans-serif" font-style="italic" font-weight="400" font-size="41" transform="matrix(1 0 0 1 636.409 2689)">Domain</text><text font-family="Times New Roman,Times New Roman_MSFontService,sans-serif" font-style="italic" font-weight="400" font-size="41" transform="matrix(1 0 0 1 778.493 2689)">Supervision</text><path d="M1160.67 2704.38 1279.15 2704.38 1279.15 2752.28 1160.67 2752.28Z" fill="#D8D8D8" fill-rule="evenodd"/><path d="M1160.67 2752.28 1279.15 2752.28 1279.15 2802.47 1160.67 2802.47Z" fill="#D8D8D8" fill-rule="evenodd"/><path d="M1160.67 2802.47 1279.15 2802.47 1279.15 2852.66 1160.67 2852.66Z" fill="#D8D8D8" fill-rule="evenodd"/><path d="M1160.67 2852.66 1279.15 2852.66 1279.15 2906.74 1160.67 2906.74Z" fill="#D8D8D8" fill-rule="evenodd"/><path d="M1160.67 2906.74 1279.15 2906.74 1279.15 2967.47 1160.67 2967.47Z" fill="#D8D8D8" fill-rule="evenodd"/><path d="M1160.67 2703.24 1160.67 2969.76" stroke="#000000" stroke-width="2.29167" stroke-linejoin="round" stroke-miterlimit="10" fill="none" fill-rule="evenodd"/><path d="M262.794 2906.74 1279.15 2906.74" stroke="#000000" stroke-width="2.29167" stroke-linejoin="round" stroke-miterlimit="10" fill="none" fill-rule="evenodd"/><path d="M262.794 2704.38 1279.15 2704.38" stroke="#000000" stroke-width="2.29167" stroke-linejoin="round" stroke-miterlimit="10" fill="none" fill-rule="evenodd"/><path d="M262.794 2967.47 1279.15 2967.47" stroke="#000000" stroke-width="4.58333" stroke-linejoin="round" stroke-miterlimit="10" fill="none" fill-rule="evenodd"/><text font-family="Times New Roman,Times New Roman_MSFontService,sans-serif" font-weight="400" font-size="41" transform="matrix(1 0 0 1 318.711 2736)">DeepAll</text><text font-family="Times New Roman,Times New Roman_MSFontService,sans-serif" font-weight="400" font-size="41" transform="matrix(1 0 0 1 466.982 2736)">[</text><text fill="#0071BB" font-family="Times New Roman,Times New Roman_MSFontService,sans-serif" font-weight="400" font-size="41" transform="matrix(1 0 0 1 479.815 2736)">72</text><text font-family="Times New Roman,Times New Roman_MSFontService,sans-serif" font-weight="400" font-size="41" transform="matrix(1 0 0 1 519.232 2736)">]</text><text font-family="Times New Roman,Times New Roman_MSFontService,sans-serif" font-weight="400" font-size="41" transform="matrix(1 0 0 1 610.669 2736)">58.9</text><text font-family="Times New Roman,Times New Roman_MSFontService,sans-serif" font-weight="400" font-size="41" transform="matrix(1 0 0 1 752.522 2736)">49.4</text><text font-family="Times New Roman,Times New Roman_MSFontService,sans-serif" font-weight="400" font-size="41" transform="matrix(1 0 0 1 922.335 2736)">74.3</text><g clip-path="url(#clip22)"><text font-family="Times New Roman,Times New Roman_MSFontService,sans-serif" font-weight="400" font-size="41" transform="matrix(1 0 0 1 1068.89 2736)">76.2</text></g><g clip-path="url(#clip23)"><text font-family="Times New Roman,Times New Roman_MSFontService,sans-serif" font-weight="400" font-size="41" transform="matrix(1 0 0 1 1190.23 2736)">64.7</text></g><text font-family="Times New Roman,Times New Roman_MSFontService,sans-serif" font-weight="400" font-size="41" transform="matrix(1 0 0 1 350.45 2788)">JiGen</text><text font-family="Times New Roman,Times New Roman_MSFontService,sans-serif" font-weight="400" font-size="41" transform="matrix(1 0 0 1 455.638 2788)">[</text><text fill="#0071BB" font-family="Times New Roman,Times New Roman_MSFontService,sans-serif" font-weight="400" font-size="41" transform="matrix(1 0 0 1 468.242 2788)">2</text><text font-family="Times New Roman,Times New Roman_MSFontService,sans-serif" font-weight="400" font-size="41" transform="matrix(1 0 0 1 487.721 2788)">]</text><text font-family="Times New Roman,Times New Roman_MSFontService,sans-serif" font-weight="400" font-size="41" transform="matrix(1 0 0 1 610.898 2788)">53.0</text><text font-family="Times New Roman,Times New Roman_MSFontService,sans-serif" font-weight="400" font-size="41" transform="matrix(1 0 0 1 752.637 2788)">47.5</text><text font-family="Times New Roman,Times New Roman_MSFontService,sans-serif" font-weight="400" font-size="41" transform="matrix(1 0 0 1 922.335 2788)">71.5</text><g clip-path="url(#clip24)"><text font-family="Times New Roman,Times New Roman_MSFontService,sans-serif" font-weight="400" font-size="41" transform="matrix(1 0 0 1 1069.12 2788)">72.8</text></g><g clip-path="url(#clip25)"><text font-family="Times New Roman,Times New Roman_MSFontService,sans-serif" font-weight="400" font-size="41" transform="matrix(1 0 0 1 1190.23 2788)">61.2</text></g><text font-family="Times New Roman,Times New Roman_MSFontService,sans-serif" font-weight="400" font-size="41" transform="matrix(1 0 0 1 349.304 2838)">RSC</text><text font-family="Times New Roman,Times New Roman_MSFontService,sans-serif" font-weight="400" font-size="41" transform="matrix(1 0 0 1 436.388 2838)">[</text><text fill="#0071BB" font-family="Times New Roman,Times New Roman_MSFontService,sans-serif" font-weight="400" font-size="41" transform="matrix(1 0 0 1 449.221 2838)">23</text><text font-family="Times New Roman,Times New Roman_MSFontService,sans-serif" font-weight="400" font-size="41" transform="matrix(1 0 0 1 488.638 2838)">]</text><text font-family="Times New Roman,Times New Roman_MSFontService,sans-serif" font-weight="400" font-size="41" transform="matrix(1 0 0 1 610.669 2838)">58.4</text><text font-family="Times New Roman,Times New Roman_MSFontService,sans-serif" font-weight="400" font-size="41" transform="matrix(1 0 0 1 752.522 2838)">47.9</text><text font-family="Times New Roman,Times New Roman_MSFontService,sans-serif" font-weight="400" font-size="41" transform="matrix(1 0 0 1 922.335 2838)">71.6</text><g clip-path="url(#clip26)"><text font-family="Times New Roman,Times New Roman_MSFontService,sans-serif" font-weight="400" font-size="41" transform="matrix(1 0 0 1 1069.12 2838)">74.5</text></g><g clip-path="url(#clip27)"><text font-family="Times New Roman,Times New Roman_MSFontService,sans-serif" font-weight="400" font-size="41" transform="matrix(1 0 0 1 1190.23 2838)">63.1</text></g><text font-family="Times New Roman,Times New Roman_MSFontService,sans-serif" font-weight="400" font-size="41" transform="matrix(1 0 0 1 327.763 2889)">SagNet</text><text font-family="Times New Roman,Times New Roman_MSFontService,sans-serif" font-weight="400" font-size="41" transform="matrix(1 0 0 1 457.929 2889)">[</text><text fill="#0071BB" font-family="Times New Roman,Times New Roman_MSFontService,sans-serif" font-weight="400" font-size="41" transform="matrix(1 0 0 1 470.763 2889)">43</text><text font-family="Times New Roman,Times New Roman_MSFontService,sans-serif" font-weight="400" font-size="41" transform="matrix(1 0 0 1 510.179 2889)">]</text><text font-family="Times New Roman,Times New Roman_MSFontService,sans-serif" font-weight="400" font-size="41" text-decoration="underline" transform="matrix(1 0 0 1 610.669 2889)">60.2</text><text font-family="Times New Roman,Times New Roman_MSFontService,sans-serif" font-weight="400" font-size="41" transform="matrix(1 0 0 1 752.522 2889)">45.4</text><text font-family="Times New Roman,Times New Roman_MSFontService,sans-serif" font-weight="400" font-size="41" transform="matrix(1 0 0 1 922.335 2889)">70.4</text><g clip-path="url(#clip28)"><text font-family="Times New Roman,Times New Roman_MSFontService,sans-serif" font-weight="400" font-size="41" transform="matrix(1 0 0 1 1069.35 2889)">73.4</text></g><g clip-path="url(#clip29)"><text font-family="Times New Roman,Times New Roman_MSFontService,sans-serif" font-weight="400" font-size="41" transform="matrix(1 0 0 1 1190.23 2889)">62.4</text></g><text font-family="Courier New,Courier New_MSFontService,sans-serif" font-weight="400" font-size="41" transform="matrix(1 0 0 1 307.023 2941)">COMEN</text><text font-family="Times New Roman,Times New Roman_MSFontService,sans-serif" font-weight="400" font-size="41" transform="matrix(1 0 0 1 438.794 2941)">(Ours)</text><text font-family="Times New Roman,Times New Roman_MSFontService,sans-serif" font-weight="400" font-size="41" transform="matrix(1 0 0 1 610.669 2943)">57.6</text><text font-family="Times New Roman,Times New Roman_MSFontService,sans-serif" font-weight="700" font-size="41" transform="matrix(1 0 0 1 752.522 2943)">55.8</text><text font-family="Times New Roman,Times New Roman_MSFontService,sans-serif" font-weight="700" font-size="41" transform="matrix(1 0 0 1 922.335 2943)">75.5</text><g clip-path="url(#clip30)"><text font-family="Times New Roman,Times New Roman_MSFontService,sans-serif" font-weight="400" font-size="41" text-decoration="underline" transform="matrix(1 0 0 1 1069.12 2943)">76.9</text></g><g clip-path="url(#clip31)"><text font-family="Times New Roman,Times New Roman_MSFontService,sans-serif" font-weight="700" font-size="41" transform="matrix(1 0 0 1 1190.23 2943)">66.5</text></g></g></svg>