<svg width="1137" height="994" xmlns="http://www.w3.org/2000/svg" xmlns:xlink="http://www.w3.org/1999/xlink" xml:space="preserve" overflow="hidden"><defs><clipPath id="clip0"><rect x="1390" y="1006" width="1137" height="994"/></clipPath></defs><g clip-path="url(#clip0)" transform="translate(-1390 -1006)"><path d="M1425 1010 2488.87 1010" stroke="#000000" stroke-width="3.92146" stroke-linejoin="round" stroke-miterlimit="10" fill="none" fill-rule="evenodd"/><path d="M2316.65 1399.03 2488.76 1399.03 2488.76 1451.96 2316.65 1451.96Z" fill="#EAEAEA" fill-rule="evenodd"/><path d="M2316.65 1451.96 2488.76 1451.96 2488.76 1499.63 2316.65 1499.63Z" fill="#D8D8D8" fill-rule="evenodd"/><path d="M2316.65 1592.9 2488.76 1592.9 2488.76 1645.84 2316.65 1645.84Z" fill="#EAEAEA" fill-rule="evenodd"/><path d="M2316.65 1645.84 2488.76 1645.84 2488.76 1693.51 2316.65 1693.51Z" fill="#D8D8D8" fill-rule="evenodd"/><path d="M1510.45 1032.13 1510.45 1750.57" stroke="#000000" stroke-width="2.29167" stroke-linejoin="round" stroke-miterlimit="10" fill="none" fill-rule="evenodd"/><path d="M1955.72 1032.13 1955.72 1750.57" stroke="#000000" stroke-width="2.29167" stroke-linejoin="round" stroke-miterlimit="10" fill="none" fill-rule="evenodd"/><path d="M2316.65 1032.13 2316.65 1750.57" stroke="#000000" stroke-width="2.29167" stroke-linejoin="round" stroke-miterlimit="10" fill="none" fill-rule="evenodd"/><path d="M1509.3 1069.26 2488.76 1069.26" stroke="#000000" stroke-width="2.29167" stroke-linejoin="round" stroke-miterlimit="10" fill="none" fill-rule="evenodd"/><path d="M1509.3 1210.42 2488.76 1210.42" stroke="#000000" stroke-width="2.29167" stroke-linejoin="round" stroke-miterlimit="10" stroke-dasharray="18.3333 6.875" fill="none" fill-rule="evenodd"/><path d="M1425.42 1304.38 2488.76 1304.38" stroke="#000000" stroke-width="2.29167" stroke-linejoin="round" stroke-miterlimit="10" stroke-dasharray="18.3333 6.875" fill="none" fill-rule="evenodd"/><path d="M1509.3 1499.63 2488.76 1499.63" stroke="#000000" stroke-width="2.29167" stroke-linejoin="round" stroke-miterlimit="10" stroke-dasharray="18.3333 6.875" fill="none" fill-rule="evenodd"/><path d="M1509.3 1693.51 2488.76 1693.51" stroke="#000000" stroke-width="2.29167" stroke-linejoin="round" stroke-miterlimit="10" stroke-dasharray="18.3333 6.875" fill="none" fill-rule="evenodd"/><path d="M1425.42 1748.28 2488.76 1748.28" stroke="#000000" stroke-width="4.58333" stroke-linejoin="round" stroke-miterlimit="10" fill="none" fill-rule="evenodd"/><text font-family="Times New Roman,Times New Roman_MSFontService,sans-serif" font-weight="400" font-size="39" transform="matrix(6.12323e-17 -1 1 6.12323e-17 1463.42 1266)">Prior </text><text font-family="Times New Roman,Times New Roman_MSFontService,sans-serif" font-weight="400" font-size="39" transform="matrix(6.12323e-17 -1 1 6.12323e-17 1463.42 1178)">Work</text><text font-family="Times New Roman,Times New Roman_MSFontService,sans-serif" font-weight="700" font-size="39" transform="matrix(1 0 0 1 1534.74 1056)">Method</text><text font-family="Times New Roman,Times New Roman_MSFontService,sans-serif" font-weight="700" font-size="39" transform="matrix(1 0 0 1 2055.8 1056)">Backbone</text><text font-family="Times New Roman,Times New Roman_MSFontService,sans-serif" font-weight="700" font-size="39" transform="matrix(1 0 0 1 2343.01 1056)">mAP%</text><text font-family="Times New Roman,Times New Roman_MSFontService,sans-serif" font-weight="400" font-size="39" transform="matrix(1 0 0 1 1534.74 1147)">Faster</text><text font-family="Times New Roman,Times New Roman_MSFontService,sans-serif" font-weight="400" font-size="39" transform="matrix(1 0 0 1 1627.09 1147)">-</text><text font-family="Times New Roman,Times New Roman_MSFontService,sans-serif" font-weight="400" font-size="39" transform="matrix(1 0 0 1 1639.81 1147)">RCNN</text><text font-family="Times New Roman,Times New Roman_MSFontService,sans-serif" font-weight="400" font-size="39" transform="matrix(1 0 0 1 1758.86 1147)">[</text><text fill="#00FF00" font-family="Times New Roman,Times New Roman_MSFontService,sans-serif" font-weight="400" font-size="39" transform="matrix(1 0 0 1 1771.12 1147)">47</text><text font-family="Times New Roman,Times New Roman_MSFontService,sans-serif" font-weight="400" font-size="39" transform="matrix(1 0 0 1 1808.25 1147)">]</text><text font-family="Times New Roman,Times New Roman_MSFontService,sans-serif" font-weight="400" font-size="39" transform="matrix(1 0 0 1 2014.49 1101)">ResNet101</text><text font-family="Times New Roman,Times New Roman_MSFontService,sans-serif" font-weight="400" font-size="39" transform="matrix(1 0 0 1 2196.22 1101)">[</text><text fill="#00FF00" font-family="Times New Roman,Times New Roman_MSFontService,sans-serif" font-weight="400" font-size="39" transform="matrix(1 0 0 1 2208.48 1101)">21</text><text font-family="Times New Roman,Times New Roman_MSFontService,sans-serif" font-weight="400" font-size="39" transform="matrix(1 0 0 1 2245.6 1101)">]</text><text font-family="Times New Roman,Times New Roman_MSFontService,sans-serif" font-weight="400" font-size="39" transform="matrix(1 0 0 1 1983.04 1148)">ResNeXt101 [</text><text fill="#00FF00" font-family="Times New Roman,Times New Roman_MSFontService,sans-serif" font-weight="400" font-size="39" transform="matrix(1 0 0 1 2206.48 1148)">7</text><text font-family="Times New Roman,Times New Roman_MSFontService,sans-serif" font-weight="400" font-size="39" transform="matrix(1 0 0 1 2225.96 1148)">,</text><text fill="#00FF00" font-family="Times New Roman,Times New Roman_MSFontService,sans-serif" font-weight="400" font-size="39" transform="matrix(1 0 0 1 2240.63 1148)">60</text><text font-family="Times New Roman,Times New Roman_MSFontService,sans-serif" font-weight="400" font-size="39" transform="matrix(1 0 0 1 2277.29 1148)">]</text><text font-family="Times New Roman,Times New Roman_MSFontService,sans-serif" font-weight="400" font-size="39" transform="matrix(1 0 0 1 1984.76 1195)">SE</text><text font-family="Times New Roman,Times New Roman_MSFontService,sans-serif" font-weight="400" font-size="39" transform="matrix(1 0 0 1 2030.6 1195)">-</text><text font-family="Times New Roman,Times New Roman_MSFontService,sans-serif" font-weight="400" font-size="39" transform="matrix(1 0 0 1 2043.77 1195)">ResNet101 </text><text font-family="Times New Roman,Times New Roman_MSFontService,sans-serif" font-weight="400" font-size="39" transform="matrix(1 0 0 1 2225.96 1195)">[</text><text fill="#00FF00" font-family="Times New Roman,Times New Roman_MSFontService,sans-serif" font-weight="400" font-size="39" transform="matrix(1 0 0 1 2238.22 1195)">26</text><text font-family="Times New Roman,Times New Roman_MSFontService,sans-serif" font-weight="400" font-size="39" transform="matrix(1 0 0 1 2275.35 1195)">]</text><text font-family="Times New Roman,Times New Roman_MSFontService,sans-serif" font-weight="400" font-size="39" transform="matrix(1 0 0 1 2368.67 1101)">37.3</text><text font-family="Times New Roman,Times New Roman_MSFontService,sans-serif" font-weight="400" font-size="39" transform="matrix(1 0 0 1 2368.67 1148)">40.1</text><text font-family="Times New Roman,Times New Roman_MSFontService,sans-serif" font-weight="400" font-size="39" transform="matrix(1 0 0 1 2368.67 1195)">41.9</text><text font-family="Times New Roman,Times New Roman_MSFontService,sans-serif" font-weight="400" font-size="39" transform="matrix(1 0 0 1 1534.74 1242)">Faster</text><text font-family="Times New Roman,Times New Roman_MSFontService,sans-serif" font-weight="400" font-size="39" transform="matrix(1 0 0 1 1627.09 1242)">-</text><text font-family="Times New Roman,Times New Roman_MSFontService,sans-serif" font-weight="400" font-size="39" transform="matrix(1 0 0 1 1639.81 1242)">RCNN+DCN</text><text font-family="Times New Roman,Times New Roman_MSFontService,sans-serif" font-weight="400" font-size="39" transform="matrix(1 0 0 1 1862.56 1242)">[</text><text fill="#00FF00" font-family="Times New Roman,Times New Roman_MSFontService,sans-serif" font-weight="400" font-size="39" transform="matrix(1 0 0 1 1874.82 1242)">13</text><text font-family="Times New Roman,Times New Roman_MSFontService,sans-serif" font-weight="400" font-size="39" transform="matrix(1 0 0 1 1911.95 1242)">]</text><text font-family="Times New Roman,Times New Roman_MSFontService,sans-serif" font-weight="400" font-size="39" transform="matrix(1 0 0 1 1534.74 1289)">Cascade</text><text font-family="Times New Roman,Times New Roman_MSFontService,sans-serif" font-weight="400" font-size="39" transform="matrix(1 0 0 1 1663.64 1289)">-</text><text font-family="Times New Roman,Times New Roman_MSFontService,sans-serif" font-weight="400" font-size="39" transform="matrix(1 0 0 1 1676.82 1289)">RCNN </text><text font-family="Times New Roman,Times New Roman_MSFontService,sans-serif" font-weight="400" font-size="39" transform="matrix(1 0 0 1 1794.27 1289)">[</text><text fill="#00FF00" font-family="Times New Roman,Times New Roman_MSFontService,sans-serif" font-weight="400" font-size="39" transform="matrix(1 0 0 1 1806.3 1289)">4</text><text font-family="Times New Roman,Times New Roman_MSFontService,sans-serif" font-weight="400" font-size="39" transform="matrix(1 0 0 1 1824.63 1289)">]</text><text font-family="Times New Roman,Times New Roman_MSFontService,sans-serif" font-weight="400" font-size="39" transform="matrix(1 0 0 1 2023.89 1242)">ResNet101 </text><text font-family="Times New Roman,Times New Roman_MSFontService,sans-serif" font-weight="400" font-size="39" transform="matrix(1 0 0 1 2206.08 1242)">[</text><text fill="#00FF00" font-family="Times New Roman,Times New Roman_MSFontService,sans-serif" font-weight="400" font-size="39" transform="matrix(1 0 0 1 2218.11 1242)">7</text><text font-family="Times New Roman,Times New Roman_MSFontService,sans-serif" font-weight="400" font-size="39" transform="matrix(1 0 0 1 2236.45 1242)">]</text><text font-family="Times New Roman,Times New Roman_MSFontService,sans-serif" font-weight="400" font-size="39" transform="matrix(1 0 0 1 2052.04 1289)">ResNet101</text><text font-family="Times New Roman,Times New Roman_MSFontService,sans-serif" font-weight="400" font-size="39" transform="matrix(1 0 0 1 2368.67 1242)">42.1</text><text font-family="Times New Roman,Times New Roman_MSFontService,sans-serif" font-weight="400" font-size="39" transform="matrix(1 0 0 1 2368.67 1289)">42.8</text><text font-family="Times New Roman,Times New Roman_MSFontService,sans-serif" font-weight="400" font-size="39" transform="matrix(6.12323e-17 -1 1 6.12323e-17 1463.42 1614)">Our </text><text font-family="Times New Roman,Times New Roman_MSFontService,sans-serif" font-weight="400" font-size="39" transform="matrix(6.12323e-17 -1 1 6.12323e-17 1463.42 1544)">Results</text><text font-family="Times New Roman,Times New Roman_MSFontService,sans-serif" font-weight="400" font-size="39" transform="matrix(1 0 0 1 2024.24 1336)">ResNet50</text><text font-family="Times New Roman,Times New Roman_MSFontService,sans-serif" font-weight="400" font-size="39" transform="matrix(1 0 0 1 2186.49 1336)">[</text><text fill="#00FF00" font-family="Times New Roman,Times New Roman_MSFontService,sans-serif" font-weight="400" font-size="39" transform="matrix(1 0 0 1 2198.75 1336)">58</text><text font-family="Times New Roman,Times New Roman_MSFontService,sans-serif" font-weight="400" font-size="39" transform="matrix(1 0 0 1 2235.87 1336)">]</text><text font-family="Times New Roman,Times New Roman_MSFontService,sans-serif" font-weight="400" font-size="39" transform="matrix(1 0 0 1 2360.37 1336)">39.25</text><text font-family="Times New Roman,Times New Roman_MSFontService,sans-serif" font-weight="400" font-size="39" transform="matrix(1 0 0 1 1534.74 1407)">Faster</text><text font-family="Times New Roman,Times New Roman_MSFontService,sans-serif" font-weight="400" font-size="39" transform="matrix(1 0 0 1 1627.09 1407)">-</text><text font-family="Times New Roman,Times New Roman_MSFontService,sans-serif" font-weight="400" font-size="39" transform="matrix(1 0 0 1 1639.81 1407)">RCNN</text><text font-family="Times New Roman,Times New Roman_MSFontService,sans-serif" font-weight="400" font-size="39" transform="matrix(1 0 0 1 1758.86 1407)">[</text><text fill="#00FF00" font-family="Times New Roman,Times New Roman_MSFontService,sans-serif" font-weight="400" font-size="39" transform="matrix(1 0 0 1 1771.12 1407)">47</text><text font-family="Times New Roman,Times New Roman_MSFontService,sans-serif" font-weight="400" font-size="39" transform="matrix(1 0 0 1 1808.25 1407)">]</text><text font-family="Times New Roman,Times New Roman_MSFontService,sans-serif" font-weight="400" font-size="39" transform="matrix(1 0 0 1 2011.4 1386)">ResNet101</text><text font-family="Times New Roman,Times New Roman_MSFontService,sans-serif" font-weight="400" font-size="39" transform="matrix(1 0 0 1 2193.13 1386)">[</text><text fill="#00FF00" font-family="Times New Roman,Times New Roman_MSFontService,sans-serif" font-weight="400" font-size="39" transform="matrix(1 0 0 1 2205.39 1386)">58</text><text font-family="Times New Roman,Times New Roman_MSFontService,sans-serif" font-weight="400" font-size="39" transform="matrix(1 0 0 1 2242.52 1386)">]</text><text font-family="Times New Roman,Times New Roman_MSFontService,sans-serif" font-weight="400" font-size="39" transform="matrix(1 0 0 1 1999.49 1432)">ResNeSt50 </text><text font-family="Times New Roman,Times New Roman_MSFontService,sans-serif" font-weight="400" font-size="39" transform="matrix(1 0 0 1 2183.97 1432)">(</text><text fill="#7F0000" font-family="Times New Roman,Times New Roman_MSFontService,sans-serif" font-weight="400" font-size="34" transform="matrix(1 0 0 1 2196.69 1432)">ours</text><text font-family="Times New Roman,Times New Roman_MSFontService,sans-serif" font-weight="400" font-size="39" transform="matrix(1 0 0 1 2253.86 1432)">)</text><text font-family="Times New Roman,Times New Roman_MSFontService,sans-serif" font-weight="400" font-size="39" transform="matrix(1 0 0 1 2360.37 1386)">41.37</text><text font-family="Times New Roman,Times New Roman_MSFontService,sans-serif" font-weight="400" font-size="39" transform="matrix(1 0 0 1 2358.82 1431)">42.33</text><text font-family="Times New Roman,Times New Roman_MSFontService,sans-serif" font-weight="400" font-size="39" transform="matrix(1 0 0 1 1989.63 1480)">ResNeSt101 </text><text font-family="Times New Roman,Times New Roman_MSFontService,sans-serif" font-weight="400" font-size="39" transform="matrix(1 0 0 1 2193.59 1480)">(</text><text fill="#7F0000" font-family="Times New Roman,Times New Roman_MSFontService,sans-serif" font-weight="400" font-size="34" transform="matrix(1 0 0 1 2206.31 1480)">ours</text><text font-family="Times New Roman,Times New Roman_MSFontService,sans-serif" font-weight="400" font-size="39" transform="matrix(1 0 0 1 2263.49 1480)">)</text><text font-family="Times New Roman,Times New Roman_MSFontService,sans-serif" font-weight="700" font-size="39" transform="matrix(1 0 0 1 2360.37 1484)">44.72</text><text font-family="Times New Roman,Times New Roman_MSFontService,sans-serif" font-weight="400" font-size="39" transform="matrix(1 0 0 1 2024.24 1528)">ResNet50</text><text font-family="Times New Roman,Times New Roman_MSFontService,sans-serif" font-weight="400" font-size="39" transform="matrix(1 0 0 1 2186.49 1528)">[</text><text fill="#00FF00" font-family="Times New Roman,Times New Roman_MSFontService,sans-serif" font-weight="400" font-size="39" transform="matrix(1 0 0 1 2198.75 1528)">58</text><text font-family="Times New Roman,Times New Roman_MSFontService,sans-serif" font-weight="400" font-size="39" transform="matrix(1 0 0 1 2235.87 1528)">]</text><text font-family="Times New Roman,Times New Roman_MSFontService,sans-serif" font-weight="400" font-size="39" transform="matrix(1 0 0 1 2360.37 1528)">42.52</text><text font-family="Times New Roman,Times New Roman_MSFontService,sans-serif" font-weight="400" font-size="39" transform="matrix(1 0 0 1 1534.74 1601)">Cascade</text><text font-family="Times New Roman,Times New Roman_MSFontService,sans-serif" font-weight="400" font-size="39" transform="matrix(1 0 0 1 1663.64 1601)">-</text><text font-family="Times New Roman,Times New Roman_MSFontService,sans-serif" font-weight="400" font-size="39" transform="matrix(1 0 0 1 1676.82 1601)">RCNN </text><text font-family="Times New Roman,Times New Roman_MSFontService,sans-serif" font-weight="400" font-size="39" transform="matrix(1 0 0 1 1794.27 1601)">[</text><text fill="#00FF00" font-family="Times New Roman,Times New Roman_MSFontService,sans-serif" font-weight="400" font-size="39" transform="matrix(1 0 0 1 1806.3 1601)">4</text><text font-family="Times New Roman,Times New Roman_MSFontService,sans-serif" font-weight="400" font-size="39" transform="matrix(1 0 0 1 1824.63 1601)">]</text><text font-family="Times New Roman,Times New Roman_MSFontService,sans-serif" font-weight="400" font-size="39" transform="matrix(1 0 0 1 2011.4 1580)">ResNet101</text><text font-family="Times New Roman,Times New Roman_MSFontService,sans-serif" font-weight="400" font-size="39" transform="matrix(1 0 0 1 2193.13 1580)">[</text><text fill="#00FF00" font-family="Times New Roman,Times New Roman_MSFontService,sans-serif" font-weight="400" font-size="39" transform="matrix(1 0 0 1 2205.39 1580)">58</text><text font-family="Times New Roman,Times New Roman_MSFontService,sans-serif" font-weight="400" font-size="39" transform="matrix(1 0 0 1 2242.52 1580)">]</text><text font-family="Times New Roman,Times New Roman_MSFontService,sans-serif" font-weight="400" font-size="39" transform="matrix(1 0 0 1 1999.49 1626)">ResNeSt50 </text><text font-family="Times New Roman,Times New Roman_MSFontService,sans-serif" font-weight="400" font-size="39" transform="matrix(1 0 0 1 2183.97 1626)">(</text><text fill="#7F0000" font-family="Times New Roman,Times New Roman_MSFontService,sans-serif" font-weight="400" font-size="34" transform="matrix(1 0 0 1 2196.69 1626)">ours</text><text font-family="Times New Roman,Times New Roman_MSFontService,sans-serif" font-weight="400" font-size="39" transform="matrix(1 0 0 1 2253.86 1626)">)</text><text font-family="Times New Roman,Times New Roman_MSFontService,sans-serif" font-weight="400" font-size="39" transform="matrix(1 0 0 1 2360.37 1580)">44.03</text><text font-family="Times New Roman,Times New Roman_MSFontService,sans-serif" font-weight="400" font-size="39" transform="matrix(1 0 0 1 2358.82 1625)">45.41</text><text font-family="Times New Roman,Times New Roman_MSFontService,sans-serif" font-weight="400" font-size="39" transform="matrix(1 0 0 1 1989.63 1674)">ResNeSt101 </text><text font-family="Times New Roman,Times New Roman_MSFontService,sans-serif" font-weight="400" font-size="39" transform="matrix(1 0 0 1 2193.59 1674)">(</text><text fill="#7F0000" font-family="Times New Roman,Times New Roman_MSFontService,sans-serif" font-weight="400" font-size="34" transform="matrix(1 0 0 1 2206.31 1674)">ours</text><text font-family="Times New Roman,Times New Roman_MSFontService,sans-serif" font-weight="400" font-size="39" transform="matrix(1 0 0 1 2263.49 1674)">)</text><text font-family="Times New Roman,Times New Roman_MSFontService,sans-serif" font-weight="700" font-size="39" transform="matrix(1 0 0 1 2360.37 1678)">47.50</text><text font-family="Times New Roman,Times New Roman_MSFontService,sans-serif" font-weight="400" font-size="39" transform="matrix(1 0 0 1 1534.74 1725)">Cascade</text><text font-family="Times New Roman,Times New Roman_MSFontService,sans-serif" font-weight="400" font-size="39" transform="matrix(1 0 0 1 1663.64 1725)">-</text><text font-family="Times New Roman,Times New Roman_MSFontService,sans-serif" font-weight="400" font-size="39" transform="matrix(1 0 0 1 1676.82 1725)">RCNN </text><text font-family="Times New Roman,Times New Roman_MSFontService,sans-serif" font-weight="400" font-size="39" transform="matrix(1 0 0 1 1794.27 1725)">[</text><text fill="#00FF00" font-family="Times New Roman,Times New Roman_MSFontService,sans-serif" font-weight="400" font-size="39" transform="matrix(1 0 0 1 1806.3 1725)">4</text><text font-family="Times New Roman,Times New Roman_MSFontService,sans-serif" font-weight="400" font-size="39" transform="matrix(1 0 0 1 1824.63 1725)">]</text><text font-family="Times New Roman,Times New Roman_MSFontService,sans-serif" font-weight="400" font-size="39" transform="matrix(1 0 0 1 1992.9 1725)">ResNeSt200 </text><text font-family="Times New Roman,Times New Roman_MSFontService,sans-serif" font-weight="400" font-size="39" transform="matrix(1 0 0 1 2196.86 1725)">(</text><text fill="#7F0000" font-family="Times New Roman,Times New Roman_MSFontService,sans-serif" font-weight="400" font-size="34" transform="matrix(1 0 0 1 2209.58 1725)">ours</text><text font-family="Times New Roman,Times New Roman_MSFontService,sans-serif" font-weight="400" font-size="39" transform="matrix(1 0 0 1 2266.75 1725)">)</text><text font-family="Times New Roman,Times New Roman_MSFontService,sans-serif" font-weight="400" font-size="39" transform="matrix(1 0 0 1 2360.37 1725)">49.03</text><text font-family="Times New Roman,Times New Roman_MSFontService,sans-serif" font-weight="400" font-size="41" transform="matrix(1 0 0 1 1415.62 1864)">Table</text><text font-family="Times New Roman,Times New Roman_MSFontService,sans-serif" font-weight="400" font-size="41" transform="matrix(1 0 0 1 1527.04 1864)">5</text><text font-family="Times New Roman,Times New Roman_MSFontService,sans-serif" font-weight="400" font-size="41" transform="matrix(1 0 0 1 1547.66 1864)">.</text><text font-family="Times New Roman,Times New Roman_MSFontService,sans-serif" font-weight="400" font-size="41" transform="matrix(1 0 0 1 1588.68 1864)">Object</text><text font-family="Times New Roman,Times New Roman_MSFontService,sans-serif" font-weight="400" font-size="41" transform="matrix(1 0 0 1 1716.17 1864)">detection</text><text font-family="Times New Roman,Times New Roman_MSFontService,sans-serif" font-weight="400" font-size="41" transform="matrix(1 0 0 1 1884.9 1864)">results</text><text font-family="Times New Roman,Times New Roman_MSFontService,sans-serif" font-weight="400" font-size="41" transform="matrix(1 0 0 1 2010.1 1864)">on</text><text font-family="Times New Roman,Times New Roman_MSFontService,sans-serif" font-weight="400" font-size="41" transform="matrix(1 0 0 1 2068.83 1864)">the</text><text font-family="Times New Roman,Times New Roman_MSFontService,sans-serif" font-weight="400" font-size="41" transform="matrix(1 0 0 1 2136.74 1864)">MS</text><text font-family="Times New Roman,Times New Roman_MSFontService,sans-serif" font-weight="400" font-size="41" transform="matrix(1 0 0 1 2195.4 1864)">-</text><text font-family="Times New Roman,Times New Roman_MSFontService,sans-serif" font-weight="400" font-size="41" transform="matrix(1 0 0 1 2208.69 1864)">COCO</text><text font-family="Times New Roman,Times New Roman_MSFontService,sans-serif" font-weight="400" font-size="41" transform="matrix(1 0 0 1 2340.76 1864)">validation</text><text font-family="Times New Roman,Times New Roman_MSFontService,sans-serif" font-weight="400" font-size="41" transform="matrix(1 0 0 1 1415.62 1914)">set</text><text font-family="Times New Roman,Times New Roman_MSFontService,sans-serif" font-weight="400" font-size="41" transform="matrix(1 0 0 1 1461.38 1914)">.</text><text font-family="Times New Roman,Times New Roman_MSFontService,sans-serif" font-weight="400" font-size="41" transform="matrix(1 0 0 1 1487.69 1914)">Both</text><text font-family="Times New Roman,Times New Roman_MSFontService,sans-serif" font-weight="400" font-size="41" transform="matrix(1 0 0 1 1581.63 1914)">Faster</text><text font-family="Times New Roman,Times New Roman_MSFontService,sans-serif" font-weight="400" font-size="41" transform="matrix(1 0 0 1 1679.57 1914)">-</text><text font-family="Times New Roman,Times New Roman_MSFontService,sans-serif" font-weight="400" font-size="41" transform="matrix(1 0 0 1 1692.84 1914)">RCNN</text><text font-family="Times New Roman,Times New Roman_MSFontService,sans-serif" font-weight="400" font-size="41" transform="matrix(1 0 0 1 1821.15 1914)">and</text><text font-family="Times New Roman,Times New Roman_MSFontService,sans-serif" font-weight="400" font-size="41" transform="matrix(1 0 0 1 1894.44 1914)">Cascade</text><text font-family="Times New Roman,Times New Roman_MSFontService,sans-serif" font-weight="400" font-size="41" transform="matrix(1 0 0 1 2028.41 1914)">-</text><text font-family="Times New Roman,Times New Roman_MSFontService,sans-serif" font-weight="400" font-size="41" transform="matrix(1 0 0 1 2041.65 1914)">RCNN</text><text font-family="Times New Roman,Times New Roman_MSFontService,sans-serif" font-weight="400" font-size="41" transform="matrix(1 0 0 1 2169.85 1914)">are</text><text font-family="Times New Roman,Times New Roman_MSFontService,sans-serif" font-weight="400" font-size="41" transform="matrix(1 0 0 1 2233.95 1914)">significantly</text><text font-family="Times New Roman,Times New Roman_MSFontService,sans-serif" font-weight="400" font-size="41" transform="matrix(1 0 0 1 2447.46 1914)">im</text><text font-family="Times New Roman,Times New Roman_MSFontService,sans-serif" font-weight="400" font-size="41" transform="matrix(1 0 0 1 2488.62 1914)">-</text><text font-family="Times New Roman,Times New Roman_MSFontService,sans-serif" font-weight="400" font-size="41" transform="matrix(1 0 0 1 1415.62 1964)">proved</text><text font-family="Times New Roman,Times New Roman_MSFontService,sans-serif" font-weight="400" font-size="41" transform="matrix(1 0 0 1 1536.85 1964)">by</text><text font-family="Times New Roman,Times New Roman_MSFontService,sans-serif" font-weight="400" font-size="41" transform="matrix(1 0 0 1 1587.72 1964)">our</text><text font-family="Times New Roman,Times New Roman_MSFontService,sans-serif" font-weight="400" font-size="41" transform="matrix(1 0 0 1 1652.12 1964)">ResNeSt</text><text font-family="Times New Roman,Times New Roman_MSFontService,sans-serif" font-weight="400" font-size="41" transform="matrix(1 0 0 1 1806.12 1964)">backbone</text><text font-family="Times New Roman,Times New Roman_MSFontService,sans-serif" font-weight="400" font-size="41" transform="matrix(1 0 0 1 1960.58 1964)">.</text></g></svg>