<svg width="1141" height="663" xmlns="http://www.w3.org/2000/svg" xmlns:xlink="http://www.w3.org/1999/xlink" xml:space="preserve" overflow="hidden"><defs><clipPath id="clip0"><rect x="202" y="987" width="1141" height="663"/></clipPath><clipPath id="clip1"><rect x="238" y="1106" width="67" height="306"/></clipPath><clipPath id="clip2"><rect x="304" y="1108" width="393" height="302"/></clipPath><clipPath id="clip3"><rect x="696" y="1125" width="96" height="271"/></clipPath><clipPath id="clip4"><rect x="875" y="1125" width="117" height="271"/></clipPath><clipPath id="clip5"><rect x="875" y="1125" width="117" height="271"/></clipPath><clipPath id="clip6"><rect x="991" y="1125" width="102" height="271"/></clipPath><clipPath id="clip7"><rect x="991" y="1125" width="102" height="271"/></clipPath><clipPath id="clip8"><rect x="1092" y="1125" width="113" height="271"/></clipPath><clipPath id="clip9"><rect x="1092" y="1125" width="113" height="271"/></clipPath><clipPath id="clip10"><rect x="1204" y="1125" width="90" height="271"/></clipPath><clipPath id="clip11"><rect x="1204" y="1125" width="90" height="271"/></clipPath><clipPath id="clip12"><rect x="304" y="724" width="393" height="1320"/></clipPath><clipPath id="clip13"><rect x="304" y="724" width="393" height="1320"/></clipPath><clipPath id="clip14"><rect x="304" y="724" width="393" height="1320"/></clipPath><clipPath id="clip15"><rect x="696" y="749" width="96" height="1271"/></clipPath><clipPath id="clip16"><rect x="696" y="749" width="96" height="1271"/></clipPath><clipPath id="clip17"><rect x="696" y="749" width="96" height="1271"/></clipPath><clipPath id="clip18"><rect x="696" y="749" width="96" height="1271"/></clipPath><clipPath id="clip19"><rect x="791" y="749" width="85" height="1271"/></clipPath><clipPath id="clip20"><rect x="791" y="749" width="85" height="1271"/></clipPath><clipPath id="clip21"><rect x="791" y="749" width="85" height="1271"/></clipPath><clipPath id="clip22"><rect x="791" y="749" width="85" height="1271"/></clipPath><clipPath id="clip23"><rect x="1204" y="749" width="90" height="1271"/></clipPath><clipPath id="clip24"><rect x="1204" y="749" width="90" height="1271"/></clipPath><clipPath id="clip25"><rect x="1204" y="749" width="90" height="1271"/></clipPath><clipPath id="clip26"><rect x="1204" y="749" width="90" height="1271"/></clipPath><clipPath id="clip27"><rect x="304" y="1073" width="393" height="969"/></clipPath><clipPath id="clip28"><rect x="304" y="1073" width="393" height="969"/></clipPath><clipPath id="clip29"><rect x="696" y="1089" width="96" height="938"/></clipPath><clipPath id="clip30"><rect x="696" y="1089" width="96" height="938"/></clipPath><clipPath id="clip31"><rect x="696" y="1089" width="96" height="938"/></clipPath><clipPath id="clip32"><rect x="791" y="1089" width="85" height="938"/></clipPath><clipPath id="clip33"><rect x="791" y="1089" width="85" height="938"/></clipPath><clipPath id="clip34"><rect x="791" y="1089" width="85" height="938"/></clipPath><clipPath id="clip35"><rect x="1204" y="1089" width="90" height="938"/></clipPath><clipPath id="clip36"><rect x="1204" y="1089" width="90" height="938"/></clipPath><clipPath id="clip37"><rect x="1204" y="1089" width="90" height="938"/></clipPath></defs><g clip-path="url(#clip0)" transform="translate(-202 -987)"><text font-family="Times New Roman,Times New Roman_MSFontService,sans-serif" font-weight="400" font-size="46" transform="matrix(1 0 0 1 229.68 1046)">Table</text><text font-family="Times New Roman,Times New Roman_MSFontService,sans-serif" font-weight="400" font-size="46" transform="matrix(1 0 0 1 346.693 1046)">3</text><text font-family="Times New Roman,Times New Roman_MSFontService,sans-serif" font-weight="400" font-size="46" transform="matrix(1 0 0 1 369.38 1046)">:</text><text font-family="Times New Roman,Times New Roman_MSFontService,sans-serif" font-weight="400" font-size="46" transform="matrix(1 0 0 1 406.047 1046)">Ablative</text><text font-family="Times New Roman,Times New Roman_MSFontService,sans-serif" font-weight="400" font-size="46" transform="matrix(1 0 0 1 578.426 1046)">analysis</text><text font-family="Times New Roman,Times New Roman_MSFontService,sans-serif" font-weight="400" font-size="46" transform="matrix(1 0 0 1 742.326 1046)">on</text><text font-family="Times New Roman,Times New Roman_MSFontService,sans-serif" font-weight="400" font-size="46" transform="matrix(1 0 0 1 805.622 1046)">VOC</text><text font-family="Times New Roman,Times New Roman_MSFontService,sans-serif" font-weight="400" font-size="46" transform="matrix(1 0 0 1 916.928 1046)">2007</text><text font-family="Times New Roman,Times New Roman_MSFontService,sans-serif" font-weight="400" font-size="46" transform="matrix(1 0 0 1 1025.6 1046)">test</text><text font-family="Times New Roman,Times New Roman_MSFontService,sans-serif" font-weight="400" font-size="46" transform="matrix(1 0 0 1 1106.2 1046)">and</text><text font-family="Times New Roman,Times New Roman_MSFontService,sans-serif" font-weight="400" font-size="46" transform="matrix(1 0 0 1 1189.89 1046)">COCO</text><text font-family="Times New Roman,Times New Roman_MSFontService,sans-serif" font-weight="400" font-size="46" transform="matrix(1 0 0 1 229.68 1101)">2014</text><text font-family="Times New Roman,Times New Roman_MSFontService,sans-serif" font-weight="400" font-size="46" transform="matrix(1 0 0 1 342.132 1101)">minival</text><text font-family="Times New Roman,Times New Roman_MSFontService,sans-serif" font-weight="400" font-size="46" transform="matrix(1 0 0 1 477.111 1101)">.</text><text font-family="Times New Roman,Times New Roman_MSFontService,sans-serif" font-weight="400" font-size="46" transform="matrix(1 0 0 1 526.841 1101)">All</text><text font-family="Times New Roman,Times New Roman_MSFontService,sans-serif" font-weight="400" font-size="46" transform="matrix(1 0 0 1 606.293 1101)">approaches</text><text font-family="Times New Roman,Times New Roman_MSFontService,sans-serif" font-weight="400" font-size="46" transform="matrix(1 0 0 1 833.099 1101)">constrained</text><text font-family="Times New Roman,Times New Roman_MSFontService,sans-serif" font-weight="400" font-size="46" transform="matrix(1 0 0 1 1064.26 1101)">by</text><text font-family="Times New Roman,Times New Roman_MSFontService,sans-serif" font-weight="400" font-size="46" transform="matrix(1 0 0 1 1131.34 1101)">detections</text><text font-family="Bookman Old Style,Bookman Old Style_MSFontService,sans-serif" font-style="italic" font-weight="300" font-size="46" transform="matrix(1 0 0 1 229.68 1152)">N</text><text font-family="Euclid,Euclid_MSFontService,sans-serif" font-weight="400" font-size="46" transform="matrix(1 0 0 1 279.73 1152)">=</text><text font-family="Euclid,Euclid_MSFontService,sans-serif" font-weight="400" font-size="46" transform="matrix(1 0 0 1 314.724 1152)">5</text><text font-family="Times New Roman,Times New Roman_MSFontService,sans-serif" font-weight="400" font-size="46" transform="matrix(1 0 0 1 337.114 1152)">/</text><text font-family="Euclid,Euclid_MSFontService,sans-serif" font-weight="400" font-size="46" transform="matrix(1 0 0 1 349.191 1152)">10</text><text font-family="Times New Roman,Times New Roman_MSFontService,sans-serif" font-weight="400" font-size="46" transform="matrix(1 0 0 1 393.97 1152)">.</text><text font-family="Times New Roman,Times New Roman_MSFontService,sans-serif" font-weight="400" font-size="46" transform="matrix(1 0 0 1 422.02 1152)">mAP</text><text font-family="Times New Roman,Times New Roman_MSFontService,sans-serif" font-weight="400" font-size="46" transform="matrix(1 0 0 1 527.849 1152)">is</text><text font-family="Times New Roman,Times New Roman_MSFontService,sans-serif" font-weight="400" font-size="46" transform="matrix(1 0 0 1 571.07 1152)">used</text><text font-family="Times New Roman,Times New Roman_MSFontService,sans-serif" font-weight="400" font-size="46" transform="matrix(1 0 0 1 667.549 1152)">to</text><text font-family="Times New Roman,Times New Roman_MSFontService,sans-serif" font-weight="400" font-size="46" transform="matrix(1 0 0 1 715.926 1152)">evaluate</text><text font-family="Times New Roman,Times New Roman_MSFontService,sans-serif" font-weight="400" font-size="46" transform="matrix(1 0 0 1 876.893 1152)">VOC,</text><text font-family="Times New Roman,Times New Roman_MSFontService,sans-serif" font-weight="400" font-size="46" transform="matrix(1 0 0 1 994.707 1152)">AP</text><text font-family="Times New Roman,Times New Roman_MSFontService,sans-serif" font-weight="400" font-size="46" transform="matrix(1 0 0 1 1065.57 1152)">and</text><text font-family="Times New Roman,Times New Roman_MSFontService,sans-serif" font-weight="400" font-size="46" transform="matrix(1 0 0 1 1144.61 1152)">AR</text><text font-family="Times New Roman,Times New Roman_MSFontService,sans-serif" font-weight="400" font-size="46" transform="matrix(1 0 0 1 1220.62 1152)">num</text><text font-family="Times New Roman,Times New Roman_MSFontService,sans-serif" font-weight="400" font-size="46" transform="matrix(1 0 0 1 1300.32 1152)">-</text><text font-family="Times New Roman,Times New Roman_MSFontService,sans-serif" font-weight="400" font-size="46" transform="matrix(1 0 0 1 229.68 1211)">bers</text><text font-family="Times New Roman,Times New Roman_MSFontService,sans-serif" font-weight="400" font-size="46" transform="matrix(1 0 0 1 316.764 1211)">are</text><text font-family="Times New Roman,Times New Roman_MSFontService,sans-serif" font-weight="400" font-size="46" transform="matrix(1 0 0 1 384.024 1211)">from</text><text font-family="Times New Roman,Times New Roman_MSFontService,sans-serif" font-weight="400" font-size="46" transform="matrix(1 0 0 1 483.711 1211)">COCO</text><text font-family="Times New Roman,Times New Roman_MSFontService,sans-serif" font-weight="400" font-size="46" transform="matrix(1 0 0 1 609.066 1211)">.</text><path d="M304.403 1235.07 304.403 1640.24" stroke="#7F7F7F" stroke-width="2.29167" stroke-linejoin="round" stroke-miterlimit="10" fill="none" fill-rule="evenodd"/><path d="M696.736 1235.07 696.736 1640.24" stroke="#7F7F7F" stroke-width="2.29167" stroke-linejoin="round" stroke-miterlimit="10" fill="none" fill-rule="evenodd"/><path d="M791.382 1235.07 791.382 1640.24" stroke="#7F7F7F" stroke-width="2.29167" stroke-linejoin="round" stroke-miterlimit="10" fill="none" fill-rule="evenodd"/><path d="M875.944 1235.07 875.944 1640.24" stroke="#7F7F7F" stroke-width="2.29167" stroke-linejoin="round" stroke-miterlimit="10" fill="none" fill-rule="evenodd"/><path d="M238.861 1289.84 1293.94 1289.84" stroke="#000000" stroke-width="4.58333" stroke-linejoin="round" stroke-miterlimit="10" fill="none" fill-rule="evenodd"/><path d="M238.861 1488.3 1293.94 1488.3" stroke="#000000" stroke-width="2.29167" stroke-linejoin="round" stroke-miterlimit="10" fill="none" fill-rule="evenodd"/><path d="M238.861 1237.36 1293.94 1237.36" stroke="#000000" stroke-width="4.58333" stroke-linejoin="round" stroke-miterlimit="10" fill="none" fill-rule="evenodd"/><path d="M238.861 1637.95 1293.94 1637.95" stroke="#000000" stroke-width="4.58333" stroke-linejoin="round" stroke-miterlimit="10" fill="none" fill-rule="evenodd"/><g clip-path="url(#clip1)"><text font-family="Bookman Old Style,Bookman Old Style_MSFontService,sans-serif" font-style="italic" font-weight="300" font-size="37" transform="matrix(1 0 0 1 248.028 1271)">N</text></g><g clip-path="url(#clip2)"><text font-family="Times New Roman,Times New Roman_MSFontService,sans-serif" font-weight="400" font-size="37" transform="matrix(1 0 0 1 317.465 1271)">Method</text></g><g clip-path="url(#clip3)"><text font-family="Times New Roman,Times New Roman_MSFontService,sans-serif" font-weight="400" font-size="32" transform="matrix(1 0 0 1 709.799 1272)">mAP</text></g><text font-family="Times New Roman,Times New Roman_MSFontService,sans-serif" font-weight="400" font-size="32" transform="matrix(1 0 0 1 812.236 1272)">AP</text><g clip-path="url(#clip4)"><text font-family="Times New Roman,Times New Roman_MSFontService,sans-serif" font-weight="400" font-size="32" transform="matrix(1 0 0 1 889.006 1272)">AR</text></g><text font-family="Times New Roman,Times New Roman_MSFontService,sans-serif" font-weight="400" font-size="32" transform="matrix(1 0 0 1 933.121 1272)">-</text><g clip-path="url(#clip5)"><text font-family="Times New Roman,Times New Roman_MSFontService,sans-serif" font-weight="400" font-size="32" transform="matrix(1 0 0 1 944.006 1272)">10</text></g><g clip-path="url(#clip6)"><text font-family="Times New Roman,Times New Roman_MSFontService,sans-serif" font-weight="400" font-size="32" transform="matrix(1 0 0 1 1004.28 1272)">AR</text></g><text font-family="Times New Roman,Times New Roman_MSFontService,sans-serif" font-weight="400" font-size="32" transform="matrix(1 0 0 1 1048.39 1272)">-</text><g clip-path="url(#clip7)"><text font-family="Times New Roman,Times New Roman_MSFontService,sans-serif" font-weight="400" font-size="32" transform="matrix(1 0 0 1 1059.28 1272)">S</text></g><g clip-path="url(#clip8)"><text font-family="Times New Roman,Times New Roman_MSFontService,sans-serif" font-weight="400" font-size="32" transform="matrix(1 0 0 1 1104.88 1272)">AR</text></g><text font-family="Times New Roman,Times New Roman_MSFontService,sans-serif" font-weight="400" font-size="32" transform="matrix(1 0 0 1 1149 1272)">-</text><g clip-path="url(#clip9)"><text font-family="Times New Roman,Times New Roman_MSFontService,sans-serif" font-weight="400" font-size="32" transform="matrix(1 0 0 1 1159.88 1272)">M</text></g><g clip-path="url(#clip10)"><text font-family="Times New Roman,Times New Roman_MSFontService,sans-serif" font-weight="400" font-size="32" transform="matrix(1 0 0 1 1216.48 1272)">AR</text></g><text font-family="Times New Roman,Times New Roman_MSFontService,sans-serif" font-weight="400" font-size="32" transform="matrix(1 0 0 1 1260.6 1272)">-</text><g clip-path="url(#clip11)"><text font-family="Times New Roman,Times New Roman_MSFontService,sans-serif" font-weight="400" font-size="32" transform="matrix(1 0 0 1 1271.48 1272)">L</text></g><text font-family="Book Antiqua,Book Antiqua_MSFontService,sans-serif" font-style="italic" font-weight="400" font-size="30" transform="matrix(6.12323e-17 -1 1 6.12323e-17 265.857 1423)">N</text><text font-family="Garamond,Garamond_MSFontService,sans-serif" font-weight="400" font-size="30" transform="matrix(6.12323e-17 -1 1 6.12323e-17 265.857 1396)">=5</text><g clip-path="url(#clip12)"><text font-family="Times New Roman,Times New Roman_MSFontService,sans-serif" font-weight="400" font-size="37" transform="matrix(1 0 0 1 317.465 1324)">Baseline (FR</text></g><text font-family="Times New Roman,Times New Roman_MSFontService,sans-serif" font-weight="400" font-size="37" transform="matrix(1 0 0 1 509.965 1324)">-</text><text font-family="Times New Roman,Times New Roman_MSFontService,sans-serif" font-weight="400" font-size="37" transform="matrix(1 0 0 1 521.997 1324)">CNN)</text><g clip-path="url(#clip13)"><text font-family="Times New Roman,Times New Roman_MSFontService,sans-serif" font-weight="400" font-size="37" transform="matrix(1 0 0 1 317.465 1376)">SMN </text></g><text font-family="Times New Roman,Times New Roman_MSFontService,sans-serif" font-weight="400" font-size="37" transform="matrix(1 0 0 1 406.268 1376)">Base</text><text font-family="Euclid,Euclid_MSFontService,sans-serif" font-weight="400" font-size="37" transform="matrix(1 0 0 1 372.465 1420)">+</text><text font-family="Times New Roman,Times New Roman_MSFontService,sans-serif" font-weight="400" font-size="37" transform="matrix(1 0 0 1 409.934 1420)">Sample </text><text font-family="Times New Roman,Times New Roman_MSFontService,sans-serif" font-weight="400" font-size="37" transform="matrix(1 0 0 1 529.101 1420)">Flipped</text><g clip-path="url(#clip14)"><text font-family="Times New Roman,Times New Roman_MSFontService,sans-serif" font-weight="400" font-size="37" transform="matrix(1 0 0 1 317.465 1470)">SMN </text></g><text font-family="Times New Roman,Times New Roman_MSFontService,sans-serif" font-weight="400" font-size="37" transform="matrix(1 0 0 1 406.268 1470)">Full</text><g clip-path="url(#clip15)"><text font-family="Times New Roman,Times New Roman_MSFontService,sans-serif" font-weight="400" font-size="32" transform="matrix(1 0 0 1 714.84 1325)">65.8</text></g><g clip-path="url(#clip16)"><text font-family="Times New Roman,Times New Roman_MSFontService,sans-serif" font-weight="400" font-size="32" transform="matrix(1 0 0 1 714.84 1373)">63.6</text></g><g clip-path="url(#clip17)"><text font-family="Times New Roman,Times New Roman_MSFontService,sans-serif" font-weight="400" font-size="32" transform="matrix(1 0 0 1 714.84 1420)">64.4</text></g><g clip-path="url(#clip18)"><text font-family="Times New Roman,Times New Roman_MSFontService,sans-serif" font-weight="400" font-size="32" transform="matrix(1 0 0 1 714.84 1468)">64.6</text></g><g clip-path="url(#clip19)"><text font-family="Times New Roman,Times New Roman_MSFontService,sans-serif" font-weight="400" font-size="32" transform="matrix(1 0 0 1 804.444 1325)">23.6</text></g><g clip-path="url(#clip20)"><text font-family="Times New Roman,Times New Roman_MSFontService,sans-serif" font-weight="400" font-size="32" transform="matrix(1 0 0 1 804.444 1373)">23.3</text></g><g clip-path="url(#clip21)"><text font-family="Times New Roman,Times New Roman_MSFontService,sans-serif" font-weight="400" font-size="32" transform="matrix(1 0 0 1 804.444 1420)">23.5</text></g><g clip-path="url(#clip22)"><text font-family="Times New Roman,Times New Roman_MSFontService,sans-serif" font-weight="400" font-size="32" transform="matrix(1 0 0 1 804.444 1468)">23.8</text></g><text font-family="Times New Roman,Times New Roman_MSFontService,sans-serif" font-weight="400" font-size="32" transform="matrix(1 0 0 1 905.048 1325)">27.6</text><text font-family="Times New Roman,Times New Roman_MSFontService,sans-serif" font-weight="400" font-size="32" transform="matrix(1 0 0 1 905.048 1373)">27.2</text><text font-family="Times New Roman,Times New Roman_MSFontService,sans-serif" font-weight="400" font-size="32" transform="matrix(1 0 0 1 905.048 1420)">27.2</text><text font-family="Times New Roman,Times New Roman_MSFontService,sans-serif" font-weight="400" font-size="32" transform="matrix(1 0 0 1 905.048 1468)">27.7</text><text font-family="Times New Roman,Times New Roman_MSFontService,sans-serif" font-weight="400" font-size="32" transform="matrix(1 0 0 1 1021.24 1325)">7.0</text><text font-family="Times New Roman,Times New Roman_MSFontService,sans-serif" font-weight="400" font-size="32" transform="matrix(1 0 0 1 1021.24 1373)">6.7</text><text font-family="Times New Roman,Times New Roman_MSFontService,sans-serif" font-weight="400" font-size="32" transform="matrix(1 0 0 1 1021.24 1420)">6.9</text><text font-family="Times New Roman,Times New Roman_MSFontService,sans-serif" font-weight="400" font-size="32" transform="matrix(1 0 0 1 1021.24 1468)">6.9</text><text font-family="Times New Roman,Times New Roman_MSFontService,sans-serif" font-weight="400" font-size="32" transform="matrix(1 0 0 1 1119.09 1325)">29.1</text><text font-family="Times New Roman,Times New Roman_MSFontService,sans-serif" font-weight="400" font-size="32" transform="matrix(1 0 0 1 1119.09 1373)">28.0</text><text font-family="Times New Roman,Times New Roman_MSFontService,sans-serif" font-weight="400" font-size="32" transform="matrix(1 0 0 1 1119.09 1420)">28.4</text><text font-family="Times New Roman,Times New Roman_MSFontService,sans-serif" font-weight="400" font-size="32" transform="matrix(1 0 0 1 1119.09 1468)">28.5</text><g clip-path="url(#clip23)"><text font-family="Times New Roman,Times New Roman_MSFontService,sans-serif" font-weight="400" font-size="32" transform="matrix(1 0 0 1 1226.11 1325)">47.4</text></g><g clip-path="url(#clip24)"><text font-family="Times New Roman,Times New Roman_MSFontService,sans-serif" font-weight="400" font-size="32" transform="matrix(1 0 0 1 1226.11 1373)">46.1</text></g><g clip-path="url(#clip25)"><text font-family="Times New Roman,Times New Roman_MSFontService,sans-serif" font-weight="400" font-size="32" transform="matrix(1 0 0 1 1226.11 1420)">46.4</text></g><g clip-path="url(#clip26)"><text font-family="Times New Roman,Times New Roman_MSFontService,sans-serif" font-weight="400" font-size="32" transform="matrix(1 0 0 1 1226.11 1468)">47.4</text></g><text font-family="Book Antiqua,Book Antiqua_MSFontService,sans-serif" font-style="italic" font-weight="400" font-size="30" transform="matrix(6.12323e-17 -1 1 6.12323e-17 265.857 1604)">N</text><text font-family="Garamond,Garamond_MSFontService,sans-serif" font-weight="400" font-size="30" transform="matrix(6.12323e-17 -1 1 6.12323e-17 265.857 1577)">=10</text><g clip-path="url(#clip27)"><text font-family="Times New Roman,Times New Roman_MSFontService,sans-serif" font-weight="400" font-size="37" transform="matrix(1 0 0 1 317.465 1521)">Baseline</text></g><g clip-path="url(#clip28)"><text font-family="Times New Roman,Times New Roman_MSFontService,sans-serif" font-weight="400" font-size="37" transform="matrix(1 0 0 1 317.465 1569)">SMN </text></g><text font-family="Times New Roman,Times New Roman_MSFontService,sans-serif" font-weight="400" font-size="37" transform="matrix(1 0 0 1 406.268 1569)">Full</text><text font-family="Euclid,Euclid_MSFontService,sans-serif" font-weight="400" font-size="37" transform="matrix(1 0 0 1 372.695 1614)">+</text><text font-family="Times New Roman,Times New Roman_MSFontService,sans-serif" font-weight="400" font-size="37" transform="matrix(1 0 0 1 401.34 1614)">Tune</text><text font-family="Times New Roman,Times New Roman_MSFontService,sans-serif" font-weight="400" font-size="37" transform="matrix(1 0 0 1 484.413 1614)">from</text><text font-family="Bookman Old Style,Bookman Old Style_MSFontService,sans-serif" font-style="italic" font-weight="300" font-size="37" transform="matrix(1 0 0 1 563.934 1614)">N</text><text font-family="Euclid,Euclid_MSFontService,sans-serif" font-weight="400" font-size="37" transform="matrix(1 0 0 1 596.82 1614)">=5</text><g clip-path="url(#clip29)"><text font-family="Times New Roman,Times New Roman_MSFontService,sans-serif" font-weight="400" font-size="32" transform="matrix(1 0 0 1 714.84 1522)">70.3</text></g><g clip-path="url(#clip30)"><text font-family="Times New Roman,Times New Roman_MSFontService,sans-serif" font-weight="400" font-size="32" transform="matrix(1 0 0 1 714.84 1570)">67.5</text></g><g clip-path="url(#clip31)"><text font-family="Times New Roman,Times New Roman_MSFontService,sans-serif" font-weight="400" font-size="32" transform="matrix(1 0 0 1 714.84 1617)">67.8</text></g><g clip-path="url(#clip32)"><text font-family="Times New Roman,Times New Roman_MSFontService,sans-serif" font-weight="400" font-size="32" transform="matrix(1 0 0 1 804.444 1522)">26.9</text></g><g clip-path="url(#clip33)"><text font-family="Times New Roman,Times New Roman_MSFontService,sans-serif" font-weight="400" font-size="32" transform="matrix(1 0 0 1 804.444 1570)">26.6</text></g><g clip-path="url(#clip34)"><text font-family="Times New Roman,Times New Roman_MSFontService,sans-serif" font-weight="400" font-size="32" transform="matrix(1 0 0 1 804.444 1617)">27.1</text></g><text font-family="Times New Roman,Times New Roman_MSFontService,sans-serif" font-weight="400" font-size="32" transform="matrix(1 0 0 1 905.048 1522)">33.2</text><text font-family="Times New Roman,Times New Roman_MSFontService,sans-serif" font-weight="400" font-size="32" transform="matrix(1 0 0 1 905.048 1570)">32.6</text><text font-family="Times New Roman,Times New Roman_MSFontService,sans-serif" font-weight="400" font-size="32" transform="matrix(1 0 0 1 905.048 1617)">32.7</text><text font-family="Times New Roman,Times New Roman_MSFontService,sans-serif" font-weight="400" font-size="32" transform="matrix(1 0 0 1 1012.99 1522)">10.9</text><text font-family="Times New Roman,Times New Roman_MSFontService,sans-serif" font-weight="400" font-size="32" transform="matrix(1 0 0 1 1012.99 1570)">10.3</text><text font-family="Times New Roman,Times New Roman_MSFontService,sans-serif" font-weight="400" font-size="32" transform="matrix(1 0 0 1 1012.99 1617)">10.3</text><text font-family="Times New Roman,Times New Roman_MSFontService,sans-serif" font-weight="400" font-size="32" transform="matrix(1 0 0 1 1119.09 1522)">36.6</text><text font-family="Times New Roman,Times New Roman_MSFontService,sans-serif" font-weight="400" font-size="32" transform="matrix(1 0 0 1 1119.09 1570)">35.6</text><text font-family="Times New Roman,Times New Roman_MSFontService,sans-serif" font-weight="400" font-size="32" transform="matrix(1 0 0 1 1119.09 1617)">35.9</text><g clip-path="url(#clip35)"><text font-family="Times New Roman,Times New Roman_MSFontService,sans-serif" font-weight="400" font-size="32" transform="matrix(1 0 0 1 1226.11 1522)">52.7</text></g><g clip-path="url(#clip36)"><text font-family="Times New Roman,Times New Roman_MSFontService,sans-serif" font-weight="400" font-size="32" transform="matrix(1 0 0 1 1226.11 1570)">52.1</text></g><g clip-path="url(#clip37)"><text font-family="Times New Roman,Times New Roman_MSFontService,sans-serif" font-weight="400" font-size="32" transform="matrix(1 0 0 1 1226.11 1617)">52.3</text></g></g></svg>