<svg data-v-2cb57da0="" version="1.0" xmlns="http://www.w3.org/2000/svg" xmlns:xlink="http://www.w3.org/1999/xlink" width="100%" height="100%" viewBox="0 0 340.000000 250.000000" preserveAspectRatio="xMidYMid meet" color-interpolation-filters="sRGB" style="margin: auto;"><rect data-v-2cb57da0="" x="0" y="0" width="100%" height="100%" fill="#0d0821" fill-opacity="1" class="background"></rect> <rect data-v-2cb57da0="" x="0" y="0" width="100%" height="100%" fill="url(#watermark)" fill-opacity="1" class="watermarklayer"></rect> <g data-v-2cb57da0="" fill="#ff51f9" class="icon-text-wrapper icon-svg-group iconsvg" transform="translate(69.72318267822266,91.01904678344727)"><g class="iconsvg-imagesvg" transform="translate(0,3.165895462036133)" mask="url(#e7f49c8f-c550-4a23-9ed5-c537ccd49d0b)"><g><rect fill="#ff51f9" fill-opacity="0" stroke-width="2" x="0" y="0" width="60" height="61.630116583637204" class="image-rect"></rect> <svg filter="url(#colors1089167164)" x="0" y="0" width="60" height="61.630116583637204" filtersec="colorsf8524234837" class="image-svg-svg primary" style="overflow: visible;"><svg xmlns="http://www.w3.org/2000/svg" data-name="Layer 1" viewBox="2.2867772579193115 0.9941233396530151 95.42023468017578 98.01280212402344" x="0px" y="0px"><title>Artboard 28</title><path d="M54.53,36.05a1.5,1.5,0,0,1-1.85,1.05l-10.61-2.9A1.5,1.5,0,0,1,41,32.36l2.9-10.61a1.5,1.5,0,0,1,1.85-1.05A12.52,12.52,0,0,1,54.53,36.05ZM38.59,25.34A.75.75,0,0,0,38,24.4a12.62,12.62,0,1,0,9.38,16.43.75.75,0,0,0-.53-1L36.35,37a.91.91,0,0,1-.64-1.12ZM63.2,32.19l12.36,2.75a3.11,3.11,0,1,0,1.35-6.06L64.55,26.13a3.11,3.11,0,0,0-1.35,6.06Zm-4.88,7.62a3.11,3.11,0,0,0,2.36,3.71L73,46.27a3.11,3.11,0,0,0,1.35-6.06L62,37.46A3.11,3.11,0,0,0,58.32,39.82Zm32.34-23.9-3.34-.74L85.7,8A9,9,0,0,0,74.92,1.22L50,6.88,25,1.33A9,9,0,0,0,14.23,8.17l-1.59,7.16-3.34.76A9,9,0,0,0,2.51,26.86L6.34,43.75,2.58,60.65A9,9,0,0,0,9.42,71.39l3.34.74,1.62,7.15a9,9,0,0,0,10.77,6.79l28.4-6.43a25.66,25.66,0,0,1-1-9.22L12.91,61.62,24,11.66l63.17,14L82.43,47a25.42,25.42,0,0,1,11.44,5,1,1,0,0,0,1.56-1l-1.69-7.44,3.75-16.9A9,9,0,0,0,90.66,15.91ZM22,55a3.11,3.11,0,0,0,2.36,3.71l29.24,6.51a25.65,25.65,0,0,1,2.51-5.8L25.66,52.6A3.11,3.11,0,0,0,22,55Zm26.68-5.7A3.1,3.1,0,0,0,51,53l8.45,1.88c.2-.21.39-.43.59-.64A25.77,25.77,0,0,1,65.56,50a3.07,3.07,0,0,0-.86-.35L52.34,46.91A3.11,3.11,0,0,0,48.63,49.27ZM91.57,59a18.92,18.92,0,0,1,0,26.72h0a18.91,18.91,0,0,1-22.83,3l-8.86,8.86A4.85,4.85,0,0,1,53,90.73l8.85-8.85A18.89,18.89,0,0,1,91.57,59ZM88.51,72.4a10.28,10.28,0,1,0-3,7.29A10.27,10.27,0,0,0,88.51,72.4Z"></path></svg></svg> <defs><filter id="colors1089167164"><feColorMatrix type="matrix" values="0 0 0 0 0.99609375  0 0 0 0 0.31640625  0 0 0 0 0.97265625  0 0 0 1 0" class="icon-fecolormatrix"></feColorMatrix></filter> <filter id="colorsf8524234837"><feColorMatrix type="matrix" values="0 0 0 0 0.99609375  0 0 0 0 0.99609375  0 0 0 0 0.99609375  0 0 0 1 0" class="icon-fecolormatrix"></feColorMatrix></filter> <filter id="colorsb694340244"><feColorMatrix type="matrix" values="0 0 0 0 0  0 0 0 0 0  0 0 0 0 0  0 0 0 1 0" class="icon-fecolormatrix"></feColorMatrix></filter></defs></g><rect v-gra="id" width="72" height="73.6301155090332" transform="translate(-6, -6)" style="pointer-events:none;" fill="url(#NWrt246frSIM_l-K6f3i8)"></rect></g> <g transform="translate(67,0)"><g data-gra="path-name" fill-rule="" class="tp-name iconsvg-namesvg" transform="translate(0,0)" fill="url(#06b038a6-89cc-489b-a843-95ad9f6514af)"><g transform="scale(1)"><g><path d="M5.4-22L5.4-22 5.67-21.87 6.07-21.06Q5.26-17.95 4.86-14.71L4.86-14.71Q4.72-8.1 11.07-7.42L11.07-7.42Q16.74-7.69 17.28-14.44L17.28-14.44Q17.28-17.95 15.66-20.79L15.66-20.79 16.06-21.6Q16.47-21.73 16.6-21.73L16.6-21.73Q19.44-21.19 20.38-12.55L20.38-12.55Q19.57-0.67 11.07-0.13L11.07-0.13Q2.7-0.81 1.75-12.55L1.75-12.55Q2.29-20.79 5.4-22ZM40.63-11.47L40.63-11.47 39.96-12.01 39.42-11.74Q38.88-10.93 38.07-9.58L38.07-9.58Q36.18-7.15 35.77-4.72L35.77-4.72 35.77-4.32Q35.37-3.91 34.96-3.91L34.96-3.91 34.56-4.05Q34.15-4.59 32.53-6.75L32.53-6.75Q29.43-11.2 28.62-11.34L28.62-11.34 28.35-11.34Q27.54-10.66 26.59-6.07L26.59-6.07Q25.24 0.54 23.49 0.54L23.49 0.54Q23.35 0.54 23.08 0.4L23.08 0.4Q22.81 0.4 22.81 0.4L22.81 0.4Q22.14 0 22.14-0.4L22.14-0.4Q22.14-3.51 24.84-9.85L24.84-9.85Q27.54-16.2 27.54-19.3L27.54-19.3Q27.54-19.44 27.4-19.98L27.4-19.98Q27.13-20.52 27.13-20.79L27.13-20.79Q27.13-20.79 27.27-21.06L27.27-21.06Q27.4-21.46 27.4-21.6L27.4-21.6 28.21-21.87Q29.97-21.46 33.75-15.79L33.75-15.79Q34.56-14.44 34.83-14.17L34.83-14.17Q38.88-21.73 40.36-21.87L40.36-21.87Q41.58-21.73 41.71-20.65L41.71-20.65Q41.71-20.38 41.58-19.84L41.58-19.84Q41.31-19.17 41.31-18.9L41.31-18.9Q41.31-15.93 43.87-9.85L43.87-9.85Q46.44-3.64 46.44-0.54L46.44-0.54Q46.44 0 46.03 0.27L46.03 0.27Q45.76 0.4 45.22 0.54L45.22 0.54Q43.2 0.54 43.2-1.62L43.2-1.62Q43.2-1.75 43.2-1.89L43.2-1.89Q43.2-3.64 41.71-7.69L41.71-7.69Q40.9-10.39 40.63-11.47ZM55.89-5.8L55.89-5.8 56.02-5.53 56.29-5.26 56.97-5.26Q57.91-4.72 61.96-5.13L61.96-5.13Q63.31-5.4 65.07-5.94L65.07-5.94Q65.61-6.21 65.88-6.21L65.88-6.21Q67.9-6.75 67.63-5.13L67.63-5.13Q67.5-4.32 67.23-3.51L67.23-3.51Q66.96-2.97 67.36-2.29L67.36-2.29Q67.77-1.75 67.77-1.35L67.77-1.35Q66.96 0.54 59.4 0.4L59.4 0.4Q58.05 0.4 54.81 0.13L54.81 0.13Q51.57 0 50.35 0L50.35 0Q49.54 0 48.73 0.27L48.73 0.27Q48.06 0.54 47.65 0.54L47.65 0.54 47.11 0.4 46.98 0Q47.11-0.13 53.19-6.75L53.19-6.75Q55.21-9.04 55.48-9.31L55.48-9.31Q61.29-14.98 61.42-15.93L61.42-15.93Q61.42-16.2 61.15-16.33L61.15-16.33Q61.02-16.47 61.02-16.47L61.02-16.47 60.48-16.6Q60.48-16.6 59.94-16.47L59.94-16.47Q55.89-15.79 54.54-15.79L54.54-15.79Q49.68-15.79 49.95-18.76L49.95-18.76Q49.54-20.92 52.92-20.52L52.92-20.52Q58.59-20.11 65.47-20.52L65.47-20.52Q66.15-20.52 67.09-20.92L67.09-20.92Q67.77-21.19 68.17-21.19L68.17-21.19 68.44-21.06 68.58-20.79Q68.31-20.25 57.64-8.5L57.64-8.5Q56.29-7.02 55.89-5.8ZM80.73-7.29L80.73-7.29 75.06-7.29Q72.36-7.29 72.22-2.97L72.22-2.97Q72.09 0.54 70.2 0.54L70.2 0.54Q68.71 0.54 68.71-1.08L68.71-1.08Q68.71-5.26 69.93-14.44L69.93-14.44Q70.47-18.36 70.74-20.25L70.74-20.25Q71.14-22 72.49-22.14L72.49-22.14Q72.63-22.14 73.03-22.14L73.03-22.14Q73.3-22 73.44-22L73.44-22 73.98-21.46Q73.98-21.33 74.11-21.19L74.11-21.19Q74.11-20.92 74.11-20.79L74.11-20.79Q73.98-18.22 73.3-13.23L73.3-13.23 82.35-13.23Q82.35-13.9 81.94-16.06L81.94-16.06Q81.4-19.71 81.4-20.65L81.4-20.65Q81.4-20.92 81.67-21.46L81.67-21.46 82.21-22Q82.35-22 82.62-22.14L82.62-22.14Q82.89-22.14 83.02-22.14L83.02-22.14Q84.51-22 84.91-20.25L84.91-20.25Q85.05-18.09 85.59-13.77L85.59-13.77Q86.67-5.13 86.67-0.81L86.67-0.81Q86.8 0.54 85.18 0.54L85.18 0.54Q83.29 0.54 83.29-2.97L83.29-2.97Q83.43-7.29 80.73-7.29ZM107.32 0.81L107.32 0.81 106.38 0.54Q105.7-0.13 105.43-2.02L105.43-2.02Q105.16-4.99 102.06-4.86L102.06-4.86 95.44-4.86Q91.93-4.86 91.12-1.21L91.12-1.21Q90.72 0.81 89.37 0.81L89.37 0.81Q88.96 0.81 88.29 0.4L88.29 0.4Q88.29 0.27 88.02 0L88.02 0Q88.02-1.48 90.72-10.66L90.72-10.66Q91.8-14.44 92.07-15.39L92.07-15.39Q93.28-22 98.55-21.6L98.55-21.6Q103.14-21.73 104.49-16.06L104.49-16.06Q104.62-15.52 105.43-12.55L105.43-12.55Q108.81-1.21 108.81-0.27L108.81-0.27Q108.81-0.13 108.67 0L108.67 0Q108.54 0.27 108.54 0.27L108.54 0.27Q108 0.94 107.32 0.81ZM93.69-9.58L103.27-9.58 103.27-10.26Q101.92-15.52 98.55-15.25L98.55-15.25Q94.9-15.25 93.69-9.58L93.69-9.58ZM128.92 0.81L128.92 0.81 127.98 0.54Q127.3-0.13 127.03-2.02L127.03-2.02Q126.76-4.99 123.66-4.86L123.66-4.86 117.04-4.86Q113.53-4.86 112.72-1.21L112.72-1.21Q112.32 0.81 110.97 0.81L110.97 0.81Q110.56 0.81 109.89 0.4L109.89 0.4Q109.89 0.27 109.62 0L109.62 0Q109.62-1.48 112.32-10.66L112.32-10.66Q113.4-14.44 113.67-15.39L113.67-15.39Q114.88-22 120.15-21.6L120.15-21.6Q124.74-21.73 126.09-16.06L126.09-16.06Q126.22-15.52 127.03-12.55L127.03-12.55Q130.4-1.21 130.4-0.27L130.4-0.27Q130.4-0.13 130.27 0L130.27 0Q130.13 0.27 130.13 0.27L130.13 0.27Q129.6 0.94 128.92 0.81ZM115.29-9.58L124.87-9.58 124.87-10.26Q123.52-15.52 120.15-15.25L120.15-15.25Q116.5-15.25 115.29-9.58L115.29-9.58Z" transform="translate(-1.75, 22.139999389648438)"></path></g> <!----> <!----> <!----> <!----> <!----> <!----> <g data-gra="path-name-1" fill="url(#7fbe5422-a2a9-448c-8099-c9ea64dab959)" transform="translate(0,25.97112464904785)"><g transform="scale(1.02821)"><path d="M7.36-7.49L7.36-7.49Q8-13.2 11.04-13.71L11.04-13.71Q12.57-13.96 13.2-12.95L13.2-12.95Q13.58-12.44 14.09-12.7L14.09-12.7Q15.11-13.08 16-13.2L16-13.2Q16.76-13.46 16.88-14.22L16.88-14.22Q16.88-14.47 17.01-14.98L17.01-14.98Q17.01-15.36 17.14-15.87L17.14-15.87Q17.52-17.52 18.54-17.52L18.54-17.52Q19.55-17.52 19.55-16L19.55-16Q19.55-15.49 19.55-14.73L19.55-14.73Q19.93-13.96 20.44-14.09L20.44-14.09Q20.69-14.09 21.07-14.22L21.07-14.22Q21.71-14.35 22.22-14.35L22.22-14.35Q23.11-14.6 22.98-15.62L22.98-15.62Q22.47-18.54 19.04-18.54L19.04-18.54Q15.87-18.41 15.74-19.17L15.74-19.17Q15.23-20.31 17.39-21.84L17.39-21.84Q20.69-23.99 25.77-23.74L25.77-23.74Q28.31-23.36 28.95-22.22L28.95-22.22Q29.71-21.07 28.31-19.55L28.31-19.55Q26.53-17.39 26.15-16L26.15-16Q25.77-14.85 26.66-14.73L26.66-14.73Q30.34-14.73 30.47-12.44L30.47-12.44Q30.09-9.39 26.28-9.39L26.28-9.39Q25.39-9.52 25.26-8.63L25.26-8.63Q25.26-6.98 25.26-4.82L25.26-4.82Q25.26-3.43 26.15 0.63L26.15 0.63Q26.15 0.76 26.15 0.89L26.15 0.89Q26.79 3.43 25.26 3.68L25.26 3.68Q23.74 3.81 23.49 1.27L23.49 1.27Q23.49-4.32 23.49-9.01L23.49-9.01Q23.23-9.9 22.6-9.9L22.6-9.9Q22.22-9.9 21.58-10.03L21.58-10.03Q20.95-10.03 20.69-10.03L20.69-10.03Q20.06-10.03 20.06-9.27L20.06-9.27Q20.06-9.01 20.19-8.51L20.19-8.51Q20.19-7.87 20.31-7.62L20.31-7.62Q20.82-4.57 18.79-4.32L18.79-4.32Q17.27-4.06 16.88-6.22L16.88-6.22Q16.76-7.49 16.76-9.01L16.76-9.01Q16.76-9.9 16-9.78L16-9.78Q15.49-9.78 15.11-9.52L15.11-9.52Q14.09-9.27 14.22-7.74L14.22-7.74Q14.35-0.38 10.79-0.89L10.79-0.89Q6.98-1.14 7.36-7.49ZM13.96-20.57L13.96-20.57Q14.47-18.66 12.31-16.76L12.31-16.76Q8.13-13.84 5.71-8.89L5.71-8.89Q5.08-7.36 5.08-5.46L5.08-5.46Q4.95-4.19 3.81-4.06L3.81-4.06Q2.41-4.06 3.05-6.35L3.05-6.35Q4.44-10.79 7.11-15.36L7.11-15.36Q7.62-16.12 7.36-16.63L7.36-16.63Q7.11-17.14 6.22-17.01L6.22-17.01Q4.82-16.76 4.06-17.9L4.06-17.9Q3.94-18.79 4.57-19.3L4.57-19.3Q7.36-21.71 10.54-22.09L10.54-22.09Q12.95-21.96 13.96-20.57ZM11.93-10.16L11.93-10.16Q11.55-10.16 11.3-9.14L11.3-9.14Q10.92-7.36 11.17-5.21L11.17-5.21Q11.43-3.94 11.81-3.94L11.81-3.94Q12.44-3.94 12.57-5.33L12.57-5.33Q12.95-6.86 12.7-9.14L12.7-9.14Q12.57-10.28 11.93-10.16ZM55.22-1.65L55.22-1.65Q54.59 1.4 51.04 2.16L51.04 2.16Q47.23 2.67 42.78 0.51L42.78 0.51Q42.02 0.25 41.89-0.38L41.89-0.38Q42.66-1.65 44.18-1.4L44.18-1.4Q48.88-0.51 52.3-0.89L52.3-0.89Q53.7-1.4 53.7-2.03L53.7-2.03Q53.57-2.92 52.56-3.43L52.56-3.43Q47.73-5.59 40.75-4.32L40.75-4.32Q39.86-4.06 38.85-3.17L38.85-3.17Q36.94-2.03 35.93-3.81L35.93-3.81Q35.67-4.57 37.45-5.46L37.45-5.46Q39.99-6.73 48.37-8.25L48.37-8.25Q49.38-8.51 49.38-9.14L49.38-9.14Q49.38-9.78 47.73-9.78L47.73-9.78Q44.69-9.65 44.69-11.04L44.69-11.04Q44.81-12.06 45.83-12.44L45.83-12.44Q48.37-13.46 51.92-14.22L51.92-14.22Q52.81-14.47 52.94-15.36L52.94-15.36Q52.56-17.39 49.77-17.27L49.77-17.27Q47.1-16.38 45.58-14.98L45.58-14.98Q43.67-13.58 43.67-10.03L43.67-10.03Q43.67-8.63 42.4-8.51L42.4-8.51Q41.64-8.63 41.26-9.39L41.26-9.39Q40.12-12.06 40.5-16.5L40.5-16.5Q41.01-19.17 43.16-19.04L43.16-19.04Q43.93-19.04 45.32-19.17L45.32-19.17Q46.72-19.17 47.35-19.17L47.35-19.17Q51.67-19.3 54.21-23.61L54.21-23.61Q55.86-26.28 58.14-24.76L58.14-24.76Q59.16-22.98 57.51-20.69L57.51-20.69Q57-19.68 57.76-19.3L57.76-19.3Q60.18-18.41 58.14-16.12L58.14-16.12Q57.76-15.74 56.75-14.98L56.75-14.98Q55.99-14.47 55.73-14.22L55.73-14.22Q54.84-13.84 55.35-12.95L55.35-12.95Q55.86-12.31 55.86-11.55L55.86-11.55Q55.86-10.79 55.35-10.28L55.35-10.28Q54.59-9.52 54.84-8.89L54.84-8.89Q55.1-8.38 56.11-8.63L56.11-8.63Q60.81-9.39 61.57-6.47L61.57-6.47Q61.7-4.19 57.64-4.19L57.64-4.19Q55.48-4.06 55.22-1.65ZM49.38-19.93L49.38-19.93Q48.12-18.92 47.1-20.44L47.1-20.44Q46.34-21.58 46.34-24.25L46.34-24.25Q46.21-25.77 47.1-25.77L47.1-25.77Q47.73-25.9 47.86-24.76L47.86-24.76Q48.12-23.61 49.13-22.47L49.13-22.47Q50.15-20.95 49.38-19.93ZM44.43-19.8L44.43-19.8Q43.29-19.3 42.4-20.06L42.4-20.06Q41.51-21.33 41.26-22.98L41.26-22.98Q40.88-24.5 41.51-24.63L41.51-24.63Q42.28-25.14 42.66-23.99L42.66-23.99Q42.78-23.99 43.04-23.49L43.04-23.49Q43.67-22.72 44.31-21.84L44.31-21.84Q45.2-20.69 44.43-19.8ZM80.87-1.78L80.87-1.78Q80.87-0.25 82.77 0L82.77 0Q88.74 0.63 91.53-1.14L91.53-1.14Q92.68-1.78 93.56-1.14L93.56-1.14Q94.33-0.25 92.8 0.25L92.8 0.25Q88.87 1.4 81 1.4L81 1.4Q77.57 1.27 77.44-1.78L77.44-1.78Q77.19-3.17 75.92-3.17L75.92-3.17Q72.11-2.79 70.97-1.9L70.97-1.9Q69.57-0.76 68.68-2.03L68.68-2.03Q68.3-2.67 69.32-3.43L69.32-3.43Q72.11-4.95 76.68-5.97L76.68-5.97Q77.44-6.35 77.44-7.24L77.44-7.24Q77.31-8 76.43-7.87L76.43-7.87Q76.68-8 74.65-7.49L74.65-7.49Q73.76-7.36 73.25-7.74L73.25-7.74Q72.49-8.51 73.51-9.27L73.51-9.27Q75.28-10.54 76.81-10.92L76.81-10.92Q77.44-11.3 77.44-11.68L77.44-11.68Q77.44-12.57 76.17-12.57L76.17-12.57Q74.78-12.7 73.38-12.19L73.38-12.19Q71.98-11.93 71.73-12.82L71.73-12.82Q71.86-13.84 72.62-14.22L72.62-14.22Q75.03-15.49 79.22-16.25L79.22-16.25Q83.54-16.88 86.46-16.5L86.46-16.5Q88.49-16.12 88.49-14.6L88.49-14.6Q88.23-13.2 86.07-12.82L86.07-12.82Q84.17-12.82 82.77-12.82L82.77-12.82Q82.39-12.57 82.27-11.93L82.27-11.93Q82.39-11.55 82.77-11.43L82.77-11.43Q83.03-11.43 83.92-11.43L83.92-11.43Q85.19-11.3 85.69-11.3L85.69-11.3Q87.09-11.04 87.34-9.78L87.34-9.78Q87.09-8.76 85.82-8.38L85.82-8.38Q85.57-8.38 84.93-8.25L84.93-8.25Q82.9-8.13 82.27-7.87L82.27-7.87Q81.63-7.62 81.63-7.24L81.63-7.24Q81.76-6.86 82.39-6.98L82.39-6.98Q82.65-6.98 83.28-7.11L83.28-7.11Q87.22-7.36 88.49-7.24L88.49-7.24Q90.26-6.98 90.64-5.46L90.64-5.46Q90.52-3.81 88.49-3.68L88.49-3.68Q83.41-3.68 82.14-3.43L82.14-3.43Q80.87-3.05 80.87-1.78ZM72.87-16.25L72.87-16.25Q71.98-16.38 71.98-18.03L71.98-18.03Q72.11-20.82 73.76-23.74L73.76-23.74Q74.78-24.88 76.04-25.01L76.04-25.01Q77.19-25.01 77.57-23.87L77.57-23.87Q77.82-23.49 78.33-23.36L78.33-23.36Q78.46-23.36 79.09-23.36L79.09-23.36Q79.73-23.23 79.98-23.23L79.98-23.23Q80.87-22.85 80.87-22.22L80.87-22.22Q80.87-21.33 78.96-20.95L78.96-20.95Q77.95-20.69 78.33-19.93L78.33-19.93Q79.09-18.41 78.2-17.65L78.2-17.65Q77.19-17.14 76.04-17.65L76.04-17.65Q75.03-18.28 74.52-17.27L74.52-17.27Q73.76-16.12 72.87-16.25ZM82.39-17.52L82.39-17.52Q81.12-17.65 81.25-19.17L81.25-19.17Q82.01-22.6 83.15-24.5L83.15-24.5Q83.92-25.9 85.19-25.9L85.19-25.9Q86.46-25.77 86.58-23.99L86.58-23.99Q86.84-23.23 87.6-23.11L87.6-23.11Q90.01-23.11 90.01-21.58L90.01-21.58Q90.01-20.82 88.87-20.57L88.87-20.57Q88.36-20.44 87.09-20.31L87.09-20.31Q86.46-20.19 86.2-20.19L86.2-20.19Q84.93-19.93 84.17-18.66L84.17-18.66Q83.41-17.52 82.39-17.52ZM89.25-16.63L89.25-16.63Q88.87-16.5 87.98-16.88L87.98-16.88Q87.09-17.39 85.57-18.54L85.57-18.54Q85.44-18.79 85.31-18.79L85.31-18.79Q84.93-19.17 85.19-19.3L85.19-19.3Q85.57-19.68 86.2-19.42L86.2-19.42Q87.47-18.79 88.11-18.66L88.11-18.66Q88.74-18.66 89.25-17.9L89.25-17.9Q89.63-17.14 89.25-16.63ZM109.43-11.55L109.43-11.55Q109.31-11.04 109.05-9.78L109.05-9.78Q108.93-8.63 108.8-8.13L108.8-8.13Q108.8-5.33 112.48-2.92L112.48-2.92Q119.34 0.13 126.45 0.25L126.45 0.25Q127.97 0.25 127.97 1.52L127.97 1.52Q127.84 2.92 125.94 2.79L125.94 2.79Q120.86 2.03 112.23-1.52L112.23-1.52Q109.69-2.67 107.66-2.16L107.66-2.16Q105.88-1.65 105.24 1.78L105.24 1.78Q105.12 2.92 103.85 3.05L103.85 3.05Q103.09 2.54 103.34 0.89L103.34 0.89Q103.47 0.38 103.97-1.27L103.97-1.27Q104.86-4.95 105.12-5.97L105.12-5.97Q105.5-7.62 104.61-7.74L104.61-7.74Q103.72-8.13 102.58-6.09L102.58-6.09Q101.69-4.82 100.8-5.08L100.8-5.08Q100.29-5.46 100.67-6.6L100.67-6.6Q101.94-9.9 104.61-13.08L104.61-13.08Q106.64-14.98 108.29-14.22L108.29-14.22Q109.56-13.71 109.43-11.55ZM112.23-18.28L112.23-18.28Q115.78-19.04 117.56-19.17L117.56-19.17Q119.34-19.3 122.38-18.79L122.38-18.79Q125.05-18.54 124.67-17.14L124.67-17.14Q124.03-15.49 122.26-15.11L122.26-15.11Q120.22-14.73 119.97-11.68L119.97-11.68Q119.59-7.36 120.22-3.94L120.22-3.94Q120.61-1.78 119.46-1.78L119.46-1.78Q118.57-1.52 118.32-3.81L118.32-3.81Q118.07-8.63 118.45-13.33L118.45-13.33Q118.57-15.23 117.43-15.11L117.43-15.11Q116.67-15.23 116.16-13.58L116.16-13.58Q115.78-12.44 115.53-7.36L115.53-7.36Q115.53-4.95 114.51-5.08L114.51-5.08Q113.62-5.21 113.75-7.49L113.75-7.49Q113.88-8.63 113.75-11.17L113.75-11.17Q113.75-12.31 113.75-12.82L113.75-12.82Q113.37-15.62 111.46-16L111.46-16Q111.34-16 111.08-16L111.08-16Q109.81-16.12 109.81-16.63L109.81-16.63Q110.07-17.65 112.23-18.28ZM113.62-22.09L113.62-22.09Q116.54-23.36 119.34-23.11L119.34-23.11Q121.88-22.98 121.75-21.58L121.75-21.58Q121.37-20.31 120.22-20.44L120.22-20.44Q116.54-20.44 114-20.06L114-20.06Q112.73-19.68 112.61-20.69L112.61-20.69Q112.48-21.46 113.62-22.09ZM104.86-22.72L104.86-22.72Q105.24-20.95 107.15-18.66L107.15-18.66Q108.67-17.01 107.4-15.87L107.4-15.87Q106.26-15.11 105.37-16.63L105.37-16.63Q104.23-18.66 104.1-22.34L104.1-22.34Q104.1-22.98 104.48-23.11L104.48-23.11Q104.86-23.23 104.86-22.72ZM122.26-12.7L122.26-12.7Q122.64-9.78 124.41-6.98L124.41-6.98Q125.56-5.08 124.54-4.19L124.54-4.19Q123.53-3.55 122.76-5.21L122.76-5.21Q121.88-7.74 121.37-12.44L121.37-12.44Q121.37-12.95 121.75-13.08L121.75-13.08Q122.26-13.08 122.26-12.7ZM111.59-13.33L111.59-13.33Q111.59-11.81 112.61-9.01L112.61-9.01Q113.24-6.98 112.1-6.35L112.1-6.35Q111.21-6.22 110.83-7.11L110.83-7.11Q110.2-9.39 110.58-13.2L110.58-13.2Q110.58-13.96 111.08-14.09L111.08-14.09Q111.59-14.09 111.59-13.33Z" transform="translate(-2.8492157459259033, 25.899999618530273)"></path></g></g></g></g> <g data-gra="path-slogan" fill-rule="" class="tp-slogan iconsvg-slogansvg" fill="url(#619792fa-ae6e-4cae-b59e-5502014476e0)" transform="translate(-4.8997802734375,62.39208221435547)"><!----> <!----> <g transform="scale(1, 1)"><g transform="scale(1)"><path d="M3.53-4.43L3.50-4.43L2.27 0L1.52 0L0.12-5.33L0.87-5.33L1.89-0.99L1.92-0.99L3.12-5.33L3.91-5.33L5.10-0.99L5.13-0.99L6.12-5.33L6.91-5.33L5.51 0L4.75 0L3.53-4.43ZM10.14-2.30L8.39-2.30L8.39 0L7.67 0L7.67-5.33L10.14-5.33Q11.92-5.33 11.92-3.91L11.92-3.91Q11.92-3.03 11.16-2.62L11.16-2.62Q11.80-2.45 11.80-1.60L11.80-1.60L11.86-0.64Q11.83-0.23 12.13-0.12L12.13-0.12L12.13 0L11.22 0Q11.13-0.38 11.11-1.34L11.11-1.34Q11.13-2.30 10.14-2.30L10.14-2.30ZM10.20-4.75L8.39-4.75L8.39-2.91L10.09-2.91Q11.16-2.91 11.16-3.85L11.16-3.85Q11.16-4.75 10.20-4.75L10.20-4.75ZM13.06-5.33L13.79-5.33L13.79 0L13.06 0L13.06-5.33ZM16.38-4.72L14.57-4.72L14.57-5.33L18.89-5.33L18.89-4.72L17.08-4.72L17.08 0L16.38 0L16.38-4.72ZM19.65-5.33L20.37-5.33L20.37 0L19.65 0L19.65-5.33ZM22.47-5.33L25.15-1.02L25.15-5.33L25.85-5.33L25.85 0L25.04 0L22.33-4.31L22.30-4.31L22.30 0L21.60 0L21.60-5.33L22.47-5.33ZM30.96-2.24L29.32-2.24L29.32-2.86L31.65-2.86L31.65 0L31.19 0L31.01-0.67Q30.40 0.06 29.26 0.09L29.26 0.09Q28.19 0.09 27.60-0.47L27.60-0.47Q26.73-1.28 26.76-2.71L26.76-2.71Q26.96-5.36 29.29-5.48L29.29-5.48Q31.28-5.36 31.57-3.73L31.57-3.73L30.87-3.73Q30.58-4.84 29.26-4.87L29.26-4.87Q27.60-4.75 27.52-2.68L27.52-2.68Q27.52-0.47 29.29-0.47L29.29-0.47Q29.93-0.47 30.40-0.82L30.40-0.82Q30.98-1.28 30.96-2.24L30.96-2.24ZM36.20-4.72L34.39-4.72L34.39-5.33L38.71-5.33L38.71-4.72L36.90-4.72L36.90 0L36.20 0L36.20-4.72ZM41.91-2.30L40.17-2.30L40.17 0L39.44 0L39.44-5.33L41.91-5.33Q43.69-5.33 43.69-3.91L43.69-3.91Q43.69-3.03 42.93-2.62L42.93-2.62Q43.58-2.45 43.58-1.60L43.58-1.60L43.63-0.64Q43.61-0.23 43.90-0.12L43.90-0.12L43.90 0L42.99 0Q42.91-0.38 42.88-1.34L42.88-1.34Q42.91-2.30 41.91-2.30L41.91-2.30ZM41.97-4.75L40.17-4.75L40.17-2.91L41.86-2.91Q42.93-2.91 42.93-3.85L42.93-3.85Q42.93-4.75 41.97-4.75L41.97-4.75ZM48.24 0L47.72-1.54L45.56-1.54L45.00 0L44.28 0L46.29-5.33L47.10-5.33L49.03 0L48.24 0ZM46.64-4.55L45.79-2.19L47.45-2.19L46.67-4.55L46.64-4.55ZM54.13-3.76L54.13-3.76L53.43-3.76Q53.17-4.84 51.94-4.87L51.94-4.87Q50.25-4.78 50.19-2.71L50.19-2.71Q50.19-0.50 51.97-0.50L51.97-0.50Q53.20-0.52 53.49-1.98L53.49-1.98L54.19-1.98Q53.87 0.03 51.83 0.09L51.83 0.09Q49.49 0 49.43-2.68L49.43-2.68Q49.55-5.36 51.94-5.48L51.94-5.48Q53.84-5.42 54.13-3.76ZM55.85-0.64L59.05-0.64L59.05 0L55.12 0L55.12-5.33L59.00-5.33L59.00-4.72L55.85-4.72L55.85-3.06L58.76-3.06L58.76-2.42L55.85-2.42L55.85-0.64ZM66.28-2.65L66.28-2.65Q66.17-4.75 64.42-4.87L64.42-4.87Q62.64-4.78 62.55-2.65L62.55-2.65Q62.64-0.58 64.42-0.50L64.42-0.50Q66.17-0.61 66.28-2.65ZM67.01-2.65L67.01-2.65Q66.84 0 64.42 0.09L64.42 0.09Q61.97 0 61.79-2.65L61.79-2.65Q61.94-5.42 64.42-5.48L64.42-5.48Q66.84-5.39 67.01-2.65ZM71.30-2.42L68.67-2.42L68.67 0L67.94 0L67.94-5.33L71.65-5.33L71.65-4.72L68.67-4.72L68.67-3.06L71.30-3.06L71.30-2.42ZM78.35-3.79L78.35-3.79L77.68-3.79Q77.62-4.81 76.34-4.87L76.34-4.87Q75.14-4.84 75.14-3.93L75.14-3.93Q75.14-3.35 75.78-3.26L75.78-3.26L77.30-2.91Q78.50-2.62 78.50-1.46L78.50-1.46Q78.47 0.03 76.40 0.09L76.40 0.09Q75.26 0.09 74.79-0.38L74.79-0.38Q74.21-0.82 74.24-1.72L74.24-1.72L74.94-1.72Q74.97-0.50 76.40-0.47L76.40-0.47Q77.80-0.50 77.83-1.37L77.83-1.37Q77.94-2.10 76.66-2.33L76.66-2.33L75.55-2.57Q74.41-2.89 74.41-3.85L74.41-3.85Q74.50-5.42 76.28-5.48L76.28-5.48Q78.29-5.48 78.35-3.79ZM80.77-4.72L78.96-4.72L78.96-5.33L83.28-5.33L83.28-4.72L81.47-4.72L81.47 0L80.77 0L80.77-4.72ZM87.44-1.98L87.44-5.33L88.17-5.33L88.17-1.89Q88.09 0.03 85.99 0.09L85.99 0.09Q84.03 0.03 83.95-1.78L83.95-1.78L83.95-5.33L84.67-5.33L84.67-1.98Q84.70-0.52 86.02-0.50L86.02-0.50Q87.44-0.52 87.44-1.98L87.44-1.98ZM91.47 0L89.31 0L89.31-5.33L91.50-5.33Q93.65-5.22 93.74-2.74L93.74-2.74Q93.62-0.06 91.47 0L91.47 0ZM91.38-4.75L90.04-4.75L90.04-0.61L91.44-0.61Q92.95-0.70 93.01-2.68L93.01-2.68Q92.98-4.69 91.38-4.75L91.38-4.75ZM98.96-5.33L96.95-2.16L96.95 0L96.22 0L96.22-2.16L94.21-5.33L95.05-5.33L96.57-2.77L98.11-5.33L98.96-5.33ZM101.67-5.33L102.40-5.33L102.40-0.64L105.11-0.64L105.11 0L101.67 0L101.67-5.33ZM106.62-0.64L109.83-0.64L109.83 0L105.89 0L105.89-5.33L109.77-5.33L109.77-4.72L106.62-4.72L106.62-3.06L109.54-3.06L109.54-2.42L106.62-2.42L106.62-0.64ZM114.29 0L113.76-1.54L111.61-1.54L111.05 0L110.33 0L112.34-5.33L113.15-5.33L115.08 0L114.29 0ZM112.69-4.55L111.84-2.19L113.50-2.19L112.72-4.55L112.69-4.55ZM118.28-2.30L116.53-2.30L116.53 0L115.80 0L115.80-5.33L118.28-5.33Q120.06-5.33 120.06-3.91L120.06-3.91Q120.06-3.03 119.30-2.62L119.30-2.62Q119.94-2.45 119.94-1.60L119.94-1.60L120.00-0.64Q119.97-0.23 120.26-0.12L120.26-0.12L120.26 0L119.36 0Q119.27-0.38 119.24-1.34L119.24-1.34Q119.27-2.30 118.28-2.30L118.28-2.30ZM118.34-4.75L116.53-4.75L116.53-2.91L118.22-2.91Q119.30-2.91 119.30-3.85L119.30-3.85Q119.30-4.75 118.34-4.75L118.34-4.75ZM121.96-5.33L124.64-1.02L124.64-5.33L125.34-5.33L125.34 0L124.52 0L121.81-4.31L121.78-4.31L121.78 0L121.08 0L121.08-5.33L121.96-5.33ZM126.56-5.33L127.29-5.33L127.29 0L126.56 0L126.56-5.33ZM129.39-5.33L132.07-1.02L132.07-5.33L132.77-5.33L132.77 0L131.95 0L129.24-4.31L129.21-4.31L129.21 0L128.51 0L128.51-5.33L129.39-5.33ZM137.87-2.24L136.24-2.24L136.24-2.86L138.57-2.86L138.57 0L138.10 0L137.93-0.67Q137.32 0.06 136.18 0.09L136.18 0.09Q135.10 0.09 134.52-0.47L134.52-0.47Q133.64-1.28 133.67-2.71L133.67-2.71Q133.88-5.36 136.21-5.48L136.21-5.48Q138.19-5.36 138.48-3.73L138.48-3.73L137.78-3.73Q137.49-4.84 136.18-4.87L136.18-4.87Q134.52-4.75 134.43-2.68L134.43-2.68Q134.43-0.47 136.21-0.47L136.21-0.47Q136.85-0.47 137.32-0.82L137.32-0.82Q137.90-1.28 137.87-2.24L137.87-2.24Z" transform="translate(-0.11659192825112108, 5.479820627802691)"></path></g></g></g></g></g><defs v-gra="od"><linearGradient x1="0" y1="1" x2="0" y2="0" id="619792fa-ae6e-4cae-b59e-5502014476e0"><stop offset="0%" stop-color="#ff51f9"></stop><stop offset="50%" stop-color="#a348ff"></stop><stop offset="100%" stop-color="#3978ff"></stop></linearGradient><filter id="42443b3f1de60f6b6fd3b6a9844b4764" filterUnits="userSpaceOnUse"><feColorMatrix type="matrix" values="0 0 0 0 0.99609375  0 0 0 0 0.99609375  0 0 0 0 0.99609375  0 0 0 1 0"></feColorMatrix></filter><linearGradient x1="0" y1="1" x2="0" y2="0" id="06b038a6-89cc-489b-a843-95ad9f6514af"><stop offset="0%" stop-color="#ff51f9"></stop><stop offset="50%" stop-color="#a348ff"></stop><stop offset="100%" stop-color="#3978ff"></stop></linearGradient><filter id="42443b3f1de60f6b6fd3b6a9844b4764" filterUnits="userSpaceOnUse"><feColorMatrix type="matrix" values="0 0 0 0 0.99609375  0 0 0 0 0.99609375  0 0 0 0 0.99609375  0 0 0 1 0"></feColorMatrix></filter><linearGradient x1="0" y1="1" x2="0" y2="0" id="7fbe5422-a2a9-448c-8099-c9ea64dab959"><stop offset="0%" stop-color="#ff51f9"></stop><stop offset="50%" stop-color="#a348ff"></stop><stop offset="100%" stop-color="#3978ff"></stop></linearGradient><filter id="42443b3f1de60f6b6fd3b6a9844b4764" filterUnits="userSpaceOnUse"><feColorMatrix type="matrix" values="0 0 0 0 0.99609375  0 0 0 0 0.99609375  0 0 0 0 0.99609375  0 0 0 1 0"></feColorMatrix></filter></defs><defs v-gra="id"><filter id="ace02f90-f76c-41e1-b515-7ccc1b5da531" filterUnits="userSpaceOnUse"><feColorMatrix type="matrix" values="0 0 0 0 0.99609375  0 0 0 0 0.99609375  0 0 0 0 0.99609375  0 0 0 1 0"></feColorMatrix></filter><linearGradient x1="0" y1="1" x2="0" y2="0" id="NWrt246frSIM_l-K6f3i8"><stop offset="0%" stop-color="#ff51f9"></stop><stop offset="50%" stop-color="#a348ff"></stop><stop offset="100%" stop-color="#3978ff"></stop></linearGradient><filter id="42443b3f1de60f6b6fd3b6a9844b4764" filterUnits="userSpaceOnUse"><feColorMatrix type="matrix" values="0 0 0 0 0.99609375  0 0 0 0 0.99609375  0 0 0 0 0.99609375  0 0 0 1 0"></feColorMatrix></filter></defs><mask v-gra="im" id="e7f49c8f-c550-4a23-9ed5-c537ccd49d0b"><g class="iconsvg-imagesvg" filter="url(#ace02f90-f76c-41e1-b515-7ccc1b5da531)"><g><rect fill="#ff51f9" fill-opacity="0" stroke-width="2" x="0" y="0" width="60" height="61.630116583637204" class="image-rect"></rect> <svg x="0" y="0" width="60" height="61.630116583637204" filtersec="colorsf8524234837" class="image-svg-svg primary" style="overflow: visible;"><svg xmlns="http://www.w3.org/2000/svg" data-name="Layer 1" viewBox="2.2867772579193115 0.9941233396530151 95.42023468017578 98.01280212402344" x="0px" y="0px"><title>Artboard 28</title><path d="M54.53,36.05a1.5,1.5,0,0,1-1.85,1.05l-10.61-2.9A1.5,1.5,0,0,1,41,32.36l2.9-10.61a1.5,1.5,0,0,1,1.85-1.05A12.52,12.52,0,0,1,54.53,36.05ZM38.59,25.34A.75.75,0,0,0,38,24.4a12.62,12.62,0,1,0,9.38,16.43.75.75,0,0,0-.53-1L36.35,37a.91.91,0,0,1-.64-1.12ZM63.2,32.19l12.36,2.75a3.11,3.11,0,1,0,1.35-6.06L64.55,26.13a3.11,3.11,0,0,0-1.35,6.06Zm-4.88,7.62a3.11,3.11,0,0,0,2.36,3.71L73,46.27a3.11,3.11,0,0,0,1.35-6.06L62,37.46A3.11,3.11,0,0,0,58.32,39.82Zm32.34-23.9-3.34-.74L85.7,8A9,9,0,0,0,74.92,1.22L50,6.88,25,1.33A9,9,0,0,0,14.23,8.17l-1.59,7.16-3.34.76A9,9,0,0,0,2.51,26.86L6.34,43.75,2.58,60.65A9,9,0,0,0,9.42,71.39l3.34.74,1.62,7.15a9,9,0,0,0,10.77,6.79l28.4-6.43a25.66,25.66,0,0,1-1-9.22L12.91,61.62,24,11.66l63.17,14L82.43,47a25.42,25.42,0,0,1,11.44,5,1,1,0,0,0,1.56-1l-1.69-7.44,3.75-16.9A9,9,0,0,0,90.66,15.91ZM22,55a3.11,3.11,0,0,0,2.36,3.71l29.24,6.51a25.65,25.65,0,0,1,2.51-5.8L25.66,52.6A3.11,3.11,0,0,0,22,55Zm26.68-5.7A3.1,3.1,0,0,0,51,53l8.45,1.88c.2-.21.39-.43.59-.64A25.77,25.77,0,0,1,65.56,50a3.07,3.07,0,0,0-.86-.35L52.34,46.91A3.11,3.11,0,0,0,48.63,49.27ZM91.57,59a18.92,18.92,0,0,1,0,26.72h0a18.91,18.91,0,0,1-22.83,3l-8.86,8.86A4.85,4.85,0,0,1,53,90.73l8.85-8.85A18.89,18.89,0,0,1,91.57,59ZM88.51,72.4a10.28,10.28,0,1,0-3,7.29A10.27,10.27,0,0,0,88.51,72.4Z"></path></svg></svg> <defs><filter id="colors1089167164"><feColorMatrix type="matrix" values="0 0 0 0 0.99609375  0 0 0 0 0.31640625  0 0 0 0 0.97265625  0 0 0 1 0" class="icon-fecolormatrix"></feColorMatrix></filter> <filter id="colorsf8524234837"><feColorMatrix type="matrix" values="0 0 0 0 0.99609375  0 0 0 0 0.99609375  0 0 0 0 0.99609375  0 0 0 1 0" class="icon-fecolormatrix"></feColorMatrix></filter> <filter id="colorsb694340244"><feColorMatrix type="matrix" values="0 0 0 0 0  0 0 0 0 0  0 0 0 0 0  0 0 0 1 0" class="icon-fecolormatrix"></feColorMatrix></filter></defs></g></g></mask></svg>