<svg width="1092" height="1034" xmlns="http://www.w3.org/2000/svg" xmlns:xlink="http://www.w3.org/1999/xlink" xml:space="preserve" overflow="hidden"><defs><clipPath id="clip0"><rect x="1411" y="328" width="1092" height="1034"/></clipPath></defs><g clip-path="url(#clip0)" transform="translate(-1411 -328)"><path d="M1416 346 2498 346" stroke="#000000" stroke-width="3.65259" stroke-linejoin="round" stroke-miterlimit="10" fill="none" fill-rule="evenodd"/><text font-family="Times New Roman,Times New Roman_MSFontService,sans-serif" font-weight="700" font-size="46" text-decoration="underline" transform="matrix(1 0 0 1 1439.45 386)">Algorithm</text><text font-family="Times New Roman,Times New Roman_MSFontService,sans-serif" font-weight="700" font-size="46" text-decoration="underline" transform="matrix(1 0 0 1 1653.95 386)">1:</text><text font-family="Times New Roman,Times New Roman_MSFontService,sans-serif" font-weight="400" font-size="46" text-decoration="underline" transform="matrix(1 0 0 1 1703.11 386)">Overall</text><text font-family="Times New Roman,Times New Roman_MSFontService,sans-serif" font-weight="400" font-size="46" text-decoration="underline" transform="matrix(1 0 0 1 1851.72 386)">Training</text><text font-family="Times New Roman,Times New Roman_MSFontService,sans-serif" font-weight="400" font-size="46" text-decoration="underline" transform="matrix(1 0 0 1 2016.72 386)">Procedure</text><text font-family="Times New Roman,Times New Roman_MSFontService,sans-serif" font-weight="400" font-size="41" transform="matrix(1 0 0 1 1470.41 449)">Initialize</text><text font-family="Garamond,Garamond_MSFontService,sans-serif" font-style="italic" font-weight="400" font-size="41" transform="matrix(1 0 0 1 1627.18 449)">{</text><text font-family="Tahoma,Tahoma_MSFontService,sans-serif" font-weight="400" font-size="41" transform="matrix(1 0 0 1 1649.39 449)">Θ</text><text font-family="Garamond,Garamond_MSFontService,sans-serif" font-style="italic" font-weight="400" font-size="41" transform="matrix(1 0 0 1 1681.34 449)">}</text><text font-family="Verdana,Verdana_MSFontService,sans-serif" font-style="italic" font-weight="400" font-size="28" transform="matrix(1 0 0 1 1703.54 453)">E,U,D,G </text><text font-family="Times New Roman,Times New Roman_MSFontService,sans-serif" font-weight="400" font-size="41" transform="matrix(1 0 0 1 1844.14 449)">and</text><text font-family="Garamond,Garamond_MSFontService,sans-serif" font-style="italic" font-weight="400" font-size="41" transform="matrix(1 0 0 1 1913.83 449)">M</text><text font-family="Times New Roman,Times New Roman_MSFontService,sans-serif" font-weight="400" font-size="41" transform="matrix(1 0 0 1 1974.19 449)">at</text><text font-family="Bookman Old Style,Bookman Old Style_MSFontService,sans-serif" font-style="italic" font-weight="300" font-size="41" transform="matrix(1 0 0 1 2014.09 449)">t</text><text font-family="Tahoma,Tahoma_MSFontService,sans-serif" font-weight="400" font-size="41" transform="matrix(1 0 0 1 2039.78 449)">=</text><text font-family="Tahoma,Tahoma_MSFontService,sans-serif" font-weight="400" font-size="41" transform="matrix(1 0 0 1 2084.12 449)">0</text><text font-family="Times New Roman,Times New Roman_MSFontService,sans-serif" font-weight="700" font-size="41" transform="translate(1468.93 498)">while</text><text font-family="Times New Roman,Times New Roman_MSFontService,sans-serif" font-weight="700" font-size="41" transform="translate(1562.89 498)"> </text><text font-family="Bookman Old Style,Bookman Old Style_MSFontService,sans-serif" font-style="italic" font-weight="300" font-size="41" transform="translate(1573.2 498)">t</text><text font-family="Bookman Old Style,Bookman Old Style_MSFontService,sans-serif" font-style="italic" font-weight="300" font-size="41" transform="translate(1586.95 498)"> </text><text font-family="Bookman Old Style,Bookman Old Style_MSFontService,sans-serif" font-style="italic" font-weight="300" font-size="41" transform="translate(1599.56 498)">&lt;</text><text font-family="Bookman Old Style,Bookman Old Style_MSFontService,sans-serif" font-style="italic" font-weight="300" font-size="41" transform="translate(1624.19 498)"> </text><text font-family="Bookman Old Style,Bookman Old Style_MSFontService,sans-serif" font-style="italic" font-weight="300" font-size="41" transform="translate(1636.8 498)">T</text><text font-family="Bookman Old Style,Bookman Old Style_MSFontService,sans-serif" font-style="italic" font-weight="300" font-size="41" transform="translate(1661.43 498)"> </text><text font-family="Times New Roman,Times New Roman_MSFontService,sans-serif" font-weight="700" font-size="41" transform="translate(1674.03 498)">do</text><path d="M1494 1332.98 1494 516" stroke="#000000" stroke-width="1.82395" stroke-linejoin="round" stroke-miterlimit="10" fill="none" fill-rule="evenodd"/><text font-family="Times New Roman,Times New Roman_MSFontService,sans-serif" font-weight="400" font-size="41" transform="matrix(1 0 0 1 1540.73 539)">Randomly</text><text font-family="Times New Roman,Times New Roman_MSFontService,sans-serif" font-weight="400" font-size="41" transform="matrix(1 0 0 1 1721.34 539)">split</text><text font-family="Euclid,Euclid_MSFontService,sans-serif" font-weight="400" font-size="41" transform="matrix(1 0 0 1 1801.78 539)">S</text><text font-family="Times New Roman,Times New Roman_MSFontService,sans-serif" font-weight="400" font-size="41" transform="matrix(1 0 0 1 1834.57 539)">into</text><text font-family="Euclid,Euclid_MSFontService,sans-serif" font-weight="400" font-size="41" transform="matrix(1 0 0 1 1908.13 539)">S</text><text font-family="Times New Roman,Times New Roman_MSFontService,sans-serif" font-weight="400" font-size="28" transform="matrix(1 0 0 1 1931.05 543)">mtr</text><text font-family="Times New Roman,Times New Roman_MSFontService,sans-serif" font-weight="400" font-size="41" transform="matrix(1 0 0 1 1980.55 539)">and</text><text font-family="Euclid,Euclid_MSFontService,sans-serif" font-weight="400" font-size="41" transform="matrix(1 0 0 1 2049.53 539)">S</text><text font-family="Times New Roman,Times New Roman_MSFontService,sans-serif" font-weight="400" font-size="28" transform="matrix(1 0 0 1 2071.53 543)">mte</text><text font-family="Times New Roman,Times New Roman_MSFontService,sans-serif" font-style="italic" font-weight="700" font-size="41" transform="matrix(1 0 0 1 1538.92 593)">Meta</text><text font-family="Times New Roman,Times New Roman_MSFontService,sans-serif" font-style="italic" font-weight="700" font-size="41" transform="matrix(1 0 0 1 1624.17 593)">-</text><text font-family="Times New Roman,Times New Roman_MSFontService,sans-serif" font-style="italic" font-weight="700" font-size="41" transform="matrix(1 0 0 1 1637.46 593)">training</text><text font-family="Times New Roman,Times New Roman_MSFontService,sans-serif" font-weight="700" font-size="41" transform="matrix(1 0 0 1 1771.3 593)">:</text><path d="M1564 861.986 1564 609" stroke="#000000" stroke-width="1.82395" stroke-linejoin="round" stroke-miterlimit="10" fill="none" fill-rule="evenodd"/><path d="M1565 861 1585.92 861" stroke="#000000" stroke-width="1.82395" stroke-linejoin="round" stroke-miterlimit="10" fill="none" fill-rule="evenodd"/><text font-family="Times New Roman,Times New Roman_MSFontService,sans-serif" font-weight="400" font-size="28" transform="translate(1874 653)">mtr</text><text font-family="Times New Roman,Times New Roman_MSFontService,sans-serif" font-weight="400" font-size="41" transform="matrix(1 0 0 1 1611.05 643)">Sample</text><text font-family="Times New Roman,Times New Roman_MSFontService,sans-serif" font-weight="400" font-size="41" transform="matrix(1 0 0 1 1743.74 643)">batch</text><text font-family="Garamond,Garamond_MSFontService,sans-serif" font-style="italic" font-weight="400" font-size="41" transform="matrix(1 0 0 1 1842.05 643)">X</text><text font-family="Times New Roman,Times New Roman_MSFontService,sans-serif" font-weight="400" font-size="41" transform="matrix(1 0 0 1 1924.55 643)">=</text><text font-family="Garamond,Garamond_MSFontService,sans-serif" font-style="italic" font-weight="400" font-size="41" transform="matrix(1 0 0 1 1958.12 643)">{X</text><text font-family="Garamond,Garamond_MSFontService,sans-serif" font-style="italic" font-weight="400" font-size="41" transform="matrix(1 0 0 1 2048.3 643)">}</text><text font-family="Verdana,Verdana_MSFontService,sans-serif" font-style="italic" font-weight="400" font-size="28" transform="translate(1880.01 628)">t</text><text font-family="Verdana,Verdana_MSFontService,sans-serif" font-style="italic" font-weight="400" font-size="28" transform="translate(2015.22 628)">b</text><text font-family="Verdana,Verdana_MSFontService,sans-serif" font-style="italic" font-weight="400" font-size="28" transform="translate(2032.41 628)">  </text><text font-family="Verdana,Verdana_MSFontService,sans-serif" font-style="italic" font-weight="400" font-size="28" transform="translate(2051.89 628)">B</text><text font-family="Times New Roman,Times New Roman_MSFontService,sans-serif" font-weight="400" font-size="28" transform="matrix(1 0 0 1 2009.28 651)">mtr</text><text font-family="Verdana,Verdana_MSFontService,sans-serif" font-style="italic" font-weight="400" font-size="28" transform="matrix(1 0 0 1 2070.01 653)">b</text><text font-family="Garamond,Garamond_MSFontService,sans-serif" font-weight="400" font-size="28" transform="matrix(1 0 0 1 2088.8 653)">=1</text><text font-family="Times New Roman,Times New Roman_MSFontService,sans-serif" font-weight="400" font-size="41" transform="matrix(1 0 0 1 2140.66 641)">from</text><text font-family="Euclid,Euclid_MSFontService,sans-serif" font-weight="400" font-size="41" transform="matrix(1 0 0 1 2230.06 641)">S</text><text font-family="Times New Roman,Times New Roman_MSFontService,sans-serif" font-weight="400" font-size="28" transform="matrix(1 0 0 1 2252.06 645)">mtr</text><text font-family="Times New Roman,Times New Roman_MSFontService,sans-serif" font-weight="400" font-size="28" transform="translate(1801.12 700)">read</text><text font-family="Times New Roman,Times New Roman_MSFontService,sans-serif" font-weight="400" font-size="41" transform="matrix(1 0 0 1 1611.05 693)">Compute</text><text font-family="Garamond,Garamond_MSFontService,sans-serif" font-style="italic" font-weight="400" font-size="41" transform="matrix(1 0 0 1 1770.78 693)">L</text><text font-family="Times New Roman,Times New Roman_MSFontService,sans-serif" font-weight="400" font-size="41" transform="matrix(1 0 0 1 1860.61 693)">with</text><text font-family="Times New Roman,Times New Roman_MSFontService,sans-serif" font-weight="400" font-size="41" transform="matrix(1 0 0 1 1943.11 693)">(</text><text font-family="Verdana,Verdana_MSFontService,sans-serif" font-style="italic" font-weight="400" font-size="28" transform="matrix(1 0 0 1 1993.96 678)">t</text><text font-family="Times New Roman,Times New Roman_MSFontService,sans-serif" font-weight="400" font-size="28" transform="translate(1987.95 703)">mtr</text><text font-family="Verdana,Verdana_MSFontService,sans-serif" font-style="italic" font-weight="400" font-size="28" transform="translate(2194.88 701)">E,D</text><text font-family="Garamond,Garamond_MSFontService,sans-serif" font-style="italic" font-weight="400" font-size="41" transform="matrix(1 0 0 1 1957.85 694)">X</text><text font-family="Times New Roman,Times New Roman_MSFontService,sans-serif" font-weight="400" font-size="41" transform="matrix(1 0 0 1 2028.09 694)">,</text><text font-family="Garamond,Garamond_MSFontService,sans-serif" font-style="italic" font-weight="400" font-size="41" transform="matrix(1 0 0 1 2048.25 694)">M</text><text font-family="Times New Roman,Times New Roman_MSFontService,sans-serif" font-weight="400" font-size="41" transform="matrix(1 0 0 1 2090.08 694)">,</text><text font-family="Garamond,Garamond_MSFontService,sans-serif" font-style="italic" font-weight="400" font-size="41" transform="matrix(1 0 0 1 2118.49 694)">{</text><text font-family="Tahoma,Tahoma_MSFontService,sans-serif" font-weight="400" font-size="41" transform="matrix(1 0 0 1 2136.83 694)">Θ</text><text font-family="Garamond,Garamond_MSFontService,sans-serif" font-style="italic" font-weight="400" font-size="41" transform="matrix(1 0 0 1 2164.9 694)">}</text><text font-family="Times New Roman,Times New Roman_MSFontService,sans-serif" font-weight="400" font-size="41" transform="matrix(1 0 0 1 2261.95 694)">)</text><text font-family="Tahoma,Tahoma_MSFontService,sans-serif" font-weight="400" font-size="41" transform="translate(1631.62 736)">ˆ</text><text font-family="Verdana,Verdana_MSFontService,sans-serif" font-style="italic" font-weight="400" font-size="28" transform="matrix(1 0 0 1 1970.12 728)">t</text><text font-family="Times New Roman,Times New Roman_MSFontService,sans-serif" font-weight="400" font-size="28" transform="matrix(1 0 0 1 1964.1 753)">mtr</text><text font-family="Verdana,Verdana_MSFontService,sans-serif" font-style="italic" font-weight="400" font-size="28" transform="matrix(1 0 0 1 2098.17 751)">E,U</text><text font-family="Garamond,Garamond_MSFontService,sans-serif" font-style="italic" font-weight="400" font-size="41" transform="translate(1611.05 744)">M</text><text font-family="Garamond,Garamond_MSFontService,sans-serif" font-style="italic" font-weight="400" font-size="41" transform="translate(1661.12 744)"> </text><text font-family="Garamond,Garamond_MSFontService,sans-serif" font-style="italic" font-weight="400" font-size="41" transform="translate(1687.71 744)">←</text><text font-family="Garamond,Garamond_MSFontService,sans-serif" font-style="italic" font-weight="400" font-size="41" transform="translate(1745.23 744)"> </text><text font-family="Times New Roman,Times New Roman_MSFontService,sans-serif" font-weight="700" font-size="41" transform="translate(1771.81 744)">update</text><text font-family="Tahoma,Tahoma_MSFontService,sans-serif" font-weight="400" font-size="41" transform="translate(1893.27 744)">(</text><text font-family="Garamond,Garamond_MSFontService,sans-serif" font-style="italic" font-weight="400" font-size="41" transform="translate(1909.31 744)">M</text><text font-family="Bookman Old Style,Bookman Old Style_MSFontService,sans-serif" font-style="italic" font-weight="300" font-size="41" transform="translate(1943.11 744)">,</text><text font-family="Bookman Old Style,Bookman Old Style_MSFontService,sans-serif" font-style="italic" font-weight="300" font-size="41" transform="translate(1955.72 744)"> </text><text font-family="Garamond,Garamond_MSFontService,sans-serif" font-style="italic" font-weight="400" font-size="41" transform="translate(1968.32 744)">X</text><text font-family="Garamond,Garamond_MSFontService,sans-serif" font-style="italic" font-weight="400" font-size="41" transform="translate(1998.69 744)">  </text><text font-family="Tahoma,Tahoma_MSFontService,sans-serif" font-weight="400" font-size="41" transform="translate(2019.31 744)">;</text><text font-family="Tahoma,Tahoma_MSFontService,sans-serif" font-weight="400" font-size="41" transform="translate(2030.43 744)"> </text><text font-family="Garamond,Garamond_MSFontService,sans-serif" font-style="italic" font-weight="400" font-size="41" transform="translate(2040.39 744)">{</text><text font-family="Tahoma,Tahoma_MSFontService,sans-serif" font-weight="400" font-size="41" transform="translate(2058.73 744)">Θ</text><text font-family="Garamond,Garamond_MSFontService,sans-serif" font-style="italic" font-weight="400" font-size="41" transform="translate(2086.8 744)">}</text><text font-family="Tahoma,Tahoma_MSFontService,sans-serif" font-weight="400" font-size="41" transform="translate(2162.88 744)">)</text><text font-family="Times New Roman,Times New Roman_MSFontService,sans-serif" font-weight="400" font-size="41" transform="matrix(1 0 0 1 1611.05 795)">Compute</text><text font-family="Garamond,Garamond_MSFontService,sans-serif" font-style="italic" font-weight="400" font-size="41" transform="matrix(1 0 0 1 1772.41 795)">L</text><text font-family="Times New Roman,Times New Roman_MSFontService,sans-serif" font-weight="400" font-size="28" transform="matrix(1 0 0 1 1798.76 799)">update</text><text font-family="Times New Roman,Times New Roman_MSFontService,sans-serif" font-weight="400" font-size="41" transform="matrix(1 0 0 1 1884.13 795)">with</text><text font-family="Times New Roman,Times New Roman_MSFontService,sans-serif" font-weight="400" font-size="41" transform="matrix(1 0 0 1 1967.57 795)">(</text><text font-family="Garamond,Garamond_MSFontService,sans-serif" font-style="italic" font-weight="400" font-size="41" transform="matrix(1 0 0 1 1975.84 795)">M</text><text font-family="Tahoma,Tahoma_MSFontService,sans-serif" font-weight="400" font-size="41" transform="matrix(1 0 0 1 2004.16 785)">ˆ</text><text font-family="Times New Roman,Times New Roman_MSFontService,sans-serif" font-weight="400" font-size="41" transform="matrix(1 0 0 1 2030.33 795)">,</text><text font-family="Tahoma,Tahoma_MSFontService,sans-serif" font-weight="400" font-size="41" transform="matrix(1 0 0 1 2050.75 795)">Θ</text><text font-family="Verdana,Verdana_MSFontService,sans-serif" font-style="italic" font-weight="400" font-size="28" transform="matrix(1 0 0 1 2082.26 799)">G</text><text font-family="Times New Roman,Times New Roman_MSFontService,sans-serif" font-weight="400" font-size="41" transform="matrix(1 0 0 1 2105.75 795)">)</text><text font-family="Times New Roman,Times New Roman_MSFontService,sans-serif" font-weight="400" font-size="41" transform="matrix(1 0 0 1 1611.05 845)">Update</text><text font-family="Garamond,Garamond_MSFontService,sans-serif" font-style="italic" font-weight="400" font-size="41" transform="matrix(1 0 0 1 1741.68 845)">{</text><text font-family="Tahoma,Tahoma_MSFontService,sans-serif" font-weight="400" font-size="41" transform="matrix(1 0 0 1 1761.15 845)">Θ</text><text font-family="Garamond,Garamond_MSFontService,sans-serif" font-style="italic" font-weight="400" font-size="41" transform="matrix(1 0 0 1 1790.37 845)">}</text><text font-family="Cambria,Cambria_MSFontService,sans-serif" font-weight="400" font-size="28" transform="matrix(1 0 0 1 1809.85 830)">′</text><text font-family="Verdana,Verdana_MSFontService,sans-serif" font-style="italic" font-weight="400" font-size="28" transform="matrix(1 0 0 1 1816.73 852)">E,U,D</text><text font-family="Times New Roman,Times New Roman_MSFontService,sans-serif" font-weight="400" font-size="41" transform="matrix(1 0 0 1 1898.22 845)">,</text><text font-family="Tahoma,Tahoma_MSFontService,sans-serif" font-weight="400" font-size="41" transform="matrix(1 0 0 1 1906.47 845)">Θ</text><text font-family="Verdana,Verdana_MSFontService,sans-serif" font-style="italic" font-weight="400" font-size="28" transform="matrix(1 0 0 1 1933.63 852)">G</text><text font-family="Cambria,Cambria_MSFontService,sans-serif" font-weight="400" font-size="28" transform="matrix(1 0 0 1 1952.78 830)">∗</text><text font-family="Times New Roman,Times New Roman_MSFontService,sans-serif" font-weight="400" font-size="41" transform="matrix(1 0 0 1 1988.1 845)">from</text><text font-family="Garamond,Garamond_MSFontService,sans-serif" font-style="italic" font-weight="400" font-size="41" transform="matrix(1 0 0 1 2079.77 845)">{</text><text font-family="Tahoma,Tahoma_MSFontService,sans-serif" font-weight="400" font-size="41" transform="matrix(1 0 0 1 2101.99 845)">Θ</text><text font-family="Garamond,Garamond_MSFontService,sans-serif" font-style="italic" font-weight="400" font-size="41" transform="matrix(1 0 0 1 2133.96 845)">}</text><text font-family="Verdana,Verdana_MSFontService,sans-serif" font-style="italic" font-weight="400" font-size="28" transform="matrix(1 0 0 1 2156.19 848)">E,U,D,G</text><text font-family="Times New Roman,Times New Roman_MSFontService,sans-serif" font-weight="400" font-size="41" transform="matrix(1 0 0 1 2298.21 845)">in</text><text font-family="Times New Roman,Times New Roman_MSFontService,sans-serif" font-weight="400" font-size="41" transform="matrix(1 0 0 1 2341.98 845)">(</text><text fill="#0000FF" font-family="Times New Roman,Times New Roman_MSFontService,sans-serif" font-weight="400" font-size="41" text-decoration="underline" transform="matrix(1 0 0 1 2354.58 845)">9</text><text font-family="Times New Roman,Times New Roman_MSFontService,sans-serif" font-weight="400" font-size="41" transform="matrix(1 0 0 1 2374.06 845)">)</text><text font-family="Times New Roman,Times New Roman_MSFontService,sans-serif" font-style="italic" font-weight="700" font-size="41" transform="translate(1538.92 912)">Meta</text><text font-family="Times New Roman,Times New Roman_MSFontService,sans-serif" font-style="italic" font-weight="700" font-size="41" transform="translate(1624.17 912)">-</text><text font-family="Times New Roman,Times New Roman_MSFontService,sans-serif" font-style="italic" font-weight="700" font-size="41" transform="translate(1637.46 912)">testing</text><text font-family="Times New Roman,Times New Roman_MSFontService,sans-serif" font-weight="700" font-size="41" transform="translate(1746.55 912)">:</text><path d="M1564 1179.87 1564 929" stroke="#000000" stroke-width="1.82395" stroke-linejoin="round" stroke-miterlimit="10" fill="none" fill-rule="evenodd"/><path d="M1565 1179 1585.92 1179" stroke="#000000" stroke-width="1.82395" stroke-linejoin="round" stroke-miterlimit="10" fill="none" fill-rule="evenodd"/><text font-family="Cambria,Cambria_MSFontService,sans-serif" font-weight="400" font-size="28" transform="matrix(1 0 0 1 1661.56 945)">′</text><text font-family="Verdana,Verdana_MSFontService,sans-serif" font-style="italic" font-weight="400" font-size="28" transform="matrix(1 0 0 1 1982.4 945)">t</text><text font-family="Times New Roman,Times New Roman_MSFontService,sans-serif" font-weight="400" font-size="28" transform="translate(1976.41 970)">mtr</text><text font-family="Garamond,Garamond_MSFontService,sans-serif" font-style="italic" font-weight="400" font-size="41" transform="matrix(1 0 0 1 1611.05 961)">M</text><text font-family="Garamond,Garamond_MSFontService,sans-serif" font-style="italic" font-weight="400" font-size="41" transform="matrix(1 0 0 1 1688.85 961)">←</text><text font-family="Times New Roman,Times New Roman_MSFontService,sans-serif" font-weight="700" font-size="41" transform="matrix(1 0 0 1 1743.85 961)">update</text><text font-family="Tahoma,Tahoma_MSFontService,sans-serif" font-weight="400" font-size="41" transform="matrix(1 0 0 1 1865.31 961)">(</text><text font-family="Garamond,Garamond_MSFontService,sans-serif" font-style="italic" font-weight="400" font-size="41" transform="matrix(1 0 0 1 1881.35 961)">M</text><text font-family="Bookman Old Style,Bookman Old Style_MSFontService,sans-serif" font-style="italic" font-weight="300" font-size="41" transform="matrix(1 0 0 1 1915.15 961)">,</text><text font-family="Garamond,Garamond_MSFontService,sans-serif" font-style="italic" font-weight="400" font-size="41" transform="matrix(1 0 0 1 1936.01 961)">X</text><text font-family="Tahoma,Tahoma_MSFontService,sans-serif" font-weight="400" font-size="41" transform="matrix(1 0 0 1 2013.12 961)">;</text><text font-family="Times New Roman,Times New Roman_MSFontService,sans-serif" font-weight="400" font-size="41" transform="matrix(1 0 0 1 2032.83 961)">copy</text><text font-family="Cambria,Cambria_MSFontService,sans-serif" font-weight="400" font-size="28" transform="matrix(1 0 0 1 2164.27 945)">′</text><text font-family="Cambria,Cambria_MSFontService,sans-serif" font-weight="400" font-size="28" transform="matrix(1 0 0 1 2260.52 945)">′</text><text font-family="Verdana,Verdana_MSFontService,sans-serif" font-style="italic" font-weight="400" font-size="28" transform="translate(2164.27 971)">E</text><text font-family="Verdana,Verdana_MSFontService,sans-serif" font-style="italic" font-weight="400" font-size="28" transform="translate(2260.52 971)">U</text><text font-family="Tahoma,Tahoma_MSFontService,sans-serif" font-weight="400" font-size="41" transform="matrix(1 0 0 1 2114.99 962)">(Θ</text><text font-family="Tahoma,Tahoma_MSFontService,sans-serif" font-weight="400" font-size="41" transform="matrix(1 0 0 1 2190.85 962)">)</text><text font-family="Bookman Old Style,Bookman Old Style_MSFontService,sans-serif" font-style="italic" font-weight="300" font-size="41" transform="matrix(1 0 0 1 2206.43 962)">,</text><text font-family="Tahoma,Tahoma_MSFontService,sans-serif" font-weight="400" font-size="41" transform="matrix(1 0 0 1 2226.14 962)">Θ</text><text font-family="Tahoma,Tahoma_MSFontService,sans-serif" font-weight="400" font-size="41" transform="matrix(1 0 0 1 2289.16 962)">)</text><text font-family="Times New Roman,Times New Roman_MSFontService,sans-serif" font-weight="400" font-size="41" transform="matrix(1 0 0 1 1611.05 1010)">Sample</text><text font-family="Times New Roman,Times New Roman_MSFontService,sans-serif" font-weight="400" font-size="41" transform="matrix(1 0 0 1 1743.74 1010)">batch</text><text font-family="Garamond,Garamond_MSFontService,sans-serif" font-style="italic" font-weight="400" font-size="41" transform="matrix(1 0 0 1 1842.05 1010)">X</text><text font-family="Times New Roman,Times New Roman_MSFontService,sans-serif" font-weight="400" font-size="41" transform="matrix(1 0 0 1 1927.53 1010)">=</text><text font-family="Garamond,Garamond_MSFontService,sans-serif" font-style="italic" font-weight="400" font-size="41" transform="matrix(1 0 0 1 1961.1 1010)">{X</text><text font-family="Garamond,Garamond_MSFontService,sans-serif" font-style="italic" font-weight="400" font-size="41" transform="matrix(1 0 0 1 2054.49 1010)">}</text><text font-family="Verdana,Verdana_MSFontService,sans-serif" font-style="italic" font-weight="400" font-size="28" transform="translate(1880.01 995)">t</text><text font-family="Verdana,Verdana_MSFontService,sans-serif" font-style="italic" font-weight="400" font-size="28" transform="translate(2018.2 995)">b</text><text font-family="Verdana,Verdana_MSFontService,sans-serif" font-style="italic" font-weight="400" font-size="28" transform="translate(2035.39 995)">  </text><text font-family="Verdana,Verdana_MSFontService,sans-serif" font-style="italic" font-weight="400" font-size="28" transform="translate(2054.87 995)">B</text><text font-family="Times New Roman,Times New Roman_MSFontService,sans-serif" font-weight="400" font-size="28" transform="matrix(1 0 0 1 1874 1018)">mte</text><text font-family="Times New Roman,Times New Roman_MSFontService,sans-serif" font-weight="400" font-size="28" transform="matrix(1 0 0 1 2012.18 1018)">mte</text><text font-family="Verdana,Verdana_MSFontService,sans-serif" font-style="italic" font-weight="400" font-size="28" transform="matrix(1 0 0 1 2075.78 1020)">b</text><text font-family="Garamond,Garamond_MSFontService,sans-serif" font-weight="400" font-size="28" transform="matrix(1 0 0 1 2094.57 1020)">=1</text><text font-family="Times New Roman,Times New Roman_MSFontService,sans-serif" font-weight="400" font-size="41" transform="translate(2146.74 1009)">from</text><text font-family="Times New Roman,Times New Roman_MSFontService,sans-serif" font-weight="400" font-size="41" transform="translate(2226.95 1009)"> </text><text font-family="Euclid,Euclid_MSFontService,sans-serif" font-weight="400" font-size="41" transform="translate(2237.26 1009)">S</text><text font-family="Times New Roman,Times New Roman_MSFontService,sans-serif" font-weight="400" font-size="28" transform="translate(2259.26 1013)">mte</text><text font-family="Times New Roman,Times New Roman_MSFontService,sans-serif" font-weight="400" font-size="28" transform="matrix(1 0 0 1 1801.12 1068)">read</text><text font-family="Times New Roman,Times New Roman_MSFontService,sans-serif" font-weight="400" font-size="41" transform="matrix(1 0 0 1 1611.05 1060)">Compute</text><text font-family="Garamond,Garamond_MSFontService,sans-serif" font-style="italic" font-weight="400" font-size="41" transform="matrix(1 0 0 1 1770.78 1060)">L</text><text font-family="Times New Roman,Times New Roman_MSFontService,sans-serif" font-weight="400" font-size="41" transform="matrix(1 0 0 1 1860.61 1060)">with</text><text font-family="Times New Roman,Times New Roman_MSFontService,sans-serif" font-weight="400" font-size="41" transform="matrix(1 0 0 1 1943.11 1060)">(</text><text font-family="Times New Roman,Times New Roman_MSFontService,sans-serif" font-weight="400" font-size="28" transform="translate(1987.95 1070)">mte</text><text font-family="Verdana,Verdana_MSFontService,sans-serif" font-style="italic" font-weight="400" font-size="28" transform="matrix(1 0 0 1 1993.96 1046)">t</text><text font-family="Cambria,Cambria_MSFontService,sans-serif" font-weight="400" font-size="28" transform="matrix(1 0 0 1 2112.22 1046)">′</text><text font-family="Cambria,Cambria_MSFontService,sans-serif" font-weight="400" font-size="28" transform="matrix(1 0 0 1 2227.72 1046)">′</text><text font-family="Verdana,Verdana_MSFontService,sans-serif" font-style="italic" font-weight="400" font-size="28" transform="matrix(1 0 0 1 2227.89 1071)">E,D</text><text font-family="Garamond,Garamond_MSFontService,sans-serif" font-style="italic" font-weight="400" font-size="41" transform="translate(1957.85 1061)">X</text><text font-family="Garamond,Garamond_MSFontService,sans-serif" font-style="italic" font-weight="400" font-size="41" transform="translate(1988.21 1061)">  </text><text font-family="Bookman Old Style,Bookman Old Style_MSFontService,sans-serif" font-style="italic" font-weight="300" font-size="41" transform="translate(2008.84 1061)">,</text><text font-family="Bookman Old Style,Bookman Old Style_MSFontService,sans-serif" font-style="italic" font-weight="300" font-size="41" transform="translate(2021.44 1061)"> </text><text font-family="Garamond,Garamond_MSFontService,sans-serif" font-style="italic" font-weight="400" font-size="41" transform="translate(2034.05 1061)">M</text><text font-family="Garamond,Garamond_MSFontService,sans-serif" font-style="italic" font-weight="400" font-size="41" transform="translate(2084.12 1061)"> </text><text font-family="Bookman Old Style,Bookman Old Style_MSFontService,sans-serif" font-style="italic" font-weight="300" font-size="41" transform="translate(2110.7 1061)">,</text><text font-family="Bookman Old Style,Bookman Old Style_MSFontService,sans-serif" font-style="italic" font-weight="300" font-size="41" transform="translate(2123.31 1061)"> </text><text font-family="Garamond,Garamond_MSFontService,sans-serif" font-style="italic" font-weight="400" font-size="41" transform="translate(2135.91 1061)">{</text><text font-family="Tahoma,Tahoma_MSFontService,sans-serif" font-weight="400" font-size="41" transform="translate(2154.24 1061)">Θ</text><text font-family="Garamond,Garamond_MSFontService,sans-serif" font-style="italic" font-weight="400" font-size="41" transform="translate(2182.32 1061)">}</text><text font-family="Times New Roman,Times New Roman_MSFontService,sans-serif" font-weight="400" font-size="41" transform="translate(2305.04 1061)">)</text><text font-family="Times New Roman,Times New Roman_MSFontService,sans-serif" font-weight="400" font-size="41" transform="matrix(1 0 0 1 1611.05 1112)">Update</text><text font-family="Garamond,Garamond_MSFontService,sans-serif" font-style="italic" font-weight="400" font-size="41" transform="matrix(1 0 0 1 1744.43 1112)">{</text><text font-family="Tahoma,Tahoma_MSFontService,sans-serif" font-weight="400" font-size="41" transform="matrix(1 0 0 1 1763.9 1112)">Θ</text><text font-family="Garamond,Garamond_MSFontService,sans-serif" font-style="italic" font-weight="400" font-size="41" transform="matrix(1 0 0 1 1793.12 1112)">}</text><text font-family="Cambria,Cambria_MSFontService,sans-serif" font-weight="400" font-size="28" transform="matrix(1 0 0 1 1812.6 1097)">∗</text><text font-family="Verdana,Verdana_MSFontService,sans-serif" font-style="italic" font-weight="400" font-size="28" transform="matrix(1 0 0 1 1825.78 1119)">E,U,D</text><text font-family="Times New Roman,Times New Roman_MSFontService,sans-serif" font-weight="400" font-size="41" transform="matrix(1 0 0 1 1922.6 1112)">from</text><text font-family="Garamond,Garamond_MSFontService,sans-serif" font-style="italic" font-weight="400" font-size="41" transform="matrix(1 0 0 1 2017.25 1112)">{</text><text font-family="Tahoma,Tahoma_MSFontService,sans-serif" font-weight="400" font-size="41" transform="matrix(1 0 0 1 2036.73 1112)">Θ</text><text font-family="Garamond,Garamond_MSFontService,sans-serif" font-style="italic" font-weight="400" font-size="41" transform="matrix(1 0 0 1 2065.95 1112)">}</text><text font-family="Cambria,Cambria_MSFontService,sans-serif" font-weight="400" font-size="28" transform="matrix(1 0 0 1 2085.43 1097)">′</text><text font-family="Verdana,Verdana_MSFontService,sans-serif" font-style="italic" font-weight="400" font-size="28" transform="matrix(1 0 0 1 2092.3 1119)">E,U,D</text><text font-family="Times New Roman,Times New Roman_MSFontService,sans-serif" font-weight="400" font-size="41" transform="matrix(1 0 0 1 2189.12 1112)">in</text><text font-family="Times New Roman,Times New Roman_MSFontService,sans-serif" font-weight="400" font-size="41" transform="matrix(1 0 0 1 2235.42 1112)">(</text><text fill="#0000FF" font-family="Times New Roman,Times New Roman_MSFontService,sans-serif" font-weight="400" font-size="41" text-decoration="underline" transform="matrix(1 0 0 1 2248.25 1112)">11</text><text font-family="Times New Roman,Times New Roman_MSFontService,sans-serif" font-weight="400" font-size="41" transform="matrix(1 0 0 1 2287.67 1112)">)</text><text font-family="Garamond,Garamond_MSFontService,sans-serif" font-style="italic" font-weight="400" font-size="41" transform="translate(1611.05 1161)">M</text><text font-family="Garamond,Garamond_MSFontService,sans-serif" font-style="italic" font-weight="400" font-size="41" transform="translate(1661.12 1161)"> </text><text font-family="Garamond,Garamond_MSFontService,sans-serif" font-style="italic" font-weight="400" font-size="41" transform="translate(1687.71 1161)">←</text><text font-family="Garamond,Garamond_MSFontService,sans-serif" font-style="italic" font-weight="400" font-size="41" transform="translate(1745.23 1161)"> </text><text font-family="Times New Roman,Times New Roman_MSFontService,sans-serif" font-weight="700" font-size="41" transform="translate(1611.05 1212)">update</text><text font-family="Cambria,Cambria_MSFontService,sans-serif" font-weight="400" font-size="28" transform="matrix(1 0 0 1 1661.56 1146)">∗</text><text font-family="Verdana,Verdana_MSFontService,sans-serif" font-style="italic" font-weight="400" font-size="28" transform="matrix(1 0 0 1 1989.73 1146)">t</text><text font-family="Times New Roman,Times New Roman_MSFontService,sans-serif" font-weight="400" font-size="28" transform="matrix(1 0 0 1 1983.89 1171)">mtr</text><text font-family="Tahoma,Tahoma_MSFontService,sans-serif" font-weight="400" font-size="41" transform="translate(1868.08 1162)">(</text><text font-family="Garamond,Garamond_MSFontService,sans-serif" font-style="italic" font-weight="400" font-size="41" transform="translate(1889.35 1162)">M</text><text font-family="Bookman Old Style,Bookman Old Style_MSFontService,sans-serif" font-style="italic" font-weight="300" font-size="41" transform="translate(1928.37 1162)">,</text><text font-family="Bookman Old Style,Bookman Old Style_MSFontService,sans-serif" font-style="italic" font-weight="300" font-size="41" transform="translate(1946.2 1162)"> </text><text font-family="Garamond,Garamond_MSFontService,sans-serif" font-style="italic" font-weight="400" font-size="41" transform="translate(1964.03 1162)">X</text><text font-family="Tahoma,Tahoma_MSFontService,sans-serif" font-weight="400" font-size="41" transform="translate(2033.54 1162)">;</text><text font-family="Tahoma,Tahoma_MSFontService,sans-serif" font-weight="400" font-size="41" transform="translate(2044.65 1162)"> </text><text font-family="Times New Roman,Times New Roman_MSFontService,sans-serif" font-weight="400" font-size="41" transform="translate(2054.62 1162)">copy</text><text font-family="Cambria,Cambria_MSFontService,sans-serif" font-weight="400" font-size="28" transform="matrix(1 0 0 1 2223.38 1146)">∗</text><text font-family="Verdana,Verdana_MSFontService,sans-serif" font-style="italic" font-weight="400" font-size="28" transform="matrix(1 0 0 1 2223.38 1172)">E,U</text><text font-family="Tahoma,Tahoma_MSFontService,sans-serif" font-weight="400" font-size="41" transform="translate(2131.86 1162)">(</text><text font-family="Garamond,Garamond_MSFontService,sans-serif" font-style="italic" font-weight="400" font-size="41" transform="translate(2146.99 1162)">{</text><text font-family="Tahoma,Tahoma_MSFontService,sans-serif" font-weight="400" font-size="41" transform="translate(2165.55 1162)">Θ</text><text font-family="Garamond,Garamond_MSFontService,sans-serif" font-style="italic" font-weight="400" font-size="41" transform="translate(2193.85 1162)">}</text><text font-family="Tahoma,Tahoma_MSFontService,sans-serif" font-weight="400" font-size="41" transform="translate(2287.93 1162)">))</text><text font-family="Garamond,Garamond_MSFontService,sans-serif" font-style="italic" font-weight="400" font-size="41" transform="matrix(1 0 0 1 1540.73 1224)">{</text><text font-family="Tahoma,Tahoma_MSFontService,sans-serif" font-weight="400" font-size="41" transform="matrix(1 0 0 1 1559.07 1224)">Θ</text><text font-family="Garamond,Garamond_MSFontService,sans-serif" font-style="italic" font-weight="400" font-size="41" transform="matrix(1 0 0 1 1587.14 1224)">}</text><text font-family="Garamond,Garamond_MSFontService,sans-serif" font-style="italic" font-weight="400" font-size="41" transform="matrix(1 0 0 1 1763.71 1224)">←</text><text font-family="Garamond,Garamond_MSFontService,sans-serif" font-style="italic" font-weight="400" font-size="41" transform="matrix(1 0 0 1 1817.34 1224)">{</text><text font-family="Tahoma,Tahoma_MSFontService,sans-serif" font-weight="400" font-size="41" transform="matrix(1 0 0 1 1838.19 1224)">Θ</text><text font-family="Garamond,Garamond_MSFontService,sans-serif" font-style="italic" font-weight="400" font-size="41" transform="matrix(1 0 0 1 1868.79 1224)">}</text><text font-family="Cambria,Cambria_MSFontService,sans-serif" font-weight="400" font-size="28" transform="matrix(1 0 0 1 1889.64 1209)">∗</text><text font-family="Verdana,Verdana_MSFontService,sans-serif" font-style="italic" font-weight="400" font-size="28" transform="translate(1615.82 1230)">E,U,D,G</text><text font-family="Verdana,Verdana_MSFontService,sans-serif" font-style="italic" font-weight="400" font-size="28" transform="translate(1892.88 1234)">E,U,D,G</text><text font-family="Garamond,Garamond_MSFontService,sans-serif" font-style="italic" font-weight="400" font-size="41" transform="matrix(1 0 0 1 1540.73 1274)">M</text><text font-family="Garamond,Garamond_MSFontService,sans-serif" font-style="italic" font-weight="400" font-size="41" transform="matrix(1 0 0 1 1602.72 1274)">←</text><text font-family="Garamond,Garamond_MSFontService,sans-serif" font-style="italic" font-weight="400" font-size="41" transform="matrix(1 0 0 1 1656.12 1274)">M</text><text font-family="Cambria,Cambria_MSFontService,sans-serif" font-weight="400" font-size="28" transform="matrix(1 0 0 1 1698.86 1259)">∗</text><text font-family="Bookman Old Style,Bookman Old Style_MSFontService,sans-serif" font-style="italic" font-weight="300" font-size="41" text-decoration="underline" transform="matrix(1 0 0 1 1540.51 1325)">t </text><text font-family="Garamond,Garamond_MSFontService,sans-serif" font-style="italic" font-weight="400" font-size="41" text-decoration="underline" transform="matrix(1 0 0 1 1566.87 1325)">←</text><text font-family="Bookman Old Style,Bookman Old Style_MSFontService,sans-serif" font-style="italic" font-weight="300" font-size="41" text-decoration="underline" transform="matrix(1 0 0 1 1620.72 1325)">t</text><text font-family="Tahoma,Tahoma_MSFontService,sans-serif" font-weight="400" font-size="41" text-decoration="underline" transform="matrix(1 0 0 1 1645.01 1325)">+</text><text font-family="Tahoma,Tahoma_MSFontService,sans-serif" font-weight="400" font-size="41" text-decoration="underline" transform="matrix(1 0 0 1 1687.52 1325)">1</text><path d="M1495 1332 1515.92 1332" stroke="#000000" stroke-width="1.82395" stroke-linejoin="round" stroke-miterlimit="10" fill="none" fill-rule="evenodd"/></g></svg>