<svg width="1144" height="472" xmlns="http://www.w3.org/2000/svg" xmlns:xlink="http://www.w3.org/1999/xlink" xml:space="preserve" overflow="hidden"><defs><clipPath id="clip0"><rect x="1383" y="1482" width="1144" height="472"/></clipPath><clipPath id="clip1"><rect x="1424" y="1387" width="155" height="257"/></clipPath><clipPath id="clip2"><rect x="1578" y="1387" width="246" height="257"/></clipPath><clipPath id="clip3"><rect x="1578" y="1387" width="246" height="257"/></clipPath><clipPath id="clip4"><rect x="1823" y="1387" width="189" height="257"/></clipPath><clipPath id="clip5"><rect x="2011" y="1387" width="189" height="257"/></clipPath><clipPath id="clip6"><rect x="1424" y="1526" width="155" height="258"/></clipPath><clipPath id="clip7"><rect x="1424" y="1569" width="155" height="257"/></clipPath><clipPath id="clip8"><rect x="1424" y="1611" width="155" height="258"/></clipPath><clipPath id="clip9"><rect x="2378" y="1611" width="120" height="258"/></clipPath></defs><g clip-path="url(#clip0)" transform="translate(-1383 -1482)"><path d="M1424.53 1546.1 1578.99 1546.1 1578.99 1593.76 1424.53 1593.76Z" fill="#F2F2F2" fill-rule="evenodd"/><path d="M1578.99 1546.1 1823.74 1546.1 1823.74 1593.76 1578.99 1593.76Z" fill="#F2F2F2" fill-rule="evenodd"/><path d="M1823.74 1546.1 2011.42 1546.1 2011.42 1593.76 1823.74 1593.76Z" fill="#F2F2F2" fill-rule="evenodd"/><path d="M2011.42 1546.1 2199.11 1546.1 2199.11 1593.76 2011.42 1593.76Z" fill="#F2F2F2" fill-rule="evenodd"/><path d="M2199.11 1546.1 2378.32 1546.1 2378.32 1593.76 2199.11 1593.76Z" fill="#F2F2F2" fill-rule="evenodd"/><path d="M2378.32 1546.1 2497.71 1546.1 2497.71 1593.76 2378.32 1593.76Z" fill="#F2F2F2" fill-rule="evenodd"/><path d="M1424.53 1636.39 1578.99 1636.39 1578.99 1679.01 1424.53 1679.01Z" fill="#F2F2F2" fill-rule="evenodd"/><path d="M1578.99 1636.39 1823.74 1636.39 1823.74 1679.01 1578.99 1679.01Z" fill="#F2F2F2" fill-rule="evenodd"/><path d="M1823.74 1636.39 2011.42 1636.39 2011.42 1679.01 1823.74 1679.01Z" fill="#F2F2F2" fill-rule="evenodd"/><path d="M2011.42 1636.39 2199.11 1636.39 2199.11 1679.01 2011.42 1679.01Z" fill="#F2F2F2" fill-rule="evenodd"/><path d="M2199.11 1636.39 2378.32 1636.39 2378.32 1679.01 2199.11 1679.01Z" fill="#F2F2F2" fill-rule="evenodd"/><path d="M2378.32 1636.39 2497.71 1636.39 2497.71 1679.01 2378.32 1679.01Z" fill="#F2F2F2" fill-rule="evenodd"/><path d="M1424.53 1721.64 1578.99 1721.64 1578.99 1765.64 1424.53 1765.64Z" fill="#F2F2F2" fill-rule="evenodd"/><path d="M1578.99 1721.64 1823.74 1721.64 1823.74 1765.64 1578.99 1765.64Z" fill="#F2F2F2" fill-rule="evenodd"/><path d="M1823.74 1721.64 2011.42 1721.64 2011.42 1765.64 1823.74 1765.64Z" fill="#F2F2F2" fill-rule="evenodd"/><path d="M2011.42 1721.64 2199.11 1721.64 2199.11 1765.64 2011.42 1765.64Z" fill="#F2F2F2" fill-rule="evenodd"/><path d="M2199.11 1721.64 2378.32 1721.64 2378.32 1765.64 2199.11 1765.64Z" fill="#F2F2F2" fill-rule="evenodd"/><path d="M2378.32 1721.64 2497.71 1721.64 2497.71 1765.64 2378.32 1765.64Z" fill="#F2F2F2" fill-rule="evenodd"/><path d="M1823.74 1495.34 1823.74 1767.36" stroke="#000000" stroke-width="2.29167" stroke-linejoin="round" stroke-miterlimit="10" fill="none" fill-rule="evenodd"/><path d="M2011.42 1495.34 2011.42 1767.36" stroke="#000000" stroke-width="2.29167" stroke-linejoin="round" stroke-miterlimit="10" fill="none" fill-rule="evenodd"/><path d="M2199.11 1495.34 2199.11 1767.36" stroke="#000000" stroke-width="2.29167" stroke-linejoin="round" stroke-miterlimit="10" fill="none" fill-rule="evenodd"/><path d="M2378.32 1495.34 2378.32 1767.36" stroke="#000000" stroke-width="2.29167" stroke-linejoin="round" stroke-miterlimit="10" fill="none" fill-rule="evenodd"/><path d="M1424.53 1546.1 2497.71 1546.1" stroke="#000000" stroke-width="2.29167" stroke-linejoin="round" stroke-miterlimit="10" fill="none" fill-rule="evenodd"/><path d="M1424.53 1497.05 2497.71 1497.05" stroke="#000000" stroke-width="3.4375" stroke-linejoin="round" stroke-miterlimit="10" fill="none" fill-rule="evenodd"/><path d="M1424.53 1765.64 2497.71 1765.64" stroke="#000000" stroke-width="3.4375" stroke-linejoin="round" stroke-miterlimit="10" fill="none" fill-rule="evenodd"/><g clip-path="url(#clip1)"><text font-family="Times New Roman,Times New Roman_MSFontService,sans-serif" font-weight="400" font-size="34" transform="matrix(1 0 0 1 1447.56 1526)">Training</text></g><g clip-path="url(#clip2)"><text font-family="Times New Roman,Times New Roman_MSFontService,sans-serif" font-weight="400" font-size="34" transform="matrix(1 0 0 1 1592.91 1526)">Memory</text></g><g clip-path="url(#clip3)"><text font-family="Times New Roman,Times New Roman_MSFontService,sans-serif" font-weight="400" font-size="34" transform="matrix(1 0 0 1 1744.73 1526)">M.L.</text></g><g clip-path="url(#clip4)"><text font-family="Times New Roman,Times New Roman_MSFontService,sans-serif" font-weight="400" font-size="34" transform="matrix(1 0 0 1 1848.89 1526)">Cityscapes</text></g><g clip-path="url(#clip5)"><text font-family="Times New Roman,Times New Roman_MSFontService,sans-serif" font-weight="400" font-size="34" transform="matrix(1 0 0 1 2036.46 1526)">BDD100K</text></g><text font-family="Times New Roman,Times New Roman_MSFontService,sans-serif" font-weight="400" font-size="34" transform="matrix(1 0 0 1 2223.86 1526)">Mapillary</text><text font-family="Times New Roman,Times New Roman_MSFontService,sans-serif" font-weight="400" font-size="34" transform="matrix(1 0 0 1 2406.39 1526)">Avg.</text><text font-family="Times New Roman,Times New Roman_MSFontService,sans-serif" font-weight="400" font-size="34" transform="matrix(1 0 0 1 1466.01 1580)">Agg.</text><text font-family="MS PGothic,MS PGothic_MSFontService,sans-serif" font-weight="400" font-size="34" transform="translate(1635.93 1582)">✗</text><text font-family="MS PGothic,MS PGothic_MSFontService,sans-serif" font-weight="400" font-size="34" transform="translate(1763.12 1582)">✗</text><text font-family="Times New Roman,Times New Roman_MSFontService,sans-serif" font-weight="400" font-size="34" transform="matrix(1 0 0 1 1880.05 1580)">33.42</text><text font-family="Times New Roman,Times New Roman_MSFontService,sans-serif" font-weight="400" font-size="34" transform="matrix(1 0 0 1 2067.74 1580)">29.07</text><text font-family="Times New Roman,Times New Roman_MSFontService,sans-serif" font-weight="400" font-size="34" transform="matrix(1 0 0 1 2251.19 1580)">31.90</text><text font-family="Times New Roman,Times New Roman_MSFontService,sans-serif" font-weight="400" font-size="34" transform="matrix(1 0 0 1 2402.09 1580)">31.46</text><text font-family="Times New Roman,Times New Roman_MSFontService,sans-serif" font-weight="400" font-size="34" transform="matrix(1 0 0 1 1466.01 1623)">Agg.</text><text font-family="MS PGothic,MS PGothic_MSFontService,sans-serif" font-weight="400" font-size="34" transform="matrix(1 0 0 1 1631.01 1625)">✓</text><text font-family="MS PGothic,MS PGothic_MSFontService,sans-serif" font-weight="400" font-size="34" transform="translate(1761.86 1625)">✗</text><text font-family="Times New Roman,Times New Roman_MSFontService,sans-serif" font-weight="400" font-size="34" transform="matrix(1 0 0 1 1880.05 1623)">38.28</text><text font-family="Times New Roman,Times New Roman_MSFontService,sans-serif" font-weight="400" font-size="34" transform="matrix(1 0 0 1 2067.74 1623)">31.46</text><text font-family="Times New Roman,Times New Roman_MSFontService,sans-serif" font-weight="400" font-size="34" transform="matrix(1 0 0 1 2251.19 1623)">32.25</text><text font-family="Times New Roman,Times New Roman_MSFontService,sans-serif" font-weight="400" font-size="34" transform="matrix(1 0 0 1 2402.09 1623)">34.00</text><g clip-path="url(#clip6)"><text font-family="Times New Roman,Times New Roman_MSFontService,sans-serif" font-weight="400" font-size="34" transform="matrix(1 0 0 1 1448.3 1665)">Episodic</text></g><text font-family="MS PGothic,MS PGothic_MSFontService,sans-serif" font-weight="400" font-size="34" transform="translate(1632.04 1667)">✗</text><text font-family="MS PGothic,MS PGothic_MSFontService,sans-serif" font-weight="400" font-size="34" transform="translate(1756.02 1667)">✓</text><text font-family="Times New Roman,Times New Roman_MSFontService,sans-serif" font-weight="400" font-size="34" transform="matrix(1 0 0 1 1880.05 1665)">38.84</text><text font-family="Times New Roman,Times New Roman_MSFontService,sans-serif" font-weight="400" font-size="34" transform="matrix(1 0 0 1 2067.74 1665)">31.95</text><text font-family="Times New Roman,Times New Roman_MSFontService,sans-serif" font-weight="400" font-size="34" transform="matrix(1 0 0 1 2251.19 1665)">35.60</text><text font-family="Times New Roman,Times New Roman_MSFontService,sans-serif" font-weight="400" font-size="34" transform="matrix(1 0 0 1 2402.09 1665)">35.46</text><g clip-path="url(#clip7)"><text font-family="Times New Roman,Times New Roman_MSFontService,sans-serif" font-weight="400" font-size="34" transform="matrix(1 0 0 1 1448.3 1708)">Episodic</text></g><text font-family="MS PGothic,MS PGothic_MSFontService,sans-serif" font-weight="400" font-size="34" transform="matrix(1 0 0 1 1631.01 1710)">✓</text><text font-family="MS PGothic,MS PGothic_MSFontService,sans-serif" font-weight="400" font-size="34" transform="translate(1761.86 1710)">✗</text><text font-family="Times New Roman,Times New Roman_MSFontService,sans-serif" font-weight="400" font-size="34" transform="matrix(1 0 0 1 1880.05 1708)">41.50</text><text font-family="Times New Roman,Times New Roman_MSFontService,sans-serif" font-weight="400" font-size="34" transform="matrix(1 0 0 1 2067.74 1708)">38.00</text><text font-family="Times New Roman,Times New Roman_MSFontService,sans-serif" font-weight="400" font-size="34" transform="matrix(1 0 0 1 2251.19 1708)">40.22</text><text font-family="Times New Roman,Times New Roman_MSFontService,sans-serif" font-weight="400" font-size="34" transform="matrix(1 0 0 1 2402.09 1708)">39.91</text><g clip-path="url(#clip8)"><text font-family="Times New Roman,Times New Roman_MSFontService,sans-serif" font-weight="400" font-size="34" transform="matrix(1 0 0 1 1448.3 1751)">Episodic</text></g><text font-family="MS PGothic,MS PGothic_MSFontService,sans-serif" font-weight="400" font-size="34" transform="translate(1631.24 1753)">✓</text><text font-family="MS PGothic,MS PGothic_MSFontService,sans-serif" font-weight="400" font-size="34" transform="translate(1758.65 1753)">✓</text><text font-family="Times New Roman,Times New Roman_MSFontService,sans-serif" font-weight="700" font-size="34" transform="matrix(1 0 0 1 1880.05 1751)">44.51</text><text font-family="Times New Roman,Times New Roman_MSFontService,sans-serif" font-weight="700" font-size="34" transform="matrix(1 0 0 1 2067.74 1751)">38.07</text><text font-family="Times New Roman,Times New Roman_MSFontService,sans-serif" font-weight="700" font-size="34" transform="matrix(1 0 0 1 2251.19 1751)">42.70</text><g clip-path="url(#clip9)"><text font-family="Times New Roman,Times New Roman_MSFontService,sans-serif" font-weight="700" font-size="34" transform="matrix(1 0 0 1 2402.9 1751)">41.76</text></g><text font-family="Times New Roman,Times New Roman_MSFontService,sans-serif" font-weight="400" font-size="41" transform="matrix(1 0 0 1 1414.3 1819)">Table</text><text font-family="Times New Roman,Times New Roman_MSFontService,sans-serif" font-weight="400" font-size="41" transform="matrix(1 0 0 1 1523.45 1819)">7</text><text font-family="Times New Roman,Times New Roman_MSFontService,sans-serif" font-weight="400" font-size="41" transform="matrix(1 0 0 1 1544.07 1819)">.</text><text font-family="Times New Roman,Times New Roman_MSFontService,sans-serif" font-weight="400" font-size="41" transform="matrix(1 0 0 1 1569.58 1819)">Ablation</text><text font-family="Times New Roman,Times New Roman_MSFontService,sans-serif" font-weight="400" font-size="41" transform="matrix(1 0 0 1 1729.15 1819)">study</text><text font-family="Times New Roman,Times New Roman_MSFontService,sans-serif" font-weight="400" font-size="41" transform="matrix(1 0 0 1 1833.72 1819)">on</text><text font-family="Times New Roman,Times New Roman_MSFontService,sans-serif" font-weight="400" font-size="41" transform="matrix(1 0 0 1 1890.16 1819)">the</text><text font-family="Times New Roman,Times New Roman_MSFontService,sans-serif" font-weight="400" font-size="41" transform="matrix(1 0 0 1 1955.8 1819)">variants</text><text font-family="Times New Roman,Times New Roman_MSFontService,sans-serif" font-weight="400" font-size="41" transform="matrix(1 0 0 1 2101.64 1819)">of</text><text font-family="Times New Roman,Times New Roman_MSFontService,sans-serif" font-weight="400" font-size="41" transform="matrix(1 0 0 1 2151.23 1819)">the</text><text font-family="Times New Roman,Times New Roman_MSFontService,sans-serif" font-weight="400" font-size="41" transform="matrix(1 0 0 1 2216.86 1819)">memory</text><text font-family="Times New Roman,Times New Roman_MSFontService,sans-serif" font-weight="400" font-size="41" transform="matrix(1 0 0 1 2369.58 1819)">learning</text><text font-family="Times New Roman,Times New Roman_MSFontService,sans-serif" font-weight="400" font-size="41" transform="matrix(1 0 0 1 1408.8 1869)">method</text><text font-family="Times New Roman,Times New Roman_MSFontService,sans-serif" font-weight="400" font-size="41" transform="matrix(1 0 0 1 1532.55 1869)">.</text><text font-family="Times New Roman,Times New Roman_MSFontService,sans-serif" font-weight="400" font-size="41" transform="matrix(1 0 0 1 1559.96 1869)">We</text><text font-family="Times New Roman,Times New Roman_MSFontService,sans-serif" font-weight="400" font-size="41" transform="matrix(1 0 0 1 1634.34 1869)">denote</text><text font-family="Times New Roman,Times New Roman_MSFontService,sans-serif" font-weight="400" font-size="41" transform="matrix(1 0 0 1 1761.44 1869)">the</text><text font-family="Times New Roman,Times New Roman_MSFontService,sans-serif" font-weight="400" font-size="41" transform="matrix(1 0 0 1 1828.95 1869)">baseline</text><text font-family="Times New Roman,Times New Roman_MSFontService,sans-serif" font-weight="400" font-size="41" transform="matrix(1 0 0 1 1981.26 1869)">as</text><text font-family="Times New Roman,Times New Roman_MSFontService,sans-serif" font-weight="400" font-size="41" transform="matrix(1 0 0 1 2032.73 1869)">‘Agg</text><text font-family="Times New Roman,Times New Roman_MSFontService,sans-serif" font-weight="400" font-size="41" transform="matrix(1 0 0 1 2117.52 1869)">.</text><text font-family="Times New Roman,Times New Roman_MSFontService,sans-serif" font-weight="400" font-size="41" transform="matrix(1 0 0 1 2127.83 1869)">’,</text><text font-family="Times New Roman,Times New Roman_MSFontService,sans-serif" font-weight="400" font-size="41" transform="matrix(1 0 0 1 2168.99 1869)">episodic</text><text font-family="Times New Roman,Times New Roman_MSFontService,sans-serif" font-weight="400" font-size="41" transform="matrix(1 0 0 1 2323.58 1869)">training</text><text font-family="Times New Roman,Times New Roman_MSFontService,sans-serif" font-weight="400" font-size="41" transform="matrix(1 0 0 1 2469.04 1869)">as</text><text font-family="Times New Roman,Times New Roman_MSFontService,sans-serif" font-weight="400" font-size="41" transform="matrix(1 0 0 1 1408.8 1919)">‘Episodic’</text><text font-family="Times New Roman,Times New Roman_MSFontService,sans-serif" font-weight="400" font-size="41" transform="matrix(1 0 0 1 1590.07 1919)">and</text><text font-family="Times New Roman,Times New Roman_MSFontService,sans-serif" font-weight="400" font-size="41" transform="matrix(1 0 0 1 1659.05 1919)">the</text><text font-family="Times New Roman,Times New Roman_MSFontService,sans-serif" font-weight="400" font-size="41" transform="matrix(1 0 0 1 1719.09 1919)">second</text><text font-family="Times New Roman,Times New Roman_MSFontService,sans-serif" font-weight="400" font-size="41" transform="matrix(1 0 0 1 1830.92 1919)">-</text><text font-family="Times New Roman,Times New Roman_MSFontService,sans-serif" font-weight="400" font-size="41" transform="matrix(1 0 0 1 1844.21 1919)">order</text><text font-family="Times New Roman,Times New Roman_MSFontService,sans-serif" font-weight="400" font-size="41" transform="matrix(1 0 0 1 1940.69 1919)">gradient</text><text font-family="Times New Roman,Times New Roman_MSFontService,sans-serif" font-weight="400" font-size="41" transform="matrix(1 0 0 1 2085.53 1919)">as</text><text font-family="Times New Roman,Times New Roman_MSFontService,sans-serif" font-weight="400" font-size="41" transform="matrix(1 0 0 1 2129.3 1919)">‘M</text><text font-family="Times New Roman,Times New Roman_MSFontService,sans-serif" font-weight="400" font-size="41" transform="matrix(1 0 0 1 2178.8 1919)">.</text><text font-family="Times New Roman,Times New Roman_MSFontService,sans-serif" font-weight="400" font-size="41" transform="matrix(1 0 0 1 2188.65 1919)">L</text><text font-family="Times New Roman,Times New Roman_MSFontService,sans-serif" font-weight="400" font-size="41" transform="matrix(1 0 0 1 2213.4 1919)">.</text><text font-family="Times New Roman,Times New Roman_MSFontService,sans-serif" font-weight="400" font-size="41" transform="matrix(1 0 0 1 2223.26 1919)">’</text><text font-family="Times New Roman,Times New Roman_MSFontService,sans-serif" font-weight="400" font-size="41" transform="matrix(1 0 0 1 2236.55 1919)">.</text></g></svg>