<svg width="915" height="284" xmlns="http://www.w3.org/2000/svg" xmlns:xlink="http://www.w3.org/1999/xlink" xml:space="preserve" overflow="hidden"><defs><clipPath id="clip0"><rect x="1500" y="809" width="915" height="284"/></clipPath></defs><g clip-path="url(#clip0)" transform="translate(-1500 -809)"><path d="M1500.01 872.489 1706.26 872.489 1706.26 920.155 1500.01 920.155Z" fill="#F2F2F2" fill-rule="evenodd"/><path d="M1706.26 872.489 1904.95 872.489 1904.95 920.155 1706.26 920.155Z" fill="#F2F2F2" fill-rule="evenodd"/><path d="M1904.95 872.489 2103.63 872.489 2103.63 920.155 1904.95 920.155Z" fill="#F2F2F2" fill-rule="evenodd"/><path d="M2103.63 872.489 2288.57 872.489 2288.57 920.155 2103.63 920.155Z" fill="#F2F2F2" fill-rule="evenodd"/><path d="M2288.57 872.489 2412.55 872.489 2412.55 920.155 2288.57 920.155Z" fill="#F2F2F2" fill-rule="evenodd"/><path d="M1500.01 962.78 1706.26 962.78 1706.26 1006.78 1500.01 1006.78Z" fill="#F2F2F2" fill-rule="evenodd"/><path d="M1706.26 962.78 1904.95 962.78 1904.95 1006.78 1706.26 1006.78Z" fill="#F2F2F2" fill-rule="evenodd"/><path d="M1904.95 962.78 2103.63 962.78 2103.63 1006.78 1904.95 1006.78Z" fill="#F2F2F2" fill-rule="evenodd"/><path d="M2103.63 962.78 2288.57 962.78 2288.57 1006.78 2103.63 1006.78Z" fill="#F2F2F2" fill-rule="evenodd"/><path d="M2288.57 962.78 2412.55 962.78 2412.55 1006.78 2288.57 1006.78Z" fill="#F2F2F2" fill-rule="evenodd"/><path d="M1706.26 821.729 1706.26 1008.5" stroke="#000000" stroke-width="2.29167" stroke-linejoin="round" stroke-miterlimit="10" fill="none" fill-rule="evenodd"/><path d="M1904.95 821.729 1904.95 1008.5" stroke="#000000" stroke-width="2.29167" stroke-linejoin="round" stroke-miterlimit="10" fill="none" fill-rule="evenodd"/><path d="M2103.63 821.729 2103.63 1008.5" stroke="#000000" stroke-width="2.29167" stroke-linejoin="round" stroke-miterlimit="10" fill="none" fill-rule="evenodd"/><path d="M2288.57 821.729 2288.57 1008.5" stroke="#000000" stroke-width="2.29167" stroke-linejoin="round" stroke-miterlimit="10" fill="none" fill-rule="evenodd"/><path d="M1500.01 872.489 2412.55 872.489" stroke="#000000" stroke-width="2.29167" stroke-linejoin="round" stroke-miterlimit="10" fill="none" fill-rule="evenodd"/><path d="M1500.01 823.447 2412.55 823.447" stroke="#000000" stroke-width="3.4375" stroke-linejoin="round" stroke-miterlimit="10" fill="none" fill-rule="evenodd"/><path d="M1500.01 1006.78 2412.55 1006.78" stroke="#000000" stroke-width="3.4375" stroke-linejoin="round" stroke-miterlimit="10" fill="none" fill-rule="evenodd"/><text font-family="Cambria,Cambria_MSFontService,sans-serif" font-weight="400" font-size="34" transform="matrix(1 0 0 1 1521.32 855)">L</text><text font-family="Times New Roman,Times New Roman_MSFontService,sans-serif" font-weight="400" font-size="25" transform="matrix(1 0 0 1 1539.65 859)">coh</text><text font-family="Cambria,Cambria_MSFontService,sans-serif" font-weight="400" font-size="34" transform="matrix(1 0 0 1 1625.59 855)">L</text><text font-family="Times New Roman,Times New Roman_MSFontService,sans-serif" font-weight="400" font-size="25" transform="matrix(1 0 0 1 1643.01 859)">div</text><text font-family="Times New Roman,Times New Roman_MSFontService,sans-serif" font-weight="400" font-size="34" transform="matrix(1 0 0 1 1733.13 852)">Cityscapes</text><text font-family="Times New Roman,Times New Roman_MSFontService,sans-serif" font-weight="400" font-size="34" transform="matrix(1 0 0 1 1931.7 852)">BDD100K</text><text font-family="Times New Roman,Times New Roman_MSFontService,sans-serif" font-weight="400" font-size="34" transform="matrix(1 0 0 1 2129.99 852)">Mapillary</text><text font-family="Times New Roman,Times New Roman_MSFontService,sans-serif" font-weight="400" font-size="34" transform="matrix(1 0 0 1 2316.76 852)">Avg.</text><text font-family="MS PGothic,MS PGothic_MSFontService,sans-serif" font-weight="400" font-size="34" transform="translate(1538.97 908)">✓</text><text font-family="Times New Roman,Times New Roman_MSFontService,sans-serif" font-weight="400" font-size="34" transform="matrix(1 0 0 1 1768.08 906)">43.85</text><text font-family="Times New Roman,Times New Roman_MSFontService,sans-serif" font-weight="400" font-size="34" transform="matrix(1 0 0 1 1966.76 906)">38.01</text><text font-family="Times New Roman,Times New Roman_MSFontService,sans-serif" font-weight="400" font-size="34" transform="matrix(1 0 0 1 2158.57 906)">41.66</text><text font-family="Times New Roman,Times New Roman_MSFontService,sans-serif" font-weight="400" font-size="34" transform="matrix(1 0 0 1 2310.57 906)">41.17</text><text font-family="MS PGothic,MS PGothic_MSFontService,sans-serif" font-weight="400" font-size="34" transform="translate(1637.28 951)">✓</text><text font-family="Times New Roman,Times New Roman_MSFontService,sans-serif" font-weight="400" font-size="34" transform="matrix(1 0 0 1 1768.08 949)">42.08</text><text font-family="Times New Roman,Times New Roman_MSFontService,sans-serif" font-weight="400" font-size="34" transform="matrix(1 0 0 1 1966.76 949)">36.80</text><text font-family="Times New Roman,Times New Roman_MSFontService,sans-serif" font-weight="400" font-size="34" transform="matrix(1 0 0 1 2158.57 949)">40.83</text><text font-family="Times New Roman,Times New Roman_MSFontService,sans-serif" font-weight="400" font-size="34" transform="matrix(1 0 0 1 2310.57 949)">39.90</text><text font-family="MS PGothic,MS PGothic_MSFontService,sans-serif" font-weight="400" font-size="34" transform="translate(1536.9 994)">✓</text><text font-family="MS PGothic,MS PGothic_MSFontService,sans-serif" font-weight="400" font-size="34" transform="translate(1639.57 994)">✓</text><text font-family="Times New Roman,Times New Roman_MSFontService,sans-serif" font-weight="700" font-size="34" transform="matrix(1 0 0 1 1768.08 992)">44.51</text><text font-family="Times New Roman,Times New Roman_MSFontService,sans-serif" font-weight="700" font-size="34" transform="matrix(1 0 0 1 1966.76 992)">38.07</text><text font-family="Times New Roman,Times New Roman_MSFontService,sans-serif" font-weight="700" font-size="34" transform="matrix(1 0 0 1 2158.57 992)">42.70</text><text font-family="Times New Roman,Times New Roman_MSFontService,sans-serif" font-weight="700" font-size="34" transform="matrix(1 0 0 1 2310.57 992)">41.76</text><text font-family="Times New Roman,Times New Roman_MSFontService,sans-serif" font-weight="400" font-size="41" transform="matrix(1 0 0 1 1573.87 1058)">Table</text><text font-family="Times New Roman,Times New Roman_MSFontService,sans-serif" font-weight="400" font-size="41" transform="matrix(1 0 0 1 1672.87 1058)">5.</text><text font-family="Times New Roman,Times New Roman_MSFontService,sans-serif" font-weight="400" font-size="41" transform="matrix(1 0 0 1 1713.66 1058)">Ablation</text><text font-family="Times New Roman,Times New Roman_MSFontService,sans-serif" font-weight="400" font-size="41" transform="matrix(1 0 0 1 1867.66 1058)">study</text><text font-family="Times New Roman,Times New Roman_MSFontService,sans-serif" font-weight="400" font-size="41" transform="matrix(1 0 0 1 1966.89 1058)">on</text><text font-family="Times New Roman,Times New Roman_MSFontService,sans-serif" font-weight="400" font-size="41" transform="matrix(1 0 0 1 2018 1058)">the</text><text font-family="Times New Roman,Times New Roman_MSFontService,sans-serif" font-weight="400" font-size="41" transform="matrix(1 0 0 1 2078.04 1058)">variants </text><text font-family="Times New Roman,Times New Roman_MSFontService,sans-serif" font-weight="400" font-size="41" transform="matrix(1 0 0 1 2214.85 1058)">of</text><text font-family="Times New Roman,Times New Roman_MSFontService,sans-serif" font-weight="400" font-size="41" transform="matrix(1 0 0 1 2259.08 1058)">loss.</text></g></svg>