<svg width="1141" height="432" xmlns="http://www.w3.org/2000/svg" xmlns:xlink="http://www.w3.org/1999/xlink" xml:space="preserve" overflow="hidden"><defs><clipPath id="clip0"><rect x="1390" y="1073" width="1141" height="432"/></clipPath><clipPath id="clip1"><rect x="1612" y="1168" width="145" height="258"/></clipPath><clipPath id="clip2"><rect x="1612" y="1211" width="145" height="258"/></clipPath></defs><g clip-path="url(#clip0)" transform="translate(-1390 -1073)"><path d="M1445.92 1183.83 1612.75 1183.83 1612.75 1235.63 1445.92 1235.63Z" fill="#F2F2F2" fill-rule="evenodd"/><path d="M1612.75 1183.83 1756.9 1183.83 1756.9 1235.63 1612.75 1235.63Z" fill="#F2F2F2" fill-rule="evenodd"/><path d="M1756.9 1183.83 1956.27 1183.83 1956.27 1235.63 1756.9 1235.63Z" fill="#F2F2F2" fill-rule="evenodd"/><path d="M1956.27 1183.83 2155.65 1183.83 2155.65 1235.63 1956.27 1235.63Z" fill="#F2F2F2" fill-rule="evenodd"/><path d="M2155.65 1183.83 2341.04 1183.83 2341.04 1235.63 2155.65 1235.63Z" fill="#F2F2F2" fill-rule="evenodd"/><path d="M2341.04 1183.83 2465.02 1183.83 2465.02 1235.63 2341.04 1235.63Z" fill="#F2F2F2" fill-rule="evenodd"/><path d="M1445.92 1278.48 1612.75 1278.48 1612.75 1321.33 1445.92 1321.33Z" fill="#F2F2F2" fill-rule="evenodd"/><path d="M1612.75 1278.48 1756.9 1278.48 1756.9 1321.33 1612.75 1321.33Z" fill="#F2F2F2" fill-rule="evenodd"/><path d="M1756.9 1278.48 1956.27 1278.48 1956.27 1321.33 1756.9 1321.33Z" fill="#F2F2F2" fill-rule="evenodd"/><path d="M1956.27 1278.48 2155.65 1278.48 2155.65 1321.33 1956.27 1321.33Z" fill="#F2F2F2" fill-rule="evenodd"/><path d="M2155.65 1278.48 2341.04 1278.48 2341.04 1321.33 2155.65 1321.33Z" fill="#F2F2F2" fill-rule="evenodd"/><path d="M2341.04 1278.48 2465.02 1278.48 2465.02 1321.33 2341.04 1321.33Z" fill="#F2F2F2" fill-rule="evenodd"/><path d="M1612.75 1086.32 1612.75 1137.77" stroke="#000000" stroke-width="3.4375" stroke-linejoin="round" stroke-miterlimit="10" fill="none" fill-rule="evenodd"/><path d="M1612.75 1137.77 1612.75 1367.28" stroke="#000000" stroke-width="2.29167" stroke-linejoin="round" stroke-miterlimit="10" fill="none" fill-rule="evenodd"/><path d="M1756.9 1086.32 1756.9 1367.28" stroke="#000000" stroke-width="2.29167" stroke-linejoin="round" stroke-miterlimit="10" fill="none" fill-rule="evenodd"/><path d="M1956.27 1086.32 1956.27 1367.28" stroke="#000000" stroke-width="2.29167" stroke-linejoin="round" stroke-miterlimit="10" fill="none" fill-rule="evenodd"/><path d="M2155.65 1086.32 2155.65 1367.28" stroke="#000000" stroke-width="2.29167" stroke-linejoin="round" stroke-miterlimit="10" fill="none" fill-rule="evenodd"/><path d="M2341.04 1086.32 2341.04 1367.28" stroke="#000000" stroke-width="2.29167" stroke-linejoin="round" stroke-miterlimit="10" fill="none" fill-rule="evenodd"/><path d="M1611.03 1136.63 1758.04 1136.63" stroke="#000000" stroke-width="2.29167" stroke-linejoin="round" stroke-miterlimit="10" fill="none" fill-rule="evenodd"/><path d="M1445.92 1183.83 2465.02 1183.83" stroke="#000000" stroke-width="2.29167" stroke-linejoin="round" stroke-miterlimit="10" fill="none" fill-rule="evenodd"/><path d="M1445.92 1088.04 2465.02 1088.04" stroke="#000000" stroke-width="3.4375" stroke-linejoin="round" stroke-miterlimit="10" fill="none" fill-rule="evenodd"/><path d="M1445.92 1365.56 2465.02 1365.56" stroke="#000000" stroke-width="3.4375" stroke-linejoin="round" stroke-miterlimit="10" fill="none" fill-rule="evenodd"/><text font-family="Times New Roman,Times New Roman_MSFontService,sans-serif" font-weight="400" font-size="34" transform="matrix(1 0 0 1 1467.23 1140)">Memory</text><text font-family="Times New Roman,Times New Roman_MSFontService,sans-serif" font-weight="400" font-size="34" transform="matrix(1 0 0 1 1637.73 1117)">Freeze</text><text font-family="Times New Roman,Times New Roman_MSFontService,sans-serif" font-weight="400" font-size="34" transform="matrix(1 0 0 1 1778.9 1140)">Cityscapes</text><text font-family="Times New Roman,Times New Roman_MSFontService,sans-serif" font-weight="400" font-size="34" transform="matrix(1 0 0 1 1978.27 1140)">BDD100K</text><text font-family="Times New Roman,Times New Roman_MSFontService,sans-serif" font-weight="400" font-size="34" transform="matrix(1 0 0 1 2177.65 1140)">Mapillary</text><text font-family="Times New Roman,Times New Roman_MSFontService,sans-serif" font-weight="400" font-size="34" transform="matrix(1 0 0 1 2369.46 1140)">Avg.</text><text font-family="Bookman Old Style,Bookman Old Style_MSFontService,sans-serif" font-style="italic" font-weight="300" font-size="34" transform="matrix(1 0 0 1 1634.75 1165)">E</text><text font-family="Bookman Old Style,Bookman Old Style_MSFontService,sans-serif" font-style="italic" font-weight="300" font-size="34" transform="matrix(1 0 0 1 1705.45 1165)">U</text><text font-family="Cambria,Cambria_MSFontService,sans-serif" font-weight="400" font-size="34" transform="matrix(1 0 0 1 1507.33 1219)">M</text><text font-family="Garamond,Garamond_MSFontService,sans-serif" font-weight="400" font-size="34" transform="matrix(1 0 0 1 1534.28 1212)">ˆ</text><text font-family="Times New Roman,Times New Roman_MSFontService,sans-serif" font-weight="400" font-size="34" transform="matrix(1 0 0 1 1643 1221)">-</text><text font-family="Times New Roman,Times New Roman_MSFontService,sans-serif" font-weight="400" font-size="34" transform="matrix(1 0 0 1 1714.5 1221)">-</text><text font-family="Times New Roman,Times New Roman_MSFontService,sans-serif" font-weight="400" font-size="34" transform="matrix(1 0 0 1 1816.25 1221)">40.64</text><text font-family="Times New Roman,Times New Roman_MSFontService,sans-serif" font-weight="400" font-size="34" transform="matrix(1 0 0 1 2015.62 1221)">31.06</text><text font-family="Times New Roman,Times New Roman_MSFontService,sans-serif" font-weight="400" font-size="34" transform="matrix(1 0 0 1 2208.12 1221)">31.59</text><text font-family="Times New Roman,Times New Roman_MSFontService,sans-serif" font-weight="400" font-size="34" transform="matrix(1 0 0 1 2365.85 1221)">34.43</text><text font-family="Cambria,Cambria_MSFontService,sans-serif" font-weight="400" font-size="34" transform="matrix(1 0 0 1 1502.29 1263)">M</text><text font-family="Cambria,Cambria_MSFontService,sans-serif" font-weight="400" font-size="25" transform="matrix(1 0 0 1 1537.45 1253)">′</text><text font-family="MS PGothic,MS PGothic_MSFontService,sans-serif" font-weight="400" font-size="34" transform="translate(1638.87 1267)">✗</text><text font-family="MS PGothic,MS PGothic_MSFontService,sans-serif" font-weight="400" font-size="34" transform="translate(1710.15 1267)">✗</text><text font-family="Times New Roman,Times New Roman_MSFontService,sans-serif" font-weight="400" font-size="34" transform="matrix(1 0 0 1 1816.25 1265)">41.65</text><text font-family="Times New Roman,Times New Roman_MSFontService,sans-serif" font-weight="400" font-size="34" transform="matrix(1 0 0 1 2015.62 1265)">36.56</text><text font-family="Times New Roman,Times New Roman_MSFontService,sans-serif" font-weight="400" font-size="34" transform="matrix(1 0 0 1 2208.12 1265)">38.80</text><text font-family="Times New Roman,Times New Roman_MSFontService,sans-serif" font-weight="400" font-size="34" transform="matrix(1 0 0 1 2365.85 1265)">39.00</text><text font-family="Cambria,Cambria_MSFontService,sans-serif" font-weight="400" font-size="34" transform="matrix(1 0 0 1 1502.29 1305)">M</text><text font-family="Cambria,Cambria_MSFontService,sans-serif" font-weight="400" font-size="25" transform="matrix(1 0 0 1 1537.45 1295)">′</text><text font-family="MS PGothic,MS PGothic_MSFontService,sans-serif" font-weight="400" font-size="34" transform="matrix(1 0 0 1 1635.44 1309)">✓</text><g clip-path="url(#clip1)"><text font-family="MS PGothic,MS PGothic_MSFontService,sans-serif" font-weight="400" font-size="34" transform="translate(1710.15 1309)">✗</text></g><text font-family="Times New Roman,Times New Roman_MSFontService,sans-serif" font-weight="700" font-size="34" transform="matrix(1 0 0 1 1816.25 1307)">44.51</text><text font-family="Times New Roman,Times New Roman_MSFontService,sans-serif" font-weight="700" font-size="34" transform="matrix(1 0 0 1 2015.62 1307)">38.07</text><text font-family="Times New Roman,Times New Roman_MSFontService,sans-serif" font-weight="700" font-size="34" transform="matrix(1 0 0 1 2208.12 1307)">42.70</text><text font-family="Times New Roman,Times New Roman_MSFontService,sans-serif" font-weight="700" font-size="34" transform="matrix(1 0 0 1 2365.85 1307)">41.76</text><text font-family="Cambria,Cambria_MSFontService,sans-serif" font-weight="400" font-size="34" transform="matrix(1 0 0 1 1502.29 1348)">M</text><text font-family="Cambria,Cambria_MSFontService,sans-serif" font-weight="400" font-size="25" transform="matrix(1 0 0 1 1537.45 1338)">′</text><text font-family="MS PGothic,MS PGothic_MSFontService,sans-serif" font-weight="400" font-size="34" transform="translate(1635.67 1352)">✓</text><g clip-path="url(#clip2)"><text font-family="MS PGothic,MS PGothic_MSFontService,sans-serif" font-weight="400" font-size="34" transform="translate(1706.25 1352)">✓</text></g><text font-family="Times New Roman,Times New Roman_MSFontService,sans-serif" font-weight="400" font-size="34" transform="matrix(1 0 0 1 1816.25 1350)">41.67</text><text font-family="Times New Roman,Times New Roman_MSFontService,sans-serif" font-weight="400" font-size="34" transform="matrix(1 0 0 1 2015.62 1350)">32.04</text><text font-family="Times New Roman,Times New Roman_MSFontService,sans-serif" font-weight="400" font-size="34" transform="matrix(1 0 0 1 2208.12 1350)">33.90</text><text font-family="Times New Roman,Times New Roman_MSFontService,sans-serif" font-weight="400" font-size="34" transform="matrix(1 0 0 1 2365.85 1350)">35.87</text><text font-family="Times New Roman,Times New Roman_MSFontService,sans-serif" font-weight="400" font-size="41" transform="matrix(1 0 0 1 1421.99 1420)">Table</text><text font-family="Times New Roman,Times New Roman_MSFontService,sans-serif" font-weight="400" font-size="41" transform="matrix(1 0 0 1 1531.99 1420)">6</text><text font-family="Times New Roman,Times New Roman_MSFontService,sans-serif" font-weight="400" font-size="41" transform="matrix(1 0 0 1 1552.62 1420)">.</text><text font-family="Times New Roman,Times New Roman_MSFontService,sans-serif" font-weight="400" font-size="41" transform="matrix(1 0 0 1 1579.43 1420)">Ablation</text><text font-family="Times New Roman,Times New Roman_MSFontService,sans-serif" font-weight="400" font-size="41" transform="matrix(1 0 0 1 1740.07 1420)">study</text><text font-family="Times New Roman,Times New Roman_MSFontService,sans-serif" font-weight="400" font-size="41" transform="matrix(1 0 0 1 1845.95 1420)">on</text><text font-family="Times New Roman,Times New Roman_MSFontService,sans-serif" font-weight="400" font-size="41" transform="matrix(1 0 0 1 1903.47 1420)">the</text><text font-family="Times New Roman,Times New Roman_MSFontService,sans-serif" font-weight="400" font-size="41" transform="matrix(1 0 0 1 1970.16 1420)">variants</text><text font-family="Times New Roman,Times New Roman_MSFontService,sans-serif" font-weight="400" font-size="41" transform="matrix(1 0 0 1 2117.05 1420)">of</text><text font-family="Times New Roman,Times New Roman_MSFontService,sans-serif" font-weight="400" font-size="41" transform="matrix(1 0 0 1 2167.93 1420)">the</text><text font-family="Times New Roman,Times New Roman_MSFontService,sans-serif" font-weight="400" font-size="41" transform="matrix(1 0 0 1 2234.39 1420)">memory</text><text font-family="Times New Roman,Times New Roman_MSFontService,sans-serif" font-weight="400" font-size="41" transform="matrix(1 0 0 1 2388.39 1420)">update</text><text font-family="Times New Roman,Times New Roman_MSFontService,sans-serif" font-weight="400" font-size="41" transform="matrix(1 0 0 1 1421.99 1470)">strategy</text><text font-family="Times New Roman,Times New Roman_MSFontService,sans-serif" font-weight="400" font-size="41" transform="matrix(1 0 0 1 1562.01 1470)">in</text><text font-family="Times New Roman,Times New Roman_MSFontService,sans-serif" font-weight="400" font-size="41" transform="matrix(1 0 0 1 1603.49 1470)">meta</text><text font-family="Times New Roman,Times New Roman_MSFontService,sans-serif" font-weight="400" font-size="41" transform="matrix(1 0 0 1 1681.87 1470)">-</text><text font-family="Times New Roman,Times New Roman_MSFontService,sans-serif" font-weight="400" font-size="41" transform="matrix(1 0 0 1 1695.16 1470)">testing</text><text font-family="Times New Roman,Times New Roman_MSFontService,sans-serif" font-weight="400" font-size="41" transform="matrix(1 0 0 1 1814.55 1470)">step</text><text font-family="Times New Roman,Times New Roman_MSFontService,sans-serif" font-weight="400" font-size="41" transform="matrix(1 0 0 1 1879.18 1470)">.</text></g></svg>