<svg width="2305" height="447" xmlns="http://www.w3.org/2000/svg" xmlns:xlink="http://www.w3.org/1999/xlink" xml:space="preserve" overflow="hidden"><defs><clipPath id="clip0"><rect x="204" y="311" width="2305" height="447"/></clipPath></defs><g clip-path="url(#clip0)" transform="translate(-204 -311)"><path d="M473.495 329.088 473.495 626.088" stroke="#000000" stroke-width="2.29167" stroke-linejoin="round" stroke-miterlimit="10" fill="none" fill-rule="evenodd"/><path d="M644.453 369.421 644.453 626.088" stroke="#000000" stroke-width="2.29167" stroke-linejoin="round" stroke-miterlimit="10" fill="none" fill-rule="evenodd"/><path d="M809.911 369.421 809.911 626.088" stroke="#000000" stroke-width="2.29167" stroke-linejoin="round" stroke-miterlimit="10" fill="none" fill-rule="evenodd"/><path d="M980.869 329.088 980.869 626.088" stroke="#000000" stroke-width="2.29167" stroke-linejoin="round" stroke-miterlimit="10" fill="none" fill-rule="evenodd"/><path d="M1151.83 369.421 1151.83 626.088" stroke="#000000" stroke-width="2.29167" stroke-linejoin="round" stroke-miterlimit="10" fill="none" fill-rule="evenodd"/><path d="M1317.28 369.421 1317.28 626.088" stroke="#000000" stroke-width="2.29167" stroke-linejoin="round" stroke-miterlimit="10" fill="none" fill-rule="evenodd"/><path d="M1488.24 329.088 1488.24 626.088" stroke="#000000" stroke-width="2.29167" stroke-linejoin="round" stroke-miterlimit="10" fill="none" fill-rule="evenodd"/><path d="M1659.2 369.421 1659.2 626.088" stroke="#000000" stroke-width="2.29167" stroke-linejoin="round" stroke-miterlimit="10" fill="none" fill-rule="evenodd"/><path d="M1824.66 369.421 1824.66 626.088" stroke="#000000" stroke-width="2.29167" stroke-linejoin="round" stroke-miterlimit="10" fill="none" fill-rule="evenodd"/><path d="M1995.62 329.088 1995.62 626.088" stroke="#000000" stroke-width="2.29167" stroke-linejoin="round" stroke-miterlimit="10" fill="none" fill-rule="evenodd"/><path d="M2166.58 369.421 2166.58 626.088" stroke="#000000" stroke-width="2.29167" stroke-linejoin="round" stroke-miterlimit="10" fill="none" fill-rule="evenodd"/><path d="M2332.03 369.421 2332.03 626.088" stroke="#000000" stroke-width="2.29167" stroke-linejoin="round" stroke-miterlimit="10" fill="none" fill-rule="evenodd"/><path d="M230.807 370.567 2496.58 370.567" stroke="#000000" stroke-width="2.29167" stroke-linejoin="round" stroke-miterlimit="10" fill="none" fill-rule="evenodd"/><path d="M230.807 412.963 2496.58 412.963" stroke="#000000" stroke-width="2.29167" stroke-linejoin="round" stroke-miterlimit="10" fill="none" fill-rule="evenodd"/><path d="M230.807 455.359 2496.58 455.359" stroke="#000000" stroke-width="2.29167" stroke-linejoin="round" stroke-miterlimit="10" fill="none" fill-rule="evenodd"/><path d="M230.807 497.754 2496.58 497.754" stroke="#000000" stroke-width="2.29167" stroke-linejoin="round" stroke-miterlimit="10" fill="none" fill-rule="evenodd"/><path d="M230.807 540.15 2496.58 540.15" stroke="#000000" stroke-width="2.29167" stroke-linejoin="round" stroke-miterlimit="10" fill="none" fill-rule="evenodd"/><path d="M230.807 582.546 2496.58 582.546" stroke="#000000" stroke-width="2.29167" stroke-linejoin="round" stroke-miterlimit="10" fill="none" fill-rule="evenodd"/><path d="M230.807 624.942 2496.58 624.942" stroke="#000000" stroke-width="2.29167" stroke-linejoin="round" stroke-miterlimit="10" fill="none" fill-rule="evenodd"/><text font-family="Times New Roman,Times New Roman_MSFontService,sans-serif" font-weight="400" font-size="37" transform="matrix(1 0 0 1 610.536 357)">Parkour</text><text font-family="Times New Roman,Times New Roman_MSFontService,sans-serif" font-weight="400" font-size="37" transform="matrix(1 0 0 1 732.682 357)">Dataset</text><text font-family="Times New Roman,Times New Roman_MSFontService,sans-serif" font-weight="400" font-size="37" transform="matrix(1 0 0 1 1060.16 357)">Vimeo90K</text><text font-family="Times New Roman,Times New Roman_MSFontService,sans-serif" font-weight="400" font-size="37" transform="matrix(1 0 0 1 1227.45 357)">Dataset</text><text font-family="Times New Roman,Times New Roman_MSFontService,sans-serif" font-weight="400" font-size="37" transform="matrix(1 0 0 1 1345.13 357)">[</text><text fill="#00FF00" font-family="Times New Roman,Times New Roman_MSFontService,sans-serif" font-weight="400" font-size="37" transform="matrix(1 0 0 1 1356.24 357)">37</text><text font-family="Times New Roman,Times New Roman_MSFontService,sans-serif" font-weight="400" font-size="37" transform="matrix(1 0 0 1 1391.08 357)">]</text><text font-family="Times New Roman,Times New Roman_MSFontService,sans-serif" font-weight="400" font-size="37" transform="matrix(1 0 0 1 1612.22 357)">Vid4</text><text font-family="Times New Roman,Times New Roman_MSFontService,sans-serif" font-weight="400" font-size="37" transform="matrix(1 0 0 1 1691.51 357)">Dataset</text><text font-family="Times New Roman,Times New Roman_MSFontService,sans-serif" font-weight="400" font-size="37" transform="matrix(1 0 0 1 1808.73 357)">[</text><text fill="#00FF00" font-family="Times New Roman,Times New Roman_MSFontService,sans-serif" font-weight="400" font-size="37" transform="matrix(1 0 0 1 1819.85 357)">21</text><text font-family="Times New Roman,Times New Roman_MSFontService,sans-serif" font-weight="400" font-size="37" transform="matrix(1 0 0 1 1854.68 357)">]</text><text font-family="Times New Roman,Times New Roman_MSFontService,sans-serif" font-weight="400" font-size="37" transform="matrix(1 0 0 1 2106.31 357)">SPMC</text><text font-family="Times New Roman,Times New Roman_MSFontService,sans-serif" font-weight="400" font-size="37" transform="matrix(1 0 0 1 2212.64 357)">Dataset</text><text font-family="Times New Roman,Times New Roman_MSFontService,sans-serif" font-weight="400" font-size="37" transform="matrix(1 0 0 1 2329.86 357)">[</text><text fill="#00FF00" font-family="Times New Roman,Times New Roman_MSFontService,sans-serif" font-weight="400" font-size="37" transform="matrix(1 0 0 1 2340.97 357)">28</text><text font-family="Times New Roman,Times New Roman_MSFontService,sans-serif" font-weight="400" font-size="37" transform="matrix(1 0 0 1 2375.81 357)">]</text><text font-family="Times New Roman,Times New Roman_MSFontService,sans-serif" font-weight="400" font-size="37" transform="matrix(1 0 0 1 507.182 399)">PSNR</text><text font-family="Arial,Arial_MSFontService,sans-serif" font-style="italic" font-weight="400" font-size="37" transform="matrix(1 0 0 1 597.589 399)">↑</text><text font-family="Times New Roman,Times New Roman_MSFontService,sans-serif" font-weight="400" font-size="37" transform="matrix(1 0 0 1 676.192 399)">SSIM</text><text font-family="Arial,Arial_MSFontService,sans-serif" font-style="italic" font-weight="400" font-size="37" transform="matrix(1 0 0 1 760.296 399)">↑</text><text font-family="Times New Roman,Times New Roman_MSFontService,sans-serif" font-weight="400" font-size="37" transform="matrix(1 0 0 1 838.098 399)">LPIPS</text><text font-family="Arial,Arial_MSFontService,sans-serif" font-style="italic" font-weight="400" font-size="37" transform="matrix(1 0 0 1 932.057 399)">↓</text><text font-family="Times New Roman,Times New Roman_MSFontService,sans-serif" font-weight="400" font-size="37" transform="matrix(1 0 0 1 1019.71 399)">PSNR</text><text font-family="Arial,Arial_MSFontService,sans-serif" font-style="italic" font-weight="400" font-size="37" transform="matrix(1 0 0 1 1110.12 399)">↑</text><text font-family="Times New Roman,Times New Roman_MSFontService,sans-serif" font-weight="400" font-size="37" transform="matrix(1 0 0 1 1182.08 399)">SSIM</text><text font-family="Arial,Arial_MSFontService,sans-serif" font-style="italic" font-weight="400" font-size="37" transform="matrix(1 0 0 1 1266.18 399)">↑</text><text font-family="Times New Roman,Times New Roman_MSFontService,sans-serif" font-weight="400" font-size="37" transform="matrix(1 0 0 1 1345.47 399)">LPIPS</text><text font-family="Arial,Arial_MSFontService,sans-serif" font-style="italic" font-weight="400" font-size="37" transform="matrix(1 0 0 1 1439.43 399)">↓</text><text font-family="Times New Roman,Times New Roman_MSFontService,sans-serif" font-weight="400" font-size="37" transform="matrix(1 0 0 1 1523.13 399)">PSNR</text><text font-family="Arial,Arial_MSFontService,sans-serif" font-style="italic" font-weight="400" font-size="37" transform="matrix(1 0 0 1 1613.54 399)">↑</text><text font-family="Times New Roman,Times New Roman_MSFontService,sans-serif" font-weight="400" font-size="37" transform="matrix(1 0 0 1 1689.45 399)">SSIM</text><text font-family="Arial,Arial_MSFontService,sans-serif" font-style="italic" font-weight="400" font-size="37" transform="matrix(1 0 0 1 1773.56 399)">↑</text><text font-family="Times New Roman,Times New Roman_MSFontService,sans-serif" font-weight="400" font-size="37" transform="matrix(1 0 0 1 1852.85 399)">LPIPS</text><text font-family="Arial,Arial_MSFontService,sans-serif" font-style="italic" font-weight="400" font-size="37" transform="matrix(1 0 0 1 1946.81 399)">↓</text><text font-family="Times New Roman,Times New Roman_MSFontService,sans-serif" font-weight="400" font-size="37" transform="matrix(1 0 0 1 2029.31 399)">PSNR</text><text font-family="Arial,Arial_MSFontService,sans-serif" font-style="italic" font-weight="400" font-size="37" transform="matrix(1 0 0 1 2119.71 399)">↑</text><text font-family="Times New Roman,Times New Roman_MSFontService,sans-serif" font-weight="400" font-size="37" transform="matrix(1 0 0 1 2198.32 399)">SSIM</text><text font-family="Arial,Arial_MSFontService,sans-serif" font-style="italic" font-weight="400" font-size="37" transform="matrix(1 0 0 1 2282.42 399)">↑</text><text font-family="Times New Roman,Times New Roman_MSFontService,sans-serif" font-weight="400" font-size="37" transform="matrix(1 0 0 1 2360.22 399)">LPIPS</text><text font-family="Arial,Arial_MSFontService,sans-serif" font-style="italic" font-weight="400" font-size="37" transform="matrix(1 0 0 1 2454.18 399)">↓</text><text font-family="Times New Roman,Times New Roman_MSFontService,sans-serif" font-weight="400" font-size="37" transform="matrix(1 0 0 1 258.078 441)">No</text><text font-family="Times New Roman,Times New Roman_MSFontService,sans-serif" font-weight="400" font-size="37" transform="matrix(1 0 0 1 315.37 441)">Mem</text><text font-family="Times New Roman,Times New Roman_MSFontService,sans-serif" font-weight="400" font-size="37" transform="matrix(1 0 0 1 520.474 441)">33.57</text><text font-family="Times New Roman,Times New Roman_MSFontService,sans-serif" font-weight="400" font-size="37" transform="matrix(1 0 0 1 678.14 441)">0.9367</text><text font-family="Times New Roman,Times New Roman_MSFontService,sans-serif" font-weight="400" font-size="37" transform="matrix(1 0 0 1 842.223 441)">0.1208</text><text font-family="Times New Roman,Times New Roman_MSFontService,sans-serif" font-weight="400" font-size="37" transform="matrix(1 0 0 1 1032.66 441)">34.53</text><text font-family="Times New Roman,Times New Roman_MSFontService,sans-serif" font-weight="400" font-size="37" transform="matrix(1 0 0 1 1184.14 441)">0.9377</text><text font-family="Times New Roman,Times New Roman_MSFontService,sans-serif" font-weight="400" font-size="37" transform="matrix(1 0 0 1 1349.6 441)">0.1113</text><text font-family="Times New Roman,Times New Roman_MSFontService,sans-serif" font-weight="400" font-size="37" transform="matrix(1 0 0 1 1536.25 441)">25.02</text><text font-family="Times New Roman,Times New Roman_MSFontService,sans-serif" font-weight="400" font-size="37" transform="matrix(1 0 0 1 1691.51 441)">0.7739</text><text font-family="Times New Roman,Times New Roman_MSFontService,sans-serif" font-weight="400" font-size="37" transform="matrix(1 0 0 1 1856.97 441)">0.2942</text><text font-family="Times New Roman,Times New Roman_MSFontService,sans-serif" font-weight="400" font-size="37" transform="matrix(1 0 0 1 2042.6 441)">29.01</text><text font-family="Times New Roman,Times New Roman_MSFontService,sans-serif" font-weight="400" font-size="37" transform="matrix(1 0 0 1 2200.26 441)">0.8384</text><text font-family="Times New Roman,Times New Roman_MSFontService,sans-serif" font-weight="400" font-size="37" transform="matrix(1 0 0 1 2364.35 441)">0.2210</text><text font-family="Verdana,Verdana_MSFontService,sans-serif" font-style="italic" font-weight="400" font-size="37" transform="matrix(1 0 0 1 258.078 483)">N</text><text font-family="Book Antiqua,Book Antiqua_MSFontService,sans-serif" font-weight="400" font-size="37" transform="matrix(1 0 0 1 303.568 483)">=</text><text font-family="Book Antiqua,Book Antiqua_MSFontService,sans-serif" font-weight="400" font-size="37" transform="matrix(1 0 0 1 344.474 483)">128</text><text font-family="Times New Roman,Times New Roman_MSFontService,sans-serif" font-weight="400" font-size="37" transform="matrix(1 0 0 1 520.474 483)">33.72</text><text font-family="Times New Roman,Times New Roman_MSFontService,sans-serif" font-weight="400" font-size="37" transform="matrix(1 0 0 1 678.14 483)">0.9384</text><text font-family="Times New Roman,Times New Roman_MSFontService,sans-serif" font-weight="400" font-size="37" transform="matrix(1 0 0 1 842.223 483)">0.1214</text><text font-family="Times New Roman,Times New Roman_MSFontService,sans-serif" font-weight="400" font-size="37" transform="matrix(1 0 0 1 1032.66 483)">34.73</text><text font-family="Times New Roman,Times New Roman_MSFontService,sans-serif" font-weight="400" font-size="37" transform="matrix(1 0 0 1 1184.14 483)">0.9396</text><text font-family="Times New Roman,Times New Roman_MSFontService,sans-serif" font-weight="400" font-size="37" transform="matrix(1 0 0 1 1349.6 483)">0.1089</text><text font-family="Times New Roman,Times New Roman_MSFontService,sans-serif" font-weight="400" font-size="37" transform="matrix(1 0 0 1 1536.25 483)">25.17</text><text font-family="Times New Roman,Times New Roman_MSFontService,sans-serif" font-weight="400" font-size="37" transform="matrix(1 0 0 1 1691.51 483)">0.7791</text><text font-family="Times New Roman,Times New Roman_MSFontService,sans-serif" font-weight="400" font-size="37" transform="matrix(1 0 0 1 1856.97 483)">0.2931</text><text font-family="Times New Roman,Times New Roman_MSFontService,sans-serif" font-weight="400" font-size="37" transform="matrix(1 0 0 1 2042.6 483)">29.17</text><text font-family="Times New Roman,Times New Roman_MSFontService,sans-serif" font-weight="400" font-size="37" transform="matrix(1 0 0 1 2200.26 483)">0.8427</text><text font-family="Times New Roman,Times New Roman_MSFontService,sans-serif" font-weight="400" font-size="37" transform="matrix(1 0 0 1 2364.35 483)">0.2189</text><text font-family="Verdana,Verdana_MSFontService,sans-serif" font-style="italic" font-weight="400" font-size="37" transform="matrix(1 0 0 1 258.078 526)">N</text><text font-family="Book Antiqua,Book Antiqua_MSFontService,sans-serif" font-weight="400" font-size="37" transform="matrix(1 0 0 1 303.568 526)">=</text><text font-family="Book Antiqua,Book Antiqua_MSFontService,sans-serif" font-weight="400" font-size="37" transform="matrix(1 0 0 1 344.474 526)">256</text><text fill="#0000FF" font-family="Times New Roman,Times New Roman_MSFontService,sans-serif" font-weight="400" font-size="37" transform="matrix(1 0 0 1 520.474 526)">33.79</text><text fill="#0000FF" font-family="Times New Roman,Times New Roman_MSFontService,sans-serif" font-weight="400" font-size="37" transform="matrix(1 0 0 1 678.14 526)">0.9395</text><text fill="#0000FF" font-family="Times New Roman,Times New Roman_MSFontService,sans-serif" font-weight="400" font-size="37" transform="matrix(1 0 0 1 842.223 526)">0.1181</text><text fill="#0000FF" font-family="Times New Roman,Times New Roman_MSFontService,sans-serif" font-weight="400" font-size="37" transform="matrix(1 0 0 1 1032.66 526)">34.83</text><text fill="#FF0000" font-family="Times New Roman,Times New Roman_MSFontService,sans-serif" font-weight="400" font-size="37" transform="matrix(1 0 0 1 1184.14 526)">0.9407</text><text fill="#FF0000" font-family="Times New Roman,Times New Roman_MSFontService,sans-serif" font-weight="400" font-size="37" transform="matrix(1 0 0 1 1349.6 526)">0.1073</text><text fill="#0000FF" font-family="Times New Roman,Times New Roman_MSFontService,sans-serif" font-weight="400" font-size="37" transform="matrix(1 0 0 1 1536.25 526)">25.19</text><text fill="#0000FF" font-family="Times New Roman,Times New Roman_MSFontService,sans-serif" font-weight="400" font-size="37" transform="matrix(1 0 0 1 1691.51 526)">0.7815</text><text fill="#0000FF" font-family="Times New Roman,Times New Roman_MSFontService,sans-serif" font-weight="400" font-size="37" transform="matrix(1 0 0 1 1856.97 526)">0.2867</text><text fill="#FF0000" font-family="Times New Roman,Times New Roman_MSFontService,sans-serif" font-weight="400" font-size="37" transform="matrix(1 0 0 1 2042.6 526)">29.30</text><text fill="#FF0000" font-family="Times New Roman,Times New Roman_MSFontService,sans-serif" font-weight="400" font-size="37" transform="matrix(1 0 0 1 2200.26 526)">0.8452</text><text fill="#0000FF" font-family="Times New Roman,Times New Roman_MSFontService,sans-serif" font-weight="400" font-size="37" transform="matrix(1 0 0 1 2364.35 526)">0.2166</text><text font-family="Verdana,Verdana_MSFontService,sans-serif" font-style="italic" font-weight="700" font-size="37" transform="matrix(1 0 0 1 258.078 569)">N</text><text font-family="Tahoma,Tahoma_MSFontService,sans-serif" font-weight="700" font-size="37" transform="matrix(1 0 0 1 309.136 569)">=</text><text font-family="Tahoma,Tahoma_MSFontService,sans-serif" font-weight="700" font-size="37" transform="matrix(1 0 0 1 354.168 569)">512</text><text fill="#FF0000" font-family="Times New Roman,Times New Roman_MSFontService,sans-serif" font-weight="700" font-size="37" transform="matrix(1 0 0 1 520.474 568)">33.81</text><text fill="#FF0000" font-family="Times New Roman,Times New Roman_MSFontService,sans-serif" font-weight="700" font-size="37" transform="matrix(1 0 0 1 678.14 568)">0.9397</text><text fill="#FF0000" font-family="Times New Roman,Times New Roman_MSFontService,sans-serif" font-weight="700" font-size="37" transform="matrix(1 0 0 1 842.223 568)">0.1159</text><text fill="#FF0000" font-family="Times New Roman,Times New Roman_MSFontService,sans-serif" font-weight="700" font-size="37" transform="matrix(1 0 0 1 1032.66 568)">34.84</text><text fill="#0000FF" font-family="Times New Roman,Times New Roman_MSFontService,sans-serif" font-weight="700" font-size="37" transform="matrix(1 0 0 1 1184.14 568)">0.9404</text><text fill="#0000FF" font-family="Times New Roman,Times New Roman_MSFontService,sans-serif" font-weight="700" font-size="37" transform="matrix(1 0 0 1 1349.6 568)">0.1076</text><text fill="#FF0000" font-family="Times New Roman,Times New Roman_MSFontService,sans-serif" font-weight="700" font-size="37" transform="matrix(1 0 0 1 1536.25 568)">25.21</text><text fill="#FF0000" font-family="Times New Roman,Times New Roman_MSFontService,sans-serif" font-weight="700" font-size="37" transform="matrix(1 0 0 1 1691.51 568)">0.7816</text><text fill="#FF0000" font-family="Times New Roman,Times New Roman_MSFontService,sans-serif" font-weight="700" font-size="37" transform="matrix(1 0 0 1 1856.97 568)">0.2842</text><text fill="#0000FF" font-family="Times New Roman,Times New Roman_MSFontService,sans-serif" font-weight="700" font-size="37" transform="matrix(1 0 0 1 2042.6 568)">29.27</text><text fill="#0000FF" font-family="Times New Roman,Times New Roman_MSFontService,sans-serif" font-weight="700" font-size="37" transform="matrix(1 0 0 1 2200.26 568)">0.8449</text><text fill="#FF0000" font-family="Times New Roman,Times New Roman_MSFontService,sans-serif" font-weight="700" font-size="37" transform="matrix(1 0 0 1 2364.35 568)">0.2147</text><text font-family="Verdana,Verdana_MSFontService,sans-serif" font-style="italic" font-weight="400" font-size="37" transform="matrix(1 0 0 1 258.078 611)">N</text><text font-family="Book Antiqua,Book Antiqua_MSFontService,sans-serif" font-weight="400" font-size="37" transform="matrix(1 0 0 1 303.568 611)">=</text><text font-family="Book Antiqua,Book Antiqua_MSFontService,sans-serif" font-weight="400" font-size="37" transform="matrix(1 0 0 1 344.474 611)">1024</text><text font-family="Times New Roman,Times New Roman_MSFontService,sans-serif" font-weight="400" font-size="37" transform="matrix(1 0 0 1 520.474 611)">33.75</text><text font-family="Times New Roman,Times New Roman_MSFontService,sans-serif" font-weight="400" font-size="37" transform="matrix(1 0 0 1 678.14 611)">0.9390</text><text font-family="Times New Roman,Times New Roman_MSFontService,sans-serif" font-weight="400" font-size="37" transform="matrix(1 0 0 1 842.223 611)">0.1213</text><text font-family="Times New Roman,Times New Roman_MSFontService,sans-serif" font-weight="400" font-size="37" transform="matrix(1 0 0 1 1032.66 611)">34.76</text><text font-family="Times New Roman,Times New Roman_MSFontService,sans-serif" font-weight="400" font-size="37" transform="matrix(1 0 0 1 1184.14 611)">0.9398</text><text font-family="Times New Roman,Times New Roman_MSFontService,sans-serif" font-weight="400" font-size="37" transform="matrix(1 0 0 1 1349.6 611)">0.1117</text><text font-family="Times New Roman,Times New Roman_MSFontService,sans-serif" font-weight="400" font-size="37" transform="matrix(1 0 0 1 1536.25 611)">25.19</text><text font-family="Times New Roman,Times New Roman_MSFontService,sans-serif" font-weight="400" font-size="37" transform="matrix(1 0 0 1 1691.51 611)">0.7802</text><text font-family="Times New Roman,Times New Roman_MSFontService,sans-serif" font-weight="400" font-size="37" transform="matrix(1 0 0 1 1856.97 611)">0.2962</text><text font-family="Times New Roman,Times New Roman_MSFontService,sans-serif" font-weight="400" font-size="37" transform="matrix(1 0 0 1 2042.6 611)">29.25</text><text font-family="Times New Roman,Times New Roman_MSFontService,sans-serif" font-weight="400" font-size="37" transform="matrix(1 0 0 1 2200.26 611)">0.8447</text><text font-family="Times New Roman,Times New Roman_MSFontService,sans-serif" font-weight="400" font-size="37" transform="matrix(1 0 0 1 2364.35 611)">0.2234</text><text font-family="Times New Roman,Times New Roman_MSFontService,sans-serif" font-weight="400" font-size="41" transform="matrix(1 0 0 1 229.68 676)">Table</text><text font-family="Times New Roman,Times New Roman_MSFontService,sans-serif" font-weight="400" font-size="41" transform="matrix(1 0 0 1 331.659 676)">2.</text><text font-family="Times New Roman,Times New Roman_MSFontService,sans-serif" font-weight="400" font-size="41" transform="matrix(1 0 0 1 376.576 676)">Evaluation</text><text font-family="Times New Roman,Times New Roman_MSFontService,sans-serif" font-weight="400" font-size="41" transform="matrix(1 0 0 1 565.409 676)">on</text><text font-family="Times New Roman,Times New Roman_MSFontService,sans-serif" font-weight="400" font-size="41" transform="matrix(1 0 0 1 617.201 676)">memory size in the</text><text font-family="Times New Roman,Times New Roman_MSFontService,sans-serif" font-weight="400" font-size="41" transform="matrix(1 0 0 1 942.846 676)">memory</text><text font-family="Times New Roman,Times New Roman_MSFontService,sans-serif" font-weight="400" font-size="41" transform="matrix(1 0 0 1 1077.6 676)">-</text><text font-family="Times New Roman,Times New Roman_MSFontService,sans-serif" font-weight="400" font-size="41" transform="matrix(1 0 0 1 1090.89 676)">augmented attention module.</text><text font-family="Times New Roman,Times New Roman_MSFontService,sans-serif" font-weight="400" font-size="41" transform="matrix(1 0 0 1 1584.97 676)">The</text><text font-family="Century Gothic,Century Gothic_MSFontService,sans-serif" font-style="italic" font-weight="400" font-size="41" transform="matrix(1 0 0 1 1659.68 676)">N</text><text font-family="Garamond,Garamond_MSFontService,sans-serif" font-weight="400" font-size="41" transform="matrix(1 0 0 1 1709.29 676)">=</text><text font-family="Garamond,Garamond_MSFontService,sans-serif" font-weight="400" font-size="41" transform="matrix(1 0 0 1 1754.21 676)">512 </text><text font-family="Times New Roman,Times New Roman_MSFontService,sans-serif" font-weight="400" font-size="41" transform="matrix(1 0 0 1 1822.96 676)">is selected</text><text font-family="Times New Roman,Times New Roman_MSFontService,sans-serif" font-weight="400" font-size="41" transform="matrix(1 0 0 1 2004.23 676)">for the experiments</text><text font-family="Times New Roman,Times New Roman_MSFontService,sans-serif" font-weight="400" font-size="41" transform="matrix(1 0 0 1 2335.15 676)">shown</text><text font-family="Times New Roman,Times New Roman_MSFontService,sans-serif" font-weight="400" font-size="41" transform="matrix(1 0 0 1 2453.4 676)">in</text><text font-family="Times New Roman,Times New Roman_MSFontService,sans-serif" font-weight="400" font-size="41" transform="matrix(1 0 0 1 229.68 723)">Sec.</text><text fill="#FF0000" font-family="Times New Roman,Times New Roman_MSFontService,sans-serif" font-weight="400" font-size="41" transform="matrix(1 0 0 1 308.971 723)">4.2</text><text font-family="Times New Roman,Times New Roman_MSFontService,sans-serif" font-weight="400" font-size="41" transform="matrix(1 0 0 1 369.93 723)">and</text><text font-family="Times New Roman,Times New Roman_MSFontService,sans-serif" font-weight="400" font-size="41" transform="matrix(1 0 0 1 438.909 723)">Sec.</text><text fill="#FF0000" font-family="Times New Roman,Times New Roman_MSFontService,sans-serif" font-weight="400" font-size="41" transform="matrix(1 0 0 1 518.43 723)">4.3</text></g></svg>