<svg width="1137" height="663" xmlns="http://www.w3.org/2000/svg" xmlns:xlink="http://www.w3.org/1999/xlink" xml:space="preserve" overflow="hidden"><defs><clipPath id="clip0"><rect x="1390" y="308" width="1137" height="663"/></clipPath></defs><g clip-path="url(#clip0)" transform="translate(-1390 -308)"><text font-family="Times New Roman,Times New Roman_MSFontService,sans-serif" font-weight="400" font-size="41" transform="matrix(1 0 0 1 1415.62 361)">Table</text><text font-family="Times New Roman,Times New Roman_MSFontService,sans-serif" font-weight="400" font-size="41" transform="matrix(1 0 0 1 1514.48 361)">2</text><text font-family="Times New Roman,Times New Roman_MSFontService,sans-serif" font-weight="400" font-size="41" transform="matrix(1 0 0 1 1535.06 361)">.</text><text font-family="Times New Roman,Times New Roman_MSFontService,sans-serif" font-weight="400" font-size="41" transform="matrix(1 0 0 1 1559.26 361)">Comparison</text><text font-family="Times New Roman,Times New Roman_MSFontService,sans-serif" font-weight="400" font-size="41" transform="matrix(1 0 0 1 1766.75 361)">of</text><text font-family="Times New Roman,Times New Roman_MSFontService,sans-serif" font-weight="400" font-size="41" transform="matrix(1 0 0 1 1811 361)">different</text><text font-family="Times New Roman,Times New Roman_MSFontService,sans-serif" font-weight="400" font-size="41" transform="matrix(1 0 0 1 1959.43 361)">methods</text><text font-family="Times New Roman,Times New Roman_MSFontService,sans-serif" font-weight="400" font-size="41" transform="matrix(1 0 0 1 2106.58 361)">for</text><text font-family="Times New Roman,Times New Roman_MSFontService,sans-serif" font-weight="400" font-size="41" transform="matrix(1 0 0 1 2164.08 361)">performance</text><text font-family="Times New Roman,Times New Roman_MSFontService,sans-serif" font-weight="400" font-size="41" transform="matrix(1 0 0 1 2377.96 361)">drop</text><text font-family="Times New Roman,Times New Roman_MSFontService,sans-serif" font-weight="400" font-size="41" transform="matrix(1 0 0 1 2462.36 361)">on</text><text font-family="Times New Roman,Times New Roman_MSFontService,sans-serif" font-weight="400" font-size="41" transform="matrix(1 0 0 1 1415.62 411)">source</text><text font-family="Times New Roman,Times New Roman_MSFontService,sans-serif" font-weight="400" font-size="41" transform="matrix(1 0 0 1 1531.32 411)">domain</text><text font-family="Times New Roman,Times New Roman_MSFontService,sans-serif" font-weight="400" font-size="41" transform="matrix(1 0 0 1 1654.94 411)">.</text><text font-family="Times New Roman,Times New Roman_MSFontService,sans-serif" font-weight="400" font-size="41" transform="matrix(1 0 0 1 1678.04 411)">The</text><text font-family="Times New Roman,Times New Roman_MSFontService,sans-serif" font-weight="400" font-size="41" transform="matrix(1 0 0 1 1753.02 411)">performance</text><text font-family="Times New Roman,Times New Roman_MSFontService,sans-serif" font-weight="400" font-size="41" transform="matrix(1 0 0 1 1967.15 411)">drop</text><text font-family="Times New Roman,Times New Roman_MSFontService,sans-serif" font-weight="400" font-size="41" transform="matrix(1 0 0 1 2053.57 411)">(</text><text font-family="JetBrains Mono,JetBrains Mono_MSFontService,sans-serif" font-style="italic" font-weight="400" font-size="41" transform="matrix(1 0 0 1 2067.3 411)">⇓</text><text font-family="Times New Roman,Times New Roman_MSFontService,sans-serif" font-weight="400" font-size="41" transform="matrix(1 0 0 1 2091.91 411)">)</text><text font-family="Times New Roman,Times New Roman_MSFontService,sans-serif" font-weight="400" font-size="41" transform="matrix(1 0 0 1 2116.52 411)">is</text><text font-family="Times New Roman,Times New Roman_MSFontService,sans-serif" font-weight="400" font-size="41" transform="matrix(1 0 0 1 2154.86 411)">obtained</text><text font-family="Times New Roman,Times New Roman_MSFontService,sans-serif" font-weight="400" font-size="41" transform="matrix(1 0 0 1 2303.8 411)">with</text><text font-family="Times New Roman,Times New Roman_MSFontService,sans-serif" font-weight="400" font-size="41" transform="matrix(1 0 0 1 2387.83 411)">respect</text><text font-family="Times New Roman,Times New Roman_MSFontService,sans-serif" font-weight="400" font-size="41" transform="matrix(1 0 0 1 1415.62 461)">to</text><text font-family="Times New Roman,Times New Roman_MSFontService,sans-serif" font-weight="400" font-size="41" transform="matrix(1 0 0 1 1461.11 461)">the</text><text font-family="Times New Roman,Times New Roman_MSFontService,sans-serif" font-weight="400" font-size="41" transform="matrix(1 0 0 1 1524.86 461)">baseline</text><text font-family="Times New Roman,Times New Roman_MSFontService,sans-serif" font-weight="400" font-size="41" transform="matrix(1 0 0 1 1659.52 461)">.</text><text font-family="Times New Roman,Times New Roman_MSFontService,sans-serif" font-weight="400" font-size="41" transform="matrix(1 0 0 1 1688.03 461)">The</text><text font-family="Times New Roman,Times New Roman_MSFontService,sans-serif" font-weight="400" font-size="41" transform="matrix(1 0 0 1 1765.53 461)">best</text><text font-family="Times New Roman,Times New Roman_MSFontService,sans-serif" font-weight="400" font-size="41" transform="matrix(1 0 0 1 1845.26 461)">and</text><text font-family="Times New Roman,Times New Roman_MSFontService,sans-serif" font-weight="400" font-size="41" transform="matrix(1 0 0 1 1918.18 461)">second</text><text font-family="Times New Roman,Times New Roman_MSFontService,sans-serif" font-weight="400" font-size="41" transform="matrix(1 0 0 1 2045.89 461)">best</text><text font-family="Times New Roman,Times New Roman_MSFontService,sans-serif" font-weight="400" font-size="41" transform="matrix(1 0 0 1 2125.62 461)">values</text><text font-family="Times New Roman,Times New Roman_MSFontService,sans-serif" font-weight="400" font-size="41" transform="matrix(1 0 0 1 2244.17 461)">are</text><text font-family="Times New Roman,Times New Roman_MSFontService,sans-serif" font-weight="700" font-size="41" transform="matrix(1 0 0 1 2307.85 461)">highlighted</text><text font-family="Times New Roman,Times New Roman_MSFontService,sans-serif" font-weight="400" font-size="41" transform="matrix(1 0 0 1 1415.62 511)">and</text><text font-family="Times New Roman,Times New Roman_MSFontService,sans-serif" font-weight="400" font-size="41" text-decoration="underline" transform="matrix(1 0 0 1 1484.37 511)">underlined</text><text font-family="Times New Roman,Times New Roman_MSFontService,sans-serif" font-weight="400" font-size="41" transform="matrix(1 0 0 1 1656.24 511)">,</text><text font-family="Times New Roman,Times New Roman_MSFontService,sans-serif" font-weight="400" font-size="41" transform="matrix(1 0 0 1 1675.72 511)">respectively</text><text font-family="Times New Roman,Times New Roman_MSFontService,sans-serif" font-weight="400" font-size="41" transform="matrix(1 0 0 1 1869.6 511)">.</text><text font-family="Times New Roman,Times New Roman_MSFontService,sans-serif" font-weight="400" font-size="41" transform="matrix(1 0 0 1 1892.74 511)">The</text><text font-family="Times New Roman,Times New Roman_MSFontService,sans-serif" font-weight="400" font-size="41" transform="matrix(1 0 0 1 1966.3 511)">network</text><text font-family="Times New Roman,Times New Roman_MSFontService,sans-serif" font-weight="400" font-size="41" transform="matrix(1 0 0 1 2107.7 511)">backbone</text><text font-family="Times New Roman,Times New Roman_MSFontService,sans-serif" font-weight="400" font-size="41" transform="matrix(1 0 0 1 2271.33 511)">is</text><text font-family="Times New Roman,Times New Roman_MSFontService,sans-serif" font-weight="400" font-size="41" transform="matrix(1 0 0 1 2308.22 511)">ResNet</text><text font-family="Times New Roman,Times New Roman_MSFontService,sans-serif" font-weight="400" font-size="41" transform="matrix(1 0 0 1 2426.93 511)">-</text><text font-family="Times New Roman,Times New Roman_MSFontService,sans-serif" font-weight="400" font-size="41" transform="matrix(1 0 0 1 2440.22 511)">50</text><text font-family="Times New Roman,Times New Roman_MSFontService,sans-serif" font-weight="400" font-size="41" transform="matrix(1 0 0 1 2479.18 511)">.</text><path d="M1418.14 609.661 2484.22 609.661" stroke="#000000" stroke-width="2.29167" stroke-linejoin="round" stroke-miterlimit="10" fill="none" fill-rule="evenodd"/><path d="M1418.14 664.89 2484.22 664.89" stroke="#000000" stroke-width="6.875" stroke-linejoin="round" stroke-miterlimit="10" fill="none" fill-rule="evenodd"/><path d="M1418.14 554.203 2484.22 554.203" stroke="#000000" stroke-width="10.3125" stroke-linejoin="round" stroke-miterlimit="10" fill="none" fill-rule="evenodd"/><text font-family="Times New Roman,Times New Roman_MSFontService,sans-serif" font-weight="400" font-size="34" transform="matrix(1 0 0 1 1470.27 597)">Methods</text><text font-family="Times New Roman,Times New Roman_MSFontService,sans-serif" font-weight="400" font-size="34" transform="matrix(1 0 0 1 1649.08 597)">GTA5</text><text font-family="Times New Roman,Times New Roman_MSFontService,sans-serif" font-weight="400" font-size="34" transform="matrix(1 0 0 1 1784.8 597)">SYNTHIA</text><text font-family="Times New Roman,Times New Roman_MSFontService,sans-serif" font-weight="400" font-size="34" transform="matrix(1 0 0 1 1986.64 597)">Cityscapes</text><text font-family="Times New Roman,Times New Roman_MSFontService,sans-serif" font-weight="400" font-size="34" transform="matrix(1 0 0 1 2185.1 597)">BDDS</text><text font-family="Times New Roman,Times New Roman_MSFontService,sans-serif" font-weight="400" font-size="34" transform="matrix(1 0 0 1 2325.29 597)">Mapillary</text><text font-family="Times New Roman,Times New Roman_MSFontService,sans-serif" font-weight="400" font-size="34" transform="matrix(1 0 0 1 1470.73 639)">Baseline</text><text font-family="Times New Roman,Times New Roman_MSFontService,sans-serif" font-weight="400" font-size="34" transform="matrix(1 0 0 1 1653.55 639)">73.95</text><text font-family="Times New Roman,Times New Roman_MSFontService,sans-serif" font-weight="400" font-size="34" transform="matrix(1 0 0 1 1820.73 639)">70.84</text><text font-family="Times New Roman,Times New Roman_MSFontService,sans-serif" font-weight="400" font-size="34" transform="matrix(1 0 0 1 2021.59 639)">77.93</text><text font-family="Times New Roman,Times New Roman_MSFontService,sans-serif" font-weight="400" font-size="34" transform="matrix(1 0 0 1 2191.29 639)">79.67</text><text font-family="Times New Roman,Times New Roman_MSFontService,sans-serif" font-weight="400" font-size="34" transform="matrix(1 0 0 1 2353.88 639)">70.49</text><text font-family="Times New Roman,Times New Roman_MSFontService,sans-serif" font-weight="400" font-size="34" transform="matrix(1 0 0 1 1448.16 717)">IBN</text><text font-family="Georgia,Georgia_MSFontService,sans-serif" font-style="italic" font-weight="400" font-size="25" transform="matrix(1 0 0 1 1507.17 706)">†</text><text font-family="Times New Roman,Times New Roman_MSFontService,sans-serif" font-weight="400" font-size="34" transform="matrix(1 0 0 1 1534.19 717)">[</text><text fill="#31CD31" font-family="Times New Roman,Times New Roman_MSFontService,sans-serif" font-weight="400" font-size="34" transform="matrix(1 0 0 1 1544.73 717)">47</text><text font-family="Times New Roman,Times New Roman_MSFontService,sans-serif" font-weight="400" font-size="34" transform="matrix(1 0 0 1 1577.27 717)">]</text><text font-family="Times New Roman,Times New Roman_MSFontService,sans-serif" font-weight="400" font-size="34" transform="matrix(1 0 0 1 1459.85 742)">SW</text><text font-family="Times New Roman,Times New Roman_MSFontService,sans-serif" font-weight="400" font-size="34" transform="matrix(1 0 0 1 1522.75 742)">[</text><text fill="#31CD31" font-family="Times New Roman,Times New Roman_MSFontService,sans-serif" font-weight="400" font-size="34" transform="matrix(1 0 0 1 1533.29 742)">48</text><text font-family="Times New Roman,Times New Roman_MSFontService,sans-serif" font-weight="400" font-size="34" transform="matrix(1 0 0 1 1565.84 742)">]</text><text font-family="JetBrains Mono,JetBrains Mono_MSFontService,sans-serif" font-style="italic" font-weight="400" font-size="34" transform="matrix(1 0 0 1 1651.83 716)">⇓</text><text font-family="Times New Roman,Times New Roman_MSFontService,sans-serif" font-weight="400" font-size="34" transform="matrix(1 0 0 1 1672 716)">1.05</text><text font-family="JetBrains Mono,JetBrains Mono_MSFontService,sans-serif" font-style="italic" font-weight="400" font-size="34" transform="matrix(1 0 0 1 1819.01 716)">⇓</text><text font-family="Times New Roman,Times New Roman_MSFontService,sans-serif" font-weight="400" font-size="34" transform="matrix(1 0 0 1 1839.17 716)">2.40</text><text font-family="JetBrains Mono,JetBrains Mono_MSFontService,sans-serif" font-style="italic" font-weight="400" font-size="34" transform="matrix(1 0 0 1 2019.87 716)">⇓</text><text font-family="Times New Roman,Times New Roman_MSFontService,sans-serif" font-weight="400" font-size="34" transform="matrix(1 0 0 1 2040.04 716)">1.38</text><text font-family="JetBrains Mono,JetBrains Mono_MSFontService,sans-serif" font-style="italic" font-weight="400" font-size="34" transform="matrix(1 0 0 1 2189.57 716)">⇓</text><text font-family="Times New Roman,Times New Roman_MSFontService,sans-serif" font-weight="400" font-size="34" text-decoration="underline" transform="matrix(1 0 0 1 2209.74 716)">1.30</text><text font-family="JetBrains Mono,JetBrains Mono_MSFontService,sans-serif" font-style="italic" font-weight="400" font-size="34" transform="matrix(1 0 0 1 2352.16 716)">⇓</text><text font-family="Times New Roman,Times New Roman_MSFontService,sans-serif" font-weight="400" font-size="34" transform="matrix(1 0 0 1 2372.33 716)">2.25</text><text font-family="JetBrains Mono,JetBrains Mono_MSFontService,sans-serif" font-style="italic" font-weight="400" font-size="34" transform="matrix(1 0 0 1 1648.53 760)">⇓</text><text font-family="Times New Roman,Times New Roman_MSFontService,sans-serif" font-weight="400" font-size="34" text-decoration="underline" transform="matrix(1 0 0 1 1668.7 760)">0.45</text><text font-family="JetBrains Mono,JetBrains Mono_MSFontService,sans-serif" font-style="italic" font-weight="400" font-size="34" transform="matrix(1 0 0 1 1815.59 760)">⇓</text><text font-family="Times New Roman,Times New Roman_MSFontService,sans-serif" font-weight="400" font-size="34" transform="matrix(1 0 0 1 1835.76 760)">1.71</text><text font-family="JetBrains Mono,JetBrains Mono_MSFontService,sans-serif" font-style="italic" font-weight="400" font-size="34" transform="matrix(1 0 0 1 2016.44 760)">⇓</text><text font-family="Times New Roman,Times New Roman_MSFontService,sans-serif" font-weight="400" font-size="34" text-decoration="underline" transform="matrix(1 0 0 1 2036.61 760)">0.63</text><text font-family="JetBrains Mono,JetBrains Mono_MSFontService,sans-serif" font-style="italic" font-weight="400" font-size="34" transform="matrix(1 0 0 1 2186.21 760)">⇓</text><text font-family="Times New Roman,Times New Roman_MSFontService,sans-serif" font-weight="400" font-size="34" transform="matrix(1 0 0 1 2206.38 760)">1.52</text><text font-family="JetBrains Mono,JetBrains Mono_MSFontService,sans-serif" font-style="italic" font-weight="400" font-size="34" transform="matrix(1 0 0 1 2348.95 760)">⇓</text><text font-family="Times New Roman,Times New Roman_MSFontService,sans-serif" font-weight="400" font-size="34" text-decoration="underline" transform="matrix(1 0 0 1 2369.12 760)">0.91</text><text font-family="Times New Roman,Times New Roman_MSFontService,sans-serif" font-weight="400" font-size="34" transform="matrix(1 0 0 1 1439.81 803)">DRPC</text><text font-family="Times New Roman,Times New Roman_MSFontService,sans-serif" font-weight="400" font-size="34" transform="matrix(1 0 0 1 1539.16 803)">[</text><text fill="#31CD31" font-family="Times New Roman,Times New Roman_MSFontService,sans-serif" font-weight="400" font-size="34" transform="matrix(1 0 0 1 1550.61 803)">66</text><text font-family="Times New Roman,Times New Roman_MSFontService,sans-serif" font-weight="400" font-size="34" transform="matrix(1 0 0 1 1584.99 803)">]</text><text font-family="JetBrains Mono,JetBrains Mono_MSFontService,sans-serif" font-style="italic" font-weight="400" font-size="34" transform="matrix(1 0 0 1 1647.55 803)">⇓</text><text font-family="Times New Roman,Times New Roman_MSFontService,sans-serif" font-weight="400" font-size="34" transform="matrix(1 0 0 1 1667.26 803)">2.37</text><text font-family="JetBrains Mono,JetBrains Mono_MSFontService,sans-serif" font-style="italic" font-weight="400" font-size="34" transform="matrix(1 0 0 1 1815.59 803)">⇓</text><text font-family="Times New Roman,Times New Roman_MSFontService,sans-serif" font-weight="400" font-size="34" transform="matrix(1 0 0 1 1835.76 803)">3.63</text><text font-family="JetBrains Mono,JetBrains Mono_MSFontService,sans-serif" font-style="italic" font-weight="400" font-size="34" transform="matrix(1 0 0 1 2016.44 803)">⇓</text><text font-family="Times New Roman,Times New Roman_MSFontService,sans-serif" font-weight="400" font-size="34" transform="matrix(1 0 0 1 2036.61 803)">2.72</text><text font-family="JetBrains Mono,JetBrains Mono_MSFontService,sans-serif" font-style="italic" font-weight="400" font-size="34" transform="matrix(1 0 0 1 2186.21 803)">⇓</text><text font-family="Times New Roman,Times New Roman_MSFontService,sans-serif" font-weight="400" font-size="34" transform="matrix(1 0 0 1 2206.38 803)">2.46</text><text font-family="JetBrains Mono,JetBrains Mono_MSFontService,sans-serif" font-style="italic" font-weight="400" font-size="34" transform="matrix(1 0 0 1 2348.95 803)">⇓</text><text font-family="Times New Roman,Times New Roman_MSFontService,sans-serif" font-weight="400" font-size="34" transform="matrix(1 0 0 1 2369.12 803)">3.05</text><text font-family="Times New Roman,Times New Roman_MSFontService,sans-serif" font-weight="400" font-size="34" transform="matrix(1 0 0 1 1443.34 847)">GTR</text><text font-family="Georgia,Georgia_MSFontService,sans-serif" font-style="italic" font-weight="400" font-size="25" transform="matrix(1 0 0 1 1512.09 836)">†</text><text font-family="Times New Roman,Times New Roman_MSFontService,sans-serif" font-weight="400" font-size="34" transform="matrix(1 0 0 1 1539.59 847)">[</text><text fill="#31CD31" font-family="Times New Roman,Times New Roman_MSFontService,sans-serif" font-weight="400" font-size="34" transform="matrix(1 0 0 1 1550.13 847)">51</text><text font-family="Times New Roman,Times New Roman_MSFontService,sans-serif" font-weight="400" font-size="34" transform="matrix(1 0 0 1 1582.67 847)">]</text><text font-family="JetBrains Mono,JetBrains Mono_MSFontService,sans-serif" font-style="italic" font-weight="400" font-size="34" transform="matrix(1 0 0 1 1648.44 847)">⇓</text><text font-family="Times New Roman,Times New Roman_MSFontService,sans-serif" font-weight="400" font-size="34" transform="matrix(1 0 0 1 1668.61 847)">2.07</text><text font-family="JetBrains Mono,JetBrains Mono_MSFontService,sans-serif" font-style="italic" font-weight="400" font-size="34" transform="matrix(1 0 0 1 1815.59 847)">⇓</text><text font-family="Times New Roman,Times New Roman_MSFontService,sans-serif" font-weight="400" font-size="34" transform="matrix(1 0 0 1 1835.76 847)">2.11</text><text font-family="JetBrains Mono,JetBrains Mono_MSFontService,sans-serif" font-style="italic" font-weight="400" font-size="34" transform="matrix(1 0 0 1 2016.44 847)">⇓</text><text font-family="Times New Roman,Times New Roman_MSFontService,sans-serif" font-weight="400" font-size="34" transform="matrix(1 0 0 1 2036.61 847)">3.25</text><text font-family="JetBrains Mono,JetBrains Mono_MSFontService,sans-serif" font-style="italic" font-weight="400" font-size="34" transform="matrix(1 0 0 1 2186.21 847)">⇓</text><text font-family="Times New Roman,Times New Roman_MSFontService,sans-serif" font-weight="400" font-size="34" transform="matrix(1 0 0 1 2206.38 847)">3.64</text><text font-family="JetBrains Mono,JetBrains Mono_MSFontService,sans-serif" font-style="italic" font-weight="400" font-size="34" transform="matrix(1 0 0 1 2348.95 847)">⇓</text><text font-family="Times New Roman,Times New Roman_MSFontService,sans-serif" font-weight="400" font-size="34" transform="matrix(1 0 0 1 2369.12 847)">4.17</text><text font-family="JetBrains Mono,JetBrains Mono_MSFontService,sans-serif" font-style="italic" font-weight="400" font-size="34" transform="matrix(1 0 0 1 1815.59 890)">⇓</text><text font-family="Times New Roman,Times New Roman_MSFontService,sans-serif" font-weight="400" font-size="34" text-decoration="underline" transform="matrix(1 0 0 1 1835.76 890)">1.28</text><text font-family="JetBrains Mono,JetBrains Mono_MSFontService,sans-serif" font-style="italic" font-weight="400" font-size="34" transform="matrix(1 0 0 1 2016.44 890)">⇓</text><text font-family="Times New Roman,Times New Roman_MSFontService,sans-serif" font-weight="400" font-size="34" transform="matrix(1 0 0 1 2036.61 890)">1.52</text><text font-family="JetBrains Mono,JetBrains Mono_MSFontService,sans-serif" font-style="italic" font-weight="400" font-size="34" transform="matrix(1 0 0 1 2186.21 890)">⇓</text><text font-family="Times New Roman,Times New Roman_MSFontService,sans-serif" font-weight="400" font-size="34" transform="matrix(1 0 0 1 2206.38 890)">1.83</text><text font-family="JetBrains Mono,JetBrains Mono_MSFontService,sans-serif" font-style="italic" font-weight="400" font-size="34" transform="matrix(1 0 0 1 2348.95 890)">⇓</text><text font-family="Times New Roman,Times New Roman_MSFontService,sans-serif" font-weight="400" font-size="34" transform="matrix(1 0 0 1 2369.12 890)">1.23</text><text font-family="Times New Roman,Times New Roman_MSFontService,sans-serif" font-weight="400" font-size="34" transform="matrix(1 0 0 1 1455.38 890)">ISW</text><text font-family="Georgia,Georgia_MSFontService,sans-serif" font-style="italic" font-weight="400" font-size="25" transform="matrix(1 0 0 1 1518.41 879)">†</text><text font-family="Times New Roman,Times New Roman_MSFontService,sans-serif" font-weight="400" font-size="34" transform="matrix(1 0 0 1 1545.65 890)">[</text><text fill="#31CD31" font-family="Times New Roman,Times New Roman_MSFontService,sans-serif" font-weight="400" font-size="34" transform="matrix(1 0 0 1 1555.97 890)">9</text><text font-family="Times New Roman,Times New Roman_MSFontService,sans-serif" font-weight="400" font-size="34" transform="matrix(1 0 0 1 1572.01 890)">]</text><text font-family="JetBrains Mono,JetBrains Mono_MSFontService,sans-serif" font-style="italic" font-weight="400" font-size="34" transform="matrix(1 0 0 1 1648.34 890)">⇓</text><text font-family="Times New Roman,Times New Roman_MSFontService,sans-serif" font-weight="400" font-size="34" transform="matrix(1 0 0 1 1668.51 890)">1.85</text><text font-family="Times New Roman,Times New Roman_MSFontService,sans-serif" font-weight="400" font-size="34" transform="matrix(1 0 0 1 1486.32 931)">Ours</text><text font-family="JetBrains Mono,JetBrains Mono_MSFontService,sans-serif" font-style="italic" font-weight="400" font-size="34" transform="matrix(1 0 0 1 1648.34 931)">⇓</text><text font-family="Times New Roman,Times New Roman_MSFontService,sans-serif" font-weight="700" font-size="34" transform="matrix(1 0 0 1 1668.51 931)">0.19</text><text font-family="JetBrains Mono,JetBrains Mono_MSFontService,sans-serif" font-style="italic" font-weight="400" font-size="34" transform="matrix(1 0 0 1 1815.59 934)">⇓</text><text font-family="Times New Roman,Times New Roman_MSFontService,sans-serif" font-weight="700" font-size="34" transform="matrix(1 0 0 1 1835.76 934)">0.08</text><text font-family="JetBrains Mono,JetBrains Mono_MSFontService,sans-serif" font-style="italic" font-weight="400" font-size="34" transform="matrix(1 0 0 1 2016.44 934)">⇓</text><text font-family="Times New Roman,Times New Roman_MSFontService,sans-serif" font-weight="700" font-size="34" transform="matrix(1 0 0 1 2036.61 934)">0.06</text><text font-family="JetBrains Mono,JetBrains Mono_MSFontService,sans-serif" font-style="italic" font-weight="400" font-size="34" transform="matrix(1 0 0 1 2186.21 934)">⇓</text><text font-family="Times New Roman,Times New Roman_MSFontService,sans-serif" font-weight="700" font-size="34" transform="matrix(1 0 0 1 2206.38 934)">0.23</text><text font-family="JetBrains Mono,JetBrains Mono_MSFontService,sans-serif" font-style="italic" font-weight="400" font-size="34" transform="matrix(1 0 0 1 2348.95 934)">⇓</text><text font-family="Times New Roman,Times New Roman_MSFontService,sans-serif" font-weight="700" font-size="34" transform="matrix(1 0 0 1 2369.12 934)">0.34</text><path d="M2484.81 966 1418 966 1418 970.925 2484.81 970.925 2484.81 966Z" fill-rule="evenodd"/></g></svg>